<?xml version="1.0" standalone="no"?>
<!DOCTYPE svg PUBLIC "-//W3C//DTD SVG 1.1//EN" "http://www.w3.org/Graphics/SVG/1.1/DTD/svg11.dtd" >
<svg>
<metadata>
Created by FontForge 20090914 at Tue Jun 28 21:19:32 2016
 By www-data
Font data copyright Google 2011
</metadata>
<defs>
<font id="Roboto-Condensed" horiz-adv-x="1008" >
  <font-face 
    font-family="Roboto Cn"
    font-weight="400"
    font-stretch="condensed"
    units-per-em="2048"
    panose-1="0 0 0 0 0 0 0 0 0 0"
    ascent="1536"
    descent="-512"
    x-height="1082"
    cap-height="1456"
    bbox="-906.998 -554.996 2100 2151"
    underline-thickness="100"
    underline-position="-100"
    unicode-range="U+0009-U+FFFD"
  />
<missing-glyph horiz-adv-x="1024" 
d="M102 0v1024h820v-1024h-820zM204 102h616v820h-616v-820z" />
    <glyph glyph-name="fi" unicode="fi" horiz-adv-x="1037" 
d="M172 0v936.999h-143v145h143v111c0 123.333 32.833 218.833 98.5 286.5s157.5 101.5 275.5 101.5c42 0 84 -5.16699 126 -15.5s88 -25.166 138 -44.499l-31 -158c-34 14.667 -68.667 26.5 -104 35.5s-74 13.5 -116 13.5c-62.667 0 -109 -18.5 -139 -55.5
s-45 -91.5 -45 -163.5v-111h188v-145h-188v-937h-203zM906 -0.000976562h-204v1082h204v-1082z" />
    <glyph glyph-name=".notdef" horiz-adv-x="1024" 
d="M102 0v1024h820v-1024h-820zM204 102h616v820h-616v-820z" />
    <glyph glyph-name="NULL" horiz-adv-x="450" 
 />
    <glyph glyph-name="NULL" horiz-adv-x="450" 
 />
    <glyph glyph-name="uni0009" unicode="&#x9;" horiz-adv-x="13" 
 />
    <glyph glyph-name="nonmarkingreturn" unicode="&#xd;" horiz-adv-x="450" 
 />
    <glyph glyph-name="space" unicode=" " horiz-adv-x="450" 
 />
    <glyph glyph-name="exclam" unicode="!" horiz-adv-x="477" 
d="M341 485h-204v971h204v-971zM342 0h-206v204h206v-204z" />
    <glyph glyph-name="quotedbl" unicode="&#x22;" horiz-adv-x="705" 
d="M313 1206l-87 -255h-97l5 246v259h179v-250zM592 1206l-86 -255h-97l5 252v253h178v-250z" />
    <glyph glyph-name="numbersign" unicode="#" horiz-adv-x="1085" 
d="M594 410h-198l-65 -410h-138l65 410h-201v130h221l59 368h-215v132h236l66 416h139l-67 -416h198l67 416h138l-66 -416h184v-132h-205l-58 -368h198v-130h-218l-65 -410h-140zM417 540h198l58 368h-198z" />
    <glyph glyph-name="dollar" unicode="$" horiz-adv-x="1045" 
d="M733 370c0 64 -16.001 116.672 -48.001 158.005s-87.333 80.333 -166 117c-124 45.333 -216.167 100.666 -276.5 165.999s-90.5 155.666 -90.5 270.999c0 109.333 29.333 198.666 88 267.999s139 110.333 241 123v212h131v-213c100 -14.667 178.167 -60.5 234.5 -137.5
s84.5 -178.833 84.5 -305.5h-203c0 86.667 -16.667 156.334 -50 209.001s-79.666 79 -138.999 79c-62 0 -108 -21.5 -138 -64.5s-45 -99.167 -45 -168.5c0 -65.333 15.333 -117.833 46 -157.5s87.667 -78.834 171 -117.501c122.667 -46 214 -101.667 274 -167
s90 -155.333 90 -270c0 -112 -30.5 -202 -91.5 -270s-144.167 -107.667 -249.5 -119v-193h-131v193c-104.667 11.333 -190.667 52.666 -258 123.999s-100 176.666 -98 315.999l3 5h196c0 -104 20.833 -178.333 62.5 -223s94.167 -67 157.5 -67
c65.333 0 115.833 21.333 151.5 64s53.5 98.667 53.5 168z" />
    <glyph glyph-name="percent" unicode="%" horiz-adv-x="1370" 
d="M98 1176c0 85.333 24.499 156.833 73.499 214.5s115.833 86.5 200.5 86.5s151.667 -28.833 201 -86.5s74 -129.167 74 -214.5v-77c0 -85.333 -24.5 -156.5 -73.5 -213.5s-115.5 -85.5 -199.5 -85.5c-85.333 0 -152.666 28.5 -201.999 85.5s-74 128.167 -74 213.5v77z
M241.999 1099c0 -50 11.3311 -92.333 33.998 -127s55.334 -52 98.001 -52c40.667 0 72.334 17.333 95.001 52s34 77 34 127v77c0 50 -11.5 92.667 -34.5 128s-55.167 53 -96.5 53c-42 0 -74.167 -17.667 -96.5 -53s-33.5 -78 -33.5 -128v-77zM731.997 357
c0 84.667 24.666 155.833 73.999 213.5s116.333 86.5 201 86.5s151.667 -28.667 201 -86s74 -128.666 74 -213.999v-78c0 -86 -24.667 -157.5 -74 -214.5s-116 -85.5 -200 -85.5c-85.333 0 -152.666 28.667 -201.999 86s-74 128.666 -74 213.999v78zM875.996 278.999
c0 -49.333 11.832 -91.667 35.499 -127s55.834 -53 96.501 -53c43.333 0 75.833 17 97.5 51s32.5 77 32.5 129v78c0 50.667 -11.333 93.334 -34 128.001s-55 52 -97 52s-74.333 -17.333 -97 -52s-34 -77.334 -34 -128.001v-78zM438.995 112.998l-105 63l612 1138l105 -63z
" />
    <glyph glyph-name="ampersand" unicode="&#x26;" horiz-adv-x="1189" 
d="M67 383c0 82 20.999 153.665 62.999 214.998s104.667 124.666 188 189.999c-45.333 64.667 -79 123.334 -101 176.001s-33 106.334 -33 161.001c0 112.667 30 199.5 90 260.5s142 91.5 246 91.5c94 0 170 -29.833 228 -89.5s87 -132.5 87 -218.5
c0 -65.333 -13.833 -121.5 -41.5 -168.5s-68.167 -92.5 -121.5 -136.5l-111 -90l296 -390l6 1c21.333 38.667 38 82.667 50 132s18 102 18 158h172c0 -88 -11.167 -168.833 -33.5 -242.5s-55.833 -139.167 -100.5 -196.5l179 -236h-239l-79 105
c-50 -41.333 -103.167 -72.666 -159.5 -93.999s-116.166 -32 -179.499 -32c-129.333 0 -232.333 37.167 -309 111.5s-115 171.833 -115 292.5zM496.999 132.998c42.667 0 84.667 7.83105 126 23.498s80 38.834 116 69.501l-323 430l-21 -17
c-48 -48 -80.333 -92.833 -97 -134.5s-25 -80.5 -25 -116.5c0 -73.333 19.667 -134.166 59 -182.499s94.333 -72.5 165 -72.5zM374.999 1127c0 -33.333 7.5 -68.3311 22.5 -104.998s37.5 -76.334 67.5 -119.001l103 80c34 26.667 57.167 54.667 69.5 84
s18.5 61.666 18.5 96.999c0 43.333 -12.333 80.333 -37 111s-58.667 46 -102 46c-44.667 0 -79.5 -18.667 -104.5 -56s-37.5 -83.333 -37.5 -138z" />
    <glyph glyph-name="quotesingle" unicode="'" horiz-adv-x="408" 
d="M304 1230l-87 -279h-110l5 266v239h192v-226z" />
    <glyph glyph-name="parenleft" unicode="(" horiz-adv-x="607" 
d="M117 590c0 252.667 44.167 472.833 132.5 660.5s184.5 311.834 288.5 372.501h6l37 -108c-76 -68 -141.667 -182.667 -197 -344s-83 -354.333 -83 -579v-20c0 -224.667 27.667 -417.334 83 -578.001s121 -277 197 -349l-37 -102h-6
c-104.667 60.667 -201 183.667 -289 369s-132 406 -132 662v16z" />
    <glyph glyph-name="parenright" unicode=")" horiz-adv-x="612" 
d="M495 574c0 -253.333 -44.8311 -473.332 -134.498 -659.999s-187.167 -310.334 -292.5 -371.001h-6l-39 102c75.333 68 141.166 183.167 197.499 345.5s84.5 356.166 84.5 581.499v20c0 222.667 -28.833 415.834 -86.5 579.501s-122.834 280.167 -195.501 349.5l39 102h6
c104.667 -60 202 -184.5 292 -373.5s135 -408.833 135 -659.5v-16z" />
    <glyph glyph-name="asterisk" unicode="*" horiz-adv-x="793" 
d="M284 690l-216 74l43 137l221 -87l-3 267h141v-273l213 89l44 -138l-220 -78l134 -213l-115 -86l-134 225l-130 -219l-117 82z" />
    <glyph glyph-name="plus" unicode="+" horiz-adv-x="1037" 
d="M614 774h350v-174h-350v-454h-199v454h-349v174h349v432h199v-432z" />
    <glyph glyph-name="comma" unicode="," horiz-adv-x="414" 
d="M318 24l-130 -295h-130l60 302v185h200v-192z" />
    <glyph glyph-name="hyphen" unicode="-" horiz-adv-x="787" 
d="M644 542h-507v155h507v-155z" />
    <glyph glyph-name="period" unicode="." horiz-adv-x="500" 
d="M343 0h-205v203h205v-203z" />
    <glyph glyph-name="slash" unicode="/" horiz-adv-x="730" 
d="M198 -125h-189l490 1581h189z" />
    <glyph glyph-name="zero" unicode="0" horiz-adv-x="1056" 
d="M956 518c0 -166.667 -38.833 -298.166 -116.5 -394.499s-181.167 -144.5 -310.5 -144.5c-130 0 -234 48.167 -312 144.5s-117 227.833 -117 394.5v419c0 165.333 38.667 296.666 116 393.999s181 146 311 146s234 -48.5 312 -145.5s117 -228.5 117 -394.5v-419z
M750 966.001c0 110 -19.499 196.666 -58.499 259.999s-93.833 95 -164.5 95s-125.334 -31.667 -164.001 -95s-58 -150 -58 -260v-476c0 -110 19.667 -197 59 -261s94.333 -96 165 -96s125.167 31.833 163.5 95.5s57.5 150.834 57.5 261.501v476z" />
    <glyph glyph-name="one" unicode="1" horiz-adv-x="1056" 
d="M673 0h-204v1284l-284 -18v151l488 60v-1477z" />
    <glyph glyph-name="two" unicode="2" horiz-adv-x="1056" 
d="M969 0l-840.999 -0.000976562v135l412 539c67.333 93.333 114.166 170 140.499 230s39.5 118 39.5 174c0 74 -16.167 133 -48.5 177s-79.833 66 -142.5 66c-70.667 0 -124.834 -27 -162.501 -81s-56.5 -122.667 -56.5 -206h-199l-3 6
c-2.66699 122 34.333 225.333 111 310s180 127 310 127c124.667 0 222 -36.167 292 -108.5s105 -169.166 105 -290.499c0 -82 -21.167 -161.5 -63.5 -238.5s-107.166 -171.167 -194.499 -282.5l-284 -403h585v-154z" />
    <glyph glyph-name="three" unicode="3" horiz-adv-x="1056" 
d="M522 824c73.333 0 127.331 22.501 161.998 67.501s52 105.5 52 181.5c0 73.333 -17.5 133 -52.5 179s-86.167 69 -153.5 69c-62 0 -113.333 -23 -154 -69s-61 -104.667 -61 -176h-198l-2 6c-3.33301 112 34.834 205.833 114.501 281.5s179.834 113.5 300.501 113.5
c126.667 0 227.167 -35 301.5 -105s111.5 -170 111.5 -300c0 -69.333 -17.667 -132.333 -53 -189s-84 -100.334 -146 -131.001c70.667 -28.667 125 -72.667 163 -132s57 -132 57 -218c0 -132 -40.5 -235.5 -121.5 -310.5s-185.167 -112.5 -312.5 -112.5
c-115.333 0 -216.5 36.167 -303.5 108.5s-128.833 171.833 -125.5 298.5l2 6h197c0 -73.333 21.5 -134.833 64.5 -184.5s98.167 -74.5 165.5 -74.5c70 0 125.667 24.5 167 73.5s62 113.5 62 193.5c0 91.333 -20 159.333 -60 204s-99 67 -177 67h-140v153h140z" />
    <glyph glyph-name="four" unicode="4" horiz-adv-x="1056" 
d="M831 497h169v-155h-169v-342h-205v342h-555l-6 114l554 1000h212v-959zM266 497h360v678l-6 2l-27 -62z" />
    <glyph glyph-name="five" unicode="5" horiz-adv-x="1056" 
d="M150 648l73.999 808.005h689v-167h-518l-40 -438c26.667 25.333 58.5 46.166 95.5 62.499s79.833 25.166 128.5 26.499c119.333 1.33301 212.833 -40.334 280.5 -125.001s101.5 -201.334 101.5 -350.001c0 -146 -35.333 -263.5 -106 -352.5s-177 -133.5 -319 -133.5
c-115.333 0 -212.5 34.167 -291.5 102.5s-116.833 167.166 -113.5 296.499l2 5l193 4c0 -81.333 19.333 -144 58 -188s89.334 -66 152.001 -66c73.333 0 128.333 28.5 165 85.5s55 138.5 55 244.5c0 96.667 -18.833 173.667 -56.5 231s-91.834 86 -162.501 86
c-63.333 0 -110.666 -12.5 -141.999 -37.5s-54 -62.167 -68 -111.5z" />
    <glyph glyph-name="six" unicode="6" horiz-adv-x="1056" 
d="M593 1477c50.667 0 99.332 -5.66699 145.999 -17s88.667 -26.666 126 -45.999l-40 -149c-34.667 18 -70 31.667 -106 41s-78 14 -126 14c-80.667 0 -146.5 -37.667 -197.5 -113s-76.5 -174.333 -76.5 -297v-114c35.333 42 78.333 75 129 99s106.334 36 167.001 36
c113.333 0 201.833 -42.5 265.5 -127.5s95.5 -198.167 95.5 -339.5c0 -145.333 -38.667 -262.5 -116 -351.5s-179 -133.5 -305 -133.5c-128 0 -233.333 50.667 -316 152s-124 239.666 -124 414.999v350c0 171.333 45.5 311 136.5 419s204.833 162 341.5 162zM547.998 782
c-54.667 0 -101.5 -13.001 -140.5 -39.001s-68.5 -61.333 -88.5 -106v-102c0 -124.667 22 -223 66 -295s100.667 -108 170 -108c67.333 0 120.333 31.167 159 93.5s58 141.833 58 238.5c0 98.667 -19.667 176.334 -59 233.001s-94.333 85 -165 85z" />
    <glyph glyph-name="seven" unicode="7" horiz-adv-x="1056" 
d="M972 1300c-152.667 -194 -258.667 -377.333 -318 -550s-89 -369.667 -89 -591v-159h-205v159c0 220 35.5 421.167 106.5 603.5s172.5 361.5 304.5 537.5h-690v156h891v-156z" />
    <glyph glyph-name="eight" unicode="8" horiz-adv-x="1056" 
d="M932 1084c0 -75.333 -19 -141.833 -57 -199.5s-89 -100.834 -153 -129.501c75.333 -30 135.833 -76.333 181.5 -139s68.5 -135 68.5 -217c0 -133.333 -40.5 -236.666 -121.5 -309.999s-184.5 -110 -310.5 -110c-132 0 -240.167 36.667 -324.5 110
s-126.5 176.666 -126.5 309.999c0 82.667 23.333 155.167 70 217.5s110 108.5 190 138.5c-68 28.667 -121.5 71.834 -160.5 129.501s-58.5 124.167 -58.5 199.5c0 126.667 37.833 223.834 113.5 291.501s174.167 101.5 295.5 101.5c116 0 210.5 -33.833 283.5 -101.5
s109.5 -164.834 109.5 -291.501zM767 404c0 80 -22 145.333 -66 196s-98 76 -162 76c-70 0 -128.167 -25.333 -174.5 -76s-69.5 -116 -69.5 -196c0 -82.667 23 -148.5 69 -197.5s104.667 -73.5 176 -73.5c65.333 0 119.5 24.667 162.5 74s64.5 115 64.5 197zM727 1080
c0 71.333 -17.832 129.333 -53.499 174s-80.5 67 -134.5 67c-60.667 0 -109.834 -21.5 -147.501 -64.5s-56.5 -101.833 -56.5 -176.5s19.167 -134.667 57.5 -180s87.5 -68 147.5 -68c54.667 0 99.5 22.667 134.5 68s52.5 105.333 52.5 180z" />
    <glyph glyph-name="nine" unicode="9" horiz-adv-x="1056" 
d="M473 133c77.333 0 140.002 32 188.002 96s72 153.667 72 269v140c-29.333 -46.667 -65.833 -82.334 -109.5 -107.001s-90.834 -37 -141.501 -37c-122.667 0 -219.334 43.667 -290.001 131s-106 205 -106 353c0 144 39.5 263.167 118.5 357.5s178.5 141.5 298.5 141.5
c130 0 235.167 -46.667 315.5 -140s120.5 -224.333 120.5 -393v-440c0 -164 -43.5 -292.5 -130.5 -385.5s-198.833 -139.5 -335.5 -139.5c-46 0 -92.833 5.33301 -140.5 16s-92.167 26.334 -133.5 47.001l33 147c38 -20 75.667 -34.333 113 -43s80 -13 128 -13zM503.002 645
c54.667 0 101.5 14.668 140.5 44.001s68.833 67.333 89.5 114v171c0 112 -20.333 197.833 -61 257.5s-96 89.5 -166 89.5c-62.667 0 -114 -32.667 -154 -98s-60 -147 -60 -245c0 -98.667 18.333 -178.834 55 -240.501s88.667 -92.5 156 -92.5z" />
    <glyph glyph-name="colon" unicode=":" horiz-adv-x="479" 
d="M343 0h-205v203h205v-203zM343 876h-205v203h205v-203z" />
    <glyph glyph-name="semicolon" unicode=";" horiz-adv-x="473" 
d="M344 876h-205v203h205v-203zM369 24l-130 -295h-130l60 302v185h200v-192z" />
    <glyph glyph-name="less" unicode="&#x3c;" horiz-adv-x="910" 
d="M278 567l-65 -14v-6l65 -14l505 -240v-192l-722 376v151l722 374v-192z" />
    <glyph glyph-name="equal" unicode="=" horiz-adv-x="1017" 
d="M875 808h-745v160h745v-160zM875 390h-745v160h745v-160z" />
    <glyph glyph-name="greater" unicode="&#x3e;" horiz-adv-x="928" 
d="M114 802v188l743 -374v-152l-743 -375v189l525 247l63 13v6l-63 15z" />
    <glyph glyph-name="question" unicode="?" horiz-adv-x="867" 
d="M300 408c0.666992 88.667 10.1689 152.334 28.502 191.001s59.166 89 122.499 151c48.667 60.667 85.667 115 111 163s38 104.667 38 170c0 73.333 -15.5 130.5 -46.5 171.5s-75.167 61.5 -132.5 61.5c-48.667 0 -89.834 -18.833 -123.501 -56.5
s-50.5 -89.834 -50.5 -156.501h-196l-2 6c-2 114.667 32 204.667 102 270s160 98 270 98c119.333 0 212.833 -35 280.5 -105s101.5 -165.333 101.5 -286c0 -86.667 -20.333 -165.5 -61 -236.5s-94.667 -140.5 -162 -208.5c-33.333 -34 -54.333 -66.5 -63 -97.5
s-13 -76.167 -13 -135.5h-204zM508.002 0h-209v198h209v-198z" />
    <glyph glyph-name="at" unicode="@" horiz-adv-x="1661" 
d="M1567 509c-6 -144 -43.1689 -268.334 -111.502 -373.001s-170.166 -157 -305.499 -157c-46.667 0 -86.667 15 -120 45s-56.333 72.333 -69 127c-28.667 -57.333 -64 -100.166 -106 -128.499s-90.333 -42.5 -145 -42.5c-80.667 0 -142.5 40 -185.5 120
s-58.833 185.333 -47.5 316c14 170 56.167 306.5 126.5 409.5s155.833 154.5 256.5 154.5c64.667 0 116.5 -8.66699 155.5 -26s82.5 -44.333 130.5 -81l-3 -3h5l-46 -577c-5.33301 -76.667 0.333984 -129.167 17.001 -157.5s38.334 -42.5 65.001 -42.5
c74 0 132.833 39 176.5 117s68.167 177.667 73.5 299c10 250.667 -32.333 446 -127 586s-241.667 210 -441 210c-185.333 0 -334.5 -75.667 -447.5 -227s-173.833 -351.333 -182.5 -600c-11.333 -246.667 33.667 -443.5 135 -590.5s246 -220.5 434 -220.5
c52 0 105.167 7 159.5 21s100.166 32.333 137.499 55l34 -107c-40 -28 -91 -49.833 -153 -65.5s-122.333 -23.5 -181 -23.5c-232.667 0 -412.334 83.167 -539.001 249.5s-184.667 393.5 -174 681.5c11.333 283.333 87.166 511.5 227.499 684.5s324.833 259.5 553.5 259.5
c230.667 0 406.834 -81.5 528.501 -244.5s177.834 -385.833 168.501 -668.5zM645.998 415.999c-7.33301 -94.667 -1.16797 -168.5 18.499 -221.5s51.5 -79.5 95.5 -79.5c38 0 72.833 10.5 104.5 31.5s59.834 59.167 84.501 114.5c0 4 0.166992 8.5 0.5 13.5
s0.833008 11.167 1.5 18.5l42 535c-16 7.33301 -32.5 13.333 -49.5 18s-34.833 7 -53.5 7c-72 0 -127.833 -36.333 -167.5 -109s-65.167 -182 -76.5 -328z" />
    <glyph glyph-name="A" unicode="A" horiz-adv-x="1127" 
d="M783 368h-435l-105 -368h-211l437 1456h197l433 -1456h-211zM394 529h344l-168 592h-6z" />
    <glyph glyph-name="B" unicode="B" horiz-adv-x="1130" 
d="M139 0v1456h403c139.333 0 248.166 -32.667 326.499 -98s117.5 -163.333 117.5 -294c0 -68 -17 -128.333 -51 -181s-81.333 -91.334 -142 -116.001c84.667 -14 149.834 -54.167 195.501 -120.5s68.5 -144.5 68.5 -234.5c0 -134 -38.5 -236.167 -115.5 -306.5
s-183.167 -105.5 -318.5 -105.5h-484zM342 679.001v-525h281c73.333 0 130 22.167 170 66.5s60 107.833 60 190.5c0 80 -19.5 144 -58.5 192s-93.833 73.333 -164.5 76h-11h-277zM342 825.001h231.001c65.333 2 116.5 23.167 153.5 63.5s55.5 97.5 55.5 171.5
c0 80 -20.333 140 -61 180s-100.334 60 -179.001 60h-200v-475z" />
    <glyph glyph-name="C" unicode="C" horiz-adv-x="1133" 
d="M1050 438l2.00293 -6.00195c2.66699 -143.333 -37.333 -254.666 -120 -333.999s-196.334 -119 -341.001 -119c-149.333 0 -268.333 47.833 -357 143.5s-133 229.834 -133 402.501v404c0 172 43.667 306.333 131 403s204.666 145 351.999 145
c148.667 0 264.667 -38.5 348 -115.5s123.666 -189.5 120.999 -337.5l-2 -6h-195c0 104 -22.667 180.5 -68 229.5s-113.333 73.5 -204 73.5c-89.333 0 -158.333 -33.5 -207 -100.5s-73 -163.167 -73 -288.5v-407c0 -126.667 25 -223.667 75 -291s120.667 -101 212 -101
c88 0 154 24.167 198 72.5s66 125.833 66 232.5h195z" />
    <glyph glyph-name="D" unicode="D" horiz-adv-x="1191" 
d="M139 0v1456h413c157.333 0 285.833 -58.333 385.5 -175s149.5 -266.667 149.5 -450v-207c0 -184 -49.833 -334 -149.5 -450s-228.167 -174 -385.5 -174h-413zM342 1300v-1146h210c100 0 180 43.833 240 131.5s90 200.5 90 338.5v209c0 136 -30 247.833 -90 335.5
s-140 131.5 -240 131.5h-210z" />
    <glyph glyph-name="E" unicode="E" horiz-adv-x="989" 
d="M836 676h-494v-522h582v-154h-785v1456h780v-156h-577v-469h494v-155z" />
    <glyph glyph-name="F" unicode="F" horiz-adv-x="988" 
d="M851 647h-509v-647h-203v1456h800v-156h-597v-498h509v-155z" />
    <glyph glyph-name="G" unicode="G" horiz-adv-x="1198" 
d="M1068 190c-34.667 -55.333 -89.833 -104.333 -165.5 -147s-173.167 -64 -292.5 -64c-152 0 -274.5 46.333 -367.5 139s-139.5 224.667 -139.5 396v432c0 168.667 45 299.334 135 392.001s209.667 139 359 139c147.333 0 261 -38 341 -114s118.667 -180 116 -312l-2 -6
h-191c0 87.333 -22.167 155.166 -66.5 203.499s-108.833 72.5 -193.5 72.5c-91.333 0 -163.166 -31.833 -215.499 -95.5s-78.5 -156.167 -78.5 -277.5v-434c0 -124 27.167 -218.5 81.5 -283.5s128.166 -97.5 221.499 -97.5c68.667 0 123.5 10.667 164.5 32
s70.833 47.333 89.5 78v339h-268v148h472v-540z" />
    <glyph glyph-name="H" unicode="H" horiz-adv-x="1254" 
d="M1115 0h-203v642h-570v-642h-203v1456h203v-659h570v659h203v-1456z" />
    <glyph glyph-name="I" unicode="I" horiz-adv-x="518" 
d="M360 0h-203v1456h203v-1456z" />
    <glyph glyph-name="J" unicode="J" horiz-adv-x="985" 
d="M645 1456h204v-1025c0 -138 -36.667 -247.833 -110 -329.5s-167.666 -122.5 -282.999 -122.5c-124 0 -222.333 36.167 -295 108.5s-107.667 177.833 -105 316.5l3 6h195c0 -94 17.833 -163.667 53.5 -209s85.167 -68 148.5 -68c55.333 0 100.666 26.833 135.999 80.5
s53 126.167 53 217.5v1025z" />
    <glyph glyph-name="K" unicode="K" horiz-adv-x="1130" 
d="M442 655h-100v-655h-203v1456h203v-638h86l406 638h246l-480 -684l517 -772h-258z" />
    <glyph glyph-name="L" unicode="L" horiz-adv-x="987" 
d="M342 154h589v-154h-792v1456h203v-1302z" />
    <glyph glyph-name="M" unicode="M" horiz-adv-x="1494" 
d="M746 268h6l349 1188h260v-1456h-202v1049l-6 1l-334 -1050h-139l-339 1066l-6 -1v-1065h-202v1456h265z" />
    <glyph glyph-name="N" unicode="N" horiz-adv-x="1255" 
d="M1116 0h-204l-564 1074l-6 -2v-1072h-203v1456h203l564 -1071l6 1v1070h204v-1456z" />
    <glyph glyph-name="O" unicode="O" horiz-adv-x="1218" 
d="M1119 527c0 -172.667 -46.668 -307.167 -140.001 -403.5s-218.333 -144.5 -375 -144.5c-154.667 0 -277.667 48.167 -369 144.5s-137 230.833 -137 403.5v400c0 172 45.667 306.667 137 404s214 146 368 146c156.667 0 281.834 -48.5 375.501 -145.5
s140.5 -231.833 140.5 -404.5v-400zM916.999 930c0 126.667 -27.168 222.833 -81.501 288.5s-131.833 98.5 -232.5 98.5c-97.333 0 -172.166 -32.833 -224.499 -98.5s-78.5 -161.834 -78.5 -288.501v-403c0 -128 26.333 -225 79 -291s127.667 -99 225 -99
c100.667 0 178 32.833 232 98.5s81 162.834 81 291.501v403z" />
    <glyph glyph-name="P" unicode="P" horiz-adv-x="1130" 
d="M342 574v-573.999h-203v1456h473c138 0 246.167 -40.5 324.5 -121.5s117.5 -187.5 117.5 -319.5c0 -132.667 -39.167 -239.334 -117.5 -320.001s-186.5 -121 -324.5 -121h-270zM342 730.001h269.998c78.667 0 138.334 26.833 179.001 80.5s61 121.167 61 202.5
c0 82 -20.167 150.333 -60.5 205s-100.166 82 -179.499 82h-270v-570z" />
    <glyph glyph-name="Q" unicode="Q" horiz-adv-x="1244" 
d="M1119 527c0 -72 -8.66895 -137.833 -26.002 -197.5s-42 -112.167 -74 -157.5l182 -201l-135 -117l-180 196c-39.333 -24 -82.666 -41.833 -129.999 -53.5s-98 -17.5 -152 -17.5c-154.667 0 -277.667 48.167 -369 144.5s-137 230.833 -137 403.5v400
c0 172 45.667 306.667 137 404s214 146 368 146c156.667 0 281.834 -48.5 375.501 -145.5s140.5 -231.833 140.5 -404.5v-400zM916.998 930c0 126.667 -27.168 222.833 -81.501 288.5s-131.833 98.5 -232.5 98.5c-97.333 0 -172.166 -32.833 -224.499 -98.5
s-78.5 -161.834 -78.5 -288.501v-403c0 -128 26.333 -225 79 -291s127.667 -99 225 -99c100.667 0 178 32.833 232 98.5s81 162.834 81 291.501v403z" />
    <glyph glyph-name="R" unicode="R" horiz-adv-x="1138" 
d="M341 627l0.00195312 -626.998h-203v1455h429c140 0 248.167 -35.667 324.5 -107s114.5 -173.666 114.5 -306.999c0 -76 -17.833 -142.5 -53.5 -199.5s-86.834 -101.167 -153.501 -132.5c74.667 -25.333 128.5 -67.333 161.5 -126s49.5 -131.334 49.5 -218.001v-127
c0 -44.667 4.33301 -86.334 13 -125.001s24 -68.667 46 -90v-23h-209c-22.667 22 -37.5 55.5 -44.5 100.5s-10.5 91.5 -10.5 139.5v123c0 81.333 -18.833 145.666 -56.5 192.999s-89.834 71 -156.501 71h-251zM341.002 782.002l216 0.000976562c84 0 146 22.167 186 66.5
s60 107.166 60 188.499c0 83.333 -19.5 148 -58.5 194s-98.167 69 -177.5 69h-226v-518z" />
    <glyph glyph-name="S" unicode="S" horiz-adv-x="1094" 
d="M803 366c0 66.667 -18.9961 121.502 -56.9961 164.502s-105 82.167 -201 117.5c-136.667 42.667 -241.667 97.667 -315 165s-110 157 -110 269c0 114.667 40.5 209.167 121.5 283.5s184.833 111.5 311.5 111.5c134.667 0 242.667 -41.333 324 -124
s120.666 -186.334 117.999 -311.001l-2 -6h-195c0 85.333 -22.667 154.333 -68 207s-105 79 -179 79c-72 0 -127.833 -22.667 -167.5 -68s-59.5 -102 -59.5 -170c0 -63.333 21 -115.666 63 -156.999s112.667 -80.333 212 -117c132.667 -43.333 233.667 -100 303 -170
s104 -160.667 104 -272c0 -118.667 -40.833 -213.167 -122.5 -283.5s-188.834 -105.5 -321.501 -105.5c-128 0 -239.333 38 -334 114s-140.334 185 -137.001 327l2 6h196c0 -98.667 26.167 -172.334 78.5 -221.001s117.166 -73 194.499 -73
c75.333 0 134.333 21.167 177 63.5s64 99.166 64 170.499z" />
    <glyph glyph-name="T" unicode="T" horiz-adv-x="1045" 
d="M1010 1300h-386v-1300h-204v1300h-383v156h973v-156z" />
    <glyph glyph-name="U" unicode="U" horiz-adv-x="1213" 
d="M1092 1456l0.00195312 -962.998c0 -161.333 -45.333 -287.333 -136 -378s-208.334 -136 -353.001 -136c-142 0 -257.5 45.5 -346.5 136.5s-133.5 216.833 -133.5 377.5v963h203v-963c0 -112.667 25.5 -200.834 76.5 -264.501s117.833 -95.5 200.5 -95.5
c85.333 0 154.166 31.667 206.499 95s78.5 151.666 78.5 264.999v963h204z" />
    <glyph glyph-name="V" unicode="V" horiz-adv-x="1127" 
d="M539 334l21 -89h6l21 88l303 1123h217l-445 -1456h-198l-444 1456h216z" />
    <glyph glyph-name="W" unicode="W" horiz-adv-x="1553" 
d="M1111 421h6l189 1035h213l-299 -1456h-187l-254 1033h-6l-255 -1033h-187l-299 1456h214l190 -1033h6l245 1033h177z" />
    <glyph glyph-name="X" unicode="X" horiz-adv-x="1127" 
d="M560 887h6l267 569h240l-386 -721l402 -735h-244l-276 582h-6l-275 -582h-241l396 735l-386 721h238z" />
    <glyph glyph-name="Y" unicode="Y" horiz-adv-x="1127" 
d="M559 746h6l304 710h228l-437 -932v-524h-203v539l-429 917h226z" />
    <glyph glyph-name="Z" unicode="Z" horiz-adv-x="1005" 
d="M295 154h635v-154h-852v125l613 1176h-607v155h825v-121z" />
    <glyph glyph-name="bracketleft" unicode="[" horiz-adv-x="507" 
d="M486 1519h-152v-1686h152v-152h-358v1991h358v-153z" />
    <glyph glyph-name="backslash" unicode="\" horiz-adv-x="745" 
d="M25 1456h197l523 -1581h-198z" />
    <glyph glyph-name="bracketright" unicode="]" horiz-adv-x="507" 
d="M15 1672h359v-1991h-359v152h153v1686h-153v153z" />
    <glyph glyph-name="asciicircum" unicode="^" horiz-adv-x="767" 
d="M225 729h-172l257 727h146l256 -727h-171l-146 444l-11 52h-6l-11 -52z" />
    <glyph glyph-name="underscore" unicode="_" horiz-adv-x="802" 
d="M792 -152h-784v152h784v-152z" />
    <glyph glyph-name="grave" unicode="`" horiz-adv-x="596" 
d="M479 1252h-177l-232 261l2 5h235z" />
    <glyph glyph-name="a" unicode="a" horiz-adv-x="967" 
d="M679 0c-8.66699 32.667 -15.498 61.834 -20.498 87.501s-8.16699 51.167 -9.5 76.5c-28.667 -53.333 -66.5 -97.5 -113.5 -132.5s-100.5 -52.5 -160.5 -52.5c-96.667 0 -170.834 28.667 -222.501 86s-77.5 135.666 -77.5 234.999c0 102 35.833 182.333 107.5 241
s171.5 88 299.5 88h166v111c0 66 -14.667 117.5 -44 154.5s-71.333 55.5 -126 55.5c-49.333 0 -88.5 -16 -117.5 -48s-43.5 -73 -43.5 -123l-194 -1l-2 6c-4 84 28.667 158 98 222s160 96 272 96c107.333 0 194.333 -31.5 261 -94.5s100 -152.833 100 -269.5v-502
c0 -41.333 2.66699 -81.5 8 -120.5s13.666 -77.5 24.999 -115.5h-206zM417.002 135c55.333 0 104.333 17.167 147 51.5s70.667 75.833 84 124.5v192h-169c-62.667 0 -111.667 -19.833 -147 -59.5s-53 -87.5 -53 -143.5c0 -50 12 -90 36 -120s58 -45 102 -45z" />
    <glyph glyph-name="b" unicode="b" 
d="M930 507c0 -160 -31.499 -288 -94.499 -384s-152.167 -144 -267.5 -144c-58.667 0 -109.834 13.167 -153.501 39.5s-79.834 64.833 -108.501 115.5l-22 -134h-167v1560h204v-595c28.667 44 63.334 77.833 104.001 101.5s88 35.5 142 35.5
c116 0 205.5 -52.167 268.5 -156.5s94.5 -243.5 94.5 -417.5v-21zM726.001 528c0 125.333 -16.668 226 -50.001 302s-86.666 114 -159.999 114c-47.333 0 -87 -13.667 -119 -41s-57.333 -64.333 -76 -111v-512c18 -46 43.167 -81.5 75.5 -106.5s72.833 -37.5 121.5 -37.5
c72.667 0 125.5 33.167 158.5 99.5s49.5 156.833 49.5 271.5v21z" />
    <glyph glyph-name="c" unicode="c" horiz-adv-x="927" 
d="M493 133c50 0 91.832 19.333 125.499 58s50.5 91 50.5 157h183l2 -6c2.66699 -102 -31.666 -188 -102.999 -258s-157.333 -105 -258 -105c-133.333 0 -236.333 50.833 -309 152.5s-109 231.5 -109 389.5v38c0 157.333 36.333 287.166 109 389.499
s175.667 153.5 309 153.5c108 0 195.833 -36.5 263.5 -109.5s100.5 -167.833 98.5 -284.5l-2 -5h-184c0 72 -16.167 130.5 -48.5 175.5s-74.833 67.5 -127.5 67.5c-76 0 -130.833 -36.667 -164.5 -110s-50.5 -165.666 -50.5 -276.999v-38
c0 -113.333 16.667 -206.333 50 -279s88.333 -109 165 -109z" />
    <glyph glyph-name="d" unicode="d" 
d="M79 528c0 173.333 31.667 312.334 95 417.001s152.333 157 267 157c51.333 0 97.333 -11.5 138 -34.5s75.667 -56.167 105 -99.5v592h203v-1560h-168l-21 130c-30 -49.333 -66.667 -86.833 -110 -112.5s-93 -38.5 -149 -38.5c-114 0 -202.5 48.167 -265.5 144.5
s-94.5 224.166 -94.5 383.499v21zM281 507.001c0 -113.333 17 -203.5 51 -270.5s87 -100.5 159 -100.5c45.333 0 83.833 12 115.5 36s57.5 58 77.5 102v524c-20 44.667 -46 80.167 -78 106.5s-70 39.5 -114 39.5c-72 0 -125.167 -38.5 -159.5 -115.5
s-51.5 -177.167 -51.5 -300.5v-21z" />
    <glyph glyph-name="e" unicode="e" horiz-adv-x="933" 
d="M508 -21c-134.667 0 -240.166 49.3311 -316.499 147.998s-114.5 227 -114.5 385v47c0 158.667 38 288.834 114 390.501s175.333 152.5 298 152.5c123.333 0 217.166 -43.667 281.499 -131s96.5 -204.666 96.5 -351.999v-114h-587
c0 -110.667 19.833 -200.334 59.5 -269.001s100.5 -103 182.5 -103c56.667 0 106 8.83301 148 26.5s80.667 43.5 116 77.5l66 -126c-36 -37.333 -83.5 -68.666 -142.5 -93.999s-126.167 -38 -201.5 -38zM489.001 945.998c-58.667 0 -105.332 -27.168 -139.999 -81.501
s-56.334 -126.166 -65.001 -215.499h383v23c0 81.333 -14.5 147.333 -43.5 198s-73.833 76 -134.5 76z" />
    <glyph glyph-name="f" unicode="f" horiz-adv-x="609" 
d="M185 0v937.001h-143v145h143v139c0 114.667 27.833 203.334 83.5 266.001s133.5 94 233.5 94c20 0 40.5 -1.83301 61.5 -5.5s43.833 -8.83398 68.5 -15.501l-19 -149c-12.667 3.33301 -26 6 -40 8s-29.333 3 -46 3c-45.333 0 -79.833 -17.333 -103.5 -52
s-35.5 -84.334 -35.5 -149.001v-139h179v-145h-179v-937h-203z" />
    <glyph glyph-name="g" unicode="g" 
d="M83 528c0 173.333 31.667 312.336 95 417.003s152.666 157 267.999 157c56 0 105.5 -13.5 148.5 -40.5s79.167 -65.5 108.5 -115.5l19 136h170v-1084c0 -138.667 -37 -245.834 -111 -321.501s-178.333 -113.5 -313 -113.5c-46 0 -95.167 7 -147.5 21s-99.5 33 -141.5 57
l33 152c36.667 -20.667 76.5 -36.834 119.5 -48.501s87.833 -17.5 134.5 -17.5c76 0 132 22.5 168 67.5s54 113.167 54 204.5v107c-29.333 -42 -64.166 -73.667 -104.499 -95s-86.833 -32 -139.5 -32c-114 0 -202.667 48.167 -266 144.5s-95 224.166 -95 383.499v21z
M287 507.003c0 -114 16.668 -204.333 50.001 -271s86.333 -100 159 -100c45.333 0 83.833 11.667 115.5 35s57.167 56.333 76.5 99v532c-19.333 44 -44.833 78.667 -76.5 104s-69.834 38 -114.501 38c-72 0 -125 -38.5 -159 -115.5s-51 -177.167 -51 -300.5v-21z" />
    <glyph glyph-name="h" unicode="h" 
d="M318 937c30.667 52 68.335 92.501 113.002 121.501s94.667 43.5 150 43.5c98 0 174.667 -36 230 -108s83 -182.667 83 -332v-662h-204v664c0 99.333 -14.333 170.833 -43 214.5s-71 65.5 -127 65.5c-46.667 0 -86.834 -11.333 -120.501 -34
s-60.834 -54.334 -81.501 -95.001v-815h-204v1560h204v-623z" />
    <glyph glyph-name="i" unicode="i" horiz-adv-x="465" 
d="M334 0h-204v1082h204v-1082zM334 1366h-204v194h204v-194z" />
    <glyph glyph-name="j" unicode="j" horiz-adv-x="470" 
d="M342 1082l-0.000976562 -1156c0 -116 -26.667 -205.5 -80 -268.5s-127.333 -94.5 -222 -94.5c-20 0 -38.167 1.5 -54.5 4.5s-34.166 7.5 -53.499 13.5l12 155c10.667 -4 23 -7.33301 37 -10s27 -4 39 -4c36.667 0 65.667 16.833 87 50.5s32 84.834 32 153.501v1156h203z
M336.999 1369h-204v191h204v-191z" />
    <glyph glyph-name="k" unicode="k" horiz-adv-x="933" 
d="M397 496h-76v-496h-203v1560h203v-909h71l260 431h239l-331 -492l367 -590h-237z" />
    <glyph glyph-name="l" unicode="l" horiz-adv-x="465" 
d="M334 0h-204v1560h204v-1560z" />
    <glyph glyph-name="m" unicode="m" horiz-adv-x="1547" 
d="M303 1082l11.002 -146.999c30 53.333 68.167 94.5 114.5 123.5s100.166 43.5 161.499 43.5c60 0 112 -16.5 156 -49.5s77 -83.167 99 -150.5c28.667 62.667 66.834 111.667 114.501 147s103.834 53 168.501 53c94 0 167.833 -38.167 221.5 -114.5
s80.5 -192.5 80.5 -348.5v-639h-204v640c0 112.667 -14 191.5 -42 236.5s-69.667 67.5 -125 67.5c-46.667 0 -85.834 -17.333 -117.501 -52s-54.834 -80.334 -69.501 -137.001l2 -37.5c0.666992 -13 1 -26.167 1 -39.5v-678h-203v640c0 108.667 -14.333 186.5 -43 233.5
s-70.334 70.5 -125.001 70.5c-44 0 -81.333 -12 -112 -36s-54.667 -57 -72 -99v-809h-204v1082h187z" />
    <glyph glyph-name="n" unicode="n" 
d="M301 1082l11.998 -161c30.667 57.333 69.334 101.833 116.001 133.5s99.667 47.5 159 47.5c96 0 170.833 -35.333 224.5 -106s80.5 -180.667 80.5 -330v-666h-203v665c0 102 -14.167 174 -42.5 216s-71.166 63 -128.499 63c-46.667 0 -86.667 -12.167 -120 -36.5
s-60 -57.833 -80 -100.5v-807h-204v1082h186z" />
    <glyph glyph-name="o" unicode="o" 
d="M76 553c0 160.667 38 292.334 114 395.001s180.333 154 313 154s237.167 -51.333 313.5 -154s114.5 -234.334 114.5 -395.001v-27c0 -161.333 -38 -292.833 -114 -394.5s-180 -152.5 -312 -152.5c-134 0 -239 50.833 -315 152.5s-114 233.167 -114 394.5v27zM280 526
c0 -115.333 18.5 -209.668 55.5 -283.001s93.5 -110 169.5 -110c74 0 129.5 36.833 166.5 110.5s55.5 167.834 55.5 282.501v27c0 113.333 -18.667 207.166 -56 281.499s-93.333 111.5 -168 111.5s-130.5 -37.167 -167.5 -111.5s-55.5 -168.166 -55.5 -281.499v-27z" />
    <glyph glyph-name="p" unicode="p" 
d="M929 507c0 -160 -31.835 -288.001 -95.502 -384.001s-152.5 -144 -266.5 -144c-53.333 0 -100.5 10.5 -141.5 31.5s-75.833 51.833 -104.5 92.5v-519h-204v1498h173l19 -130c29.333 48.667 65.333 85.834 108 111.501s92.334 38.5 149.001 38.5
c114.667 0 203.834 -52.333 267.501 -157s95.5 -243.667 95.5 -417v-21zM724.998 527.999c0 122.667 -17.833 222.667 -53.5 300s-89.167 116 -160.5 116c-45.333 0 -83.666 -12.5 -114.999 -37.5s-56.333 -58.833 -75 -101.5v-545c18.667 -40.667 43.667 -72 75 -94
s70 -33 116 -33c71.333 0 124.666 34 159.999 102s53 158.667 53 272v21z" />
    <glyph glyph-name="q" unicode="q" 
d="M79 528c0 173.333 31.668 312.334 95.001 417.001s152.333 157 267 157c54.667 0 103 -12.667 145 -38s77.667 -61.333 107 -108l22 126h167v-1498h-204v514c-28.667 -39.333 -62.834 -69 -102.501 -89s-85.167 -30 -136.5 -30c-114 0 -202.5 48.167 -265.5 144.5
s-94.5 224.166 -94.5 383.499v21zM281.001 507.001c0 -114 17 -204.833 51 -272.5s87 -101.5 159 -101.5c43.333 0 80.333 10.833 111 32.5s56 52.5 76 92.5v557c-19.333 40.667 -44.5 72.667 -75.5 96s-67.833 35 -110.5 35c-72 0 -125.167 -38.833 -159.5 -116.5
s-51.5 -178.167 -51.5 -301.5v-21z" />
    <glyph glyph-name="r" unicode="r" horiz-adv-x="630" 
d="M581 913l-88.001 4.99902c-42.667 0 -78.167 -12.833 -106.5 -38.5s-50.166 -61.834 -65.499 -108.501v-771h-204v1082h187l14 -160c24 56.667 54.667 100.834 92 132.501s80.333 47.5 129 47.5c12.667 0 24.5 -1.16699 35.5 -3.5s20.833 -5.16602 29.5 -8.49902z" />
    <glyph glyph-name="s" unicode="s" horiz-adv-x="902" 
d="M630 273c0 42 -14 77.166 -42 105.499s-81.667 60.166 -161 95.499c-111.333 42 -194.666 87.667 -249.999 137s-83 112.666 -83 189.999c0 83.333 33.5 154.333 100.5 213s154.167 88 261.5 88c111.333 0 201 -32.167 269 -96.5s100.667 -142.166 98 -233.499l-2 -6
h-196c0 51.333 -15.167 95.5 -45.5 132.5s-71.5 55.5 -123.5 55.5s-92.5 -14.5 -121.5 -43.5s-43.5 -62.833 -43.5 -101.5c0 -41.333 12.5 -73.833 37.5 -97.5s78.5 -54.167 160.5 -91.5c113.333 -40 198.5 -86.333 255.5 -139s85.5 -118.667 85.5 -198
c0 -90 -34.5 -163.167 -103.5 -219.5s-159.5 -84.5 -271.5 -84.5c-121.333 0 -216.833 33.833 -286.5 101.5s-102.834 146.834 -99.501 237.501l2 6h189c2.66699 -70 22.5 -120.5 59.5 -151.5s83.167 -46.5 138.5 -46.5c54 0 96.167 13.833 126.5 41.5
s45.5 62.834 45.5 105.501z" />
    <glyph glyph-name="t" unicode="t" horiz-adv-x="614" 
d="M378 1351v-269h169v-145h-169v-644c0 -56 8.5 -95.833 25.5 -119.5s39.5 -35.5 67.5 -35.5c11.333 0 22 1 32 3s21.667 5 35 9l21 -140c-19.333 -9.33301 -40.833 -16.833 -64.5 -22.5s-48.167 -8.5 -73.5 -8.5c-78 0 -138.667 25.167 -182 75.5s-65 129.833 -65 238.5
v644h-143v145h143v269h204z" />
    <glyph glyph-name="u" unicode="u" 
d="M699 158c-29.333 -57.333 -66.668 -101.499 -112.001 -132.499s-98 -46.5 -158 -46.5c-99.333 0 -177 38.333 -233 115s-84 195.667 -84 357v631h204v-633c0 -116 13.333 -197.167 40 -243.5s67.334 -69.5 122.001 -69.5c50 0 92.5 11.667 127.5 35
s62.5 56.666 82.5 99.999v811h204v-1082h-173z" />
    <glyph glyph-name="v" unicode="v" horiz-adv-x="903" 
d="M435 325l17 -85h6l18 85l189 757h210l-330 -1082h-181l-332 1082h212z" />
    <glyph glyph-name="w" unicode="w" horiz-adv-x="1328" 
d="M934 353h6l138 729h204l-252 -1082h-168l-200 702h-6l-194 -702h-169l-253 1082h203l142 -721h6l197 721h146z" />
    <glyph glyph-name="x" unicode="x" horiz-adv-x="903" 
d="M446 687h6l174 395h234l-293 -534l303 -548h-232l-183 408h-6l-182 -408h-232l301 548l-292 534h230z" />
    <glyph glyph-name="y" unicode="y" horiz-adv-x="903" 
d="M425 373l16.001 -73.002h6l212 782h223l-387 -1250c-24.667 -74 -59 -137.333 -103 -190s-107.333 -79 -190 -79c-16.667 0 -34.667 1.83301 -54 5.5s-38.333 7.83398 -57 12.501l23 150c6.66699 -1.33301 16.5 -2.66602 29.5 -3.99902s23.167 -2 30.5 -2
c40 0 71.667 16.833 95 50.5s41.666 73.5 54.999 119.5l37 112l-341 1075h222z" />
    <glyph glyph-name="z" unicode="z" horiz-adv-x="903" 
d="M307 154h527v-154h-755v128l499 797h-488v157h721v-126z" />
    <glyph glyph-name="braceleft" unicode="{" horiz-adv-x="601" 
d="M529 -379c-110.667 36.667 -189.5 94.834 -236.5 174.501s-70.5 176.167 -70.5 289.5v212c0 74.667 -13.667 133 -41 175s-69.666 63 -126.999 63v146c57.333 0 99.666 20.5 126.999 61.5s41 99.167 41 174.5v215c0 114 23.333 210.833 70 290.5
s125.667 137.834 237 174.501l41 -114c-57.333 -24 -97.833 -66.167 -121.5 -126.5s-35.5 -135.166 -35.5 -224.499v-215c0 -70.667 -13.5 -132.834 -40.5 -186.501s-67.833 -94.5 -122.5 -122.5c54.667 -29.333 95.5 -71 122.5 -125s40.5 -116 40.5 -186v-212
c0 -88.667 12 -162.834 36 -222.501s64.333 -101.834 121 -126.501z" />
    <glyph glyph-name="bar" unicode="|" horiz-adv-x="449" 
d="M309 -270h-177v1726h177v-1726z" />
    <glyph glyph-name="braceright" unicode="}" horiz-adv-x="601" 
d="M29 -264c56.667 24.667 97.1689 66.832 121.502 126.499s36.5 133.834 36.5 222.501v212c0 72 13.833 134.833 41.5 188.5s70.167 94.167 127.5 121.5c-57.333 26.667 -99.833 66.834 -127.5 120.501s-41.5 116.834 -41.5 189.501v215
c0 88.667 -12.167 163.167 -36.5 223.5s-64.5 102.833 -120.5 127.5l39 114c110.667 -36.667 189.5 -94.834 236.5 -174.501s70.5 -176.5 70.5 -290.5v-215c0 -74.667 13.667 -132.667 41 -174s69.666 -62 126.999 -62v-146c-56.667 0 -98.834 -21 -126.501 -63
s-41.5 -100.333 -41.5 -175v-212c0 -113.333 -23.5 -209.833 -70.5 -289.5s-125.833 -137.834 -236.5 -174.501z" />
    <glyph glyph-name="asciitilde" unicode="~" horiz-adv-x="1182" 
d="M1073 745c0 -94.667 -24.832 -175.5 -74.499 -242.5s-112.167 -100.5 -187.5 -100.5c-50 0 -95.667 11.333 -137 34s-86 58.667 -134 108c-32.667 33.333 -61.334 58 -86.001 74s-50.667 24 -78 24c-34.667 0 -64 -18.667 -88 -56s-36 -84 -36 -140l-144 20
c0 94 24.5 173.667 73.5 239s111.833 98 188.5 98c48 0 93.5 -11.833 136.5 -35.5s88.167 -58.834 135.5 -105.501c30 -34.667 57.5 -59.667 82.5 -75s51.5 -23 79.5 -23c34 0 63.333 19.333 88 58s37 86.334 37 143.001z" />
    <glyph glyph-name="nonbreakingspace" unicode="&#xa0;" horiz-adv-x="450" 
 />
    <glyph glyph-name="exclamdown" unicode="&#xa1;" horiz-adv-x="476" 
d="M335 -374h-204v970h204v-970zM336 869h-206v213h206v-213z" />
    <glyph glyph-name="cent" unicode="&#xa2;" horiz-adv-x="1004" 
d="M493 133c50 0 91.833 19.332 125.5 57.999s50.5 91 50.5 157h191c0 -85.333 -25 -160.166 -75 -224.499s-113.333 -107.5 -190 -129.5v-239h-164v229c-114.667 15.333 -202.667 72.5 -264 171.5s-92 220.833 -92 365.5v38c0 143.333 30.667 264.666 92 363.999
s149.333 157.333 264 174v221h164v-229c80.667 -22 145 -67.167 193 -135.5s72 -151.833 72 -250.5h-191c0 72 -16.167 130.5 -48.5 175.5s-74.833 67.5 -127.5 67.5c-76 0 -130.833 -36.667 -164.5 -110s-50.5 -165.666 -50.5 -276.999v-38
c0 -113.333 16.667 -206.333 50 -279s88.333 -109 165 -109z" />
    <glyph glyph-name="sterling" unicode="&#xa3;" horiz-adv-x="1048" 
d="M425 618l5 -141.003c0 -62 -8.16699 -121.167 -24.5 -177.5s-39.5 -104.833 -69.5 -145.5h640v-154h-845v154h8c28.667 8.66699 50.334 46.334 65.001 113.001s22 135.334 22 206.001l-5 145h-145v154h140l-9 264c0 136.667 33.167 244.334 99.5 323.001
s155.166 118 266.499 118c118 0 209.167 -35.667 273.5 -107s95.5 -165.333 93.5 -282l-3 -6h-195c0 82 -15.833 142.333 -47.5 181s-72.167 58 -121.5 58c-50 0 -89.5 -25 -118.5 -75s-43.5 -120 -43.5 -210l9 -264h334v-154h-329z" />
    <glyph glyph-name="currency" unicode="&#xa4;" horiz-adv-x="1309" 
d="M988 113c-46.667 -42.667 -98.165 -75.499 -154.498 -98.499s-114.833 -34.5 -175.5 -34.5c-62 0 -121 11.167 -177 33.5s-107 54.833 -153 97.5l-121 -137l-117 118l131 149c-32 52 -56.5 109 -73.5 171s-25.5 127.333 -25.5 196c0 70.667 9 138 27 202
s44.333 122.667 79 176l-138 158l117 120l132 -150c44.667 38 94.167 67.5 148.5 88.5s111.166 31.5 170.499 31.5c58.667 0 115.167 -10.667 169.5 -32s104.166 -51.333 149.499 -90l134 153l117 -121l-141 -161c32.667 -52.667 58.167 -110.834 76.5 -174.501
s27.5 -130.5 27.5 -200.5c0 -67.333 -8.5 -131.833 -25.5 -193.5s-40.833 -118.5 -71.5 -170.5l134 -152l-117 -119zM275.002 608.001c0 -132 37.167 -244.167 111.5 -336.5s164.833 -138.5 271.5 -138.5c104.667 0 194.167 46.167 268.5 138.5s111.5 204.5 111.5 336.5
c0 130.667 -37.167 242 -111.5 334s-163.833 138 -268.5 138c-106.667 0 -197.167 -46 -271.5 -138s-111.5 -203.333 -111.5 -334z" />
    <glyph glyph-name="yen" unicode="&#xa5;" horiz-adv-x="1084" 
d="M537 821h6l278 635h227l-355 -730h252v-122h-307v-170h307v-120h-307v-314h-203v314h-311v120h311v170h-311v122h262l-356 730h227z" />
    <glyph glyph-name="brokenbar" unicode="&#xa6;" horiz-adv-x="445" 
d="M125 -270v784h190v-784h-190zM315 698h-190v758h190v-758z" />
    <glyph glyph-name="section" unicode="&#xa7;" horiz-adv-x="1106" 
d="M1005 444c0 -62 -14.668 -116 -44.001 -162s-70.666 -82 -123.999 -108c46 -34 80.667 -74.333 104 -121s35 -103.667 35 -171c0 -114.667 -39.167 -204.334 -117.5 -269.001s-183.5 -97 -315.5 -97c-129.333 0 -237.666 33.833 -324.999 101.5
s-129.333 174.5 -126 320.5l2 6l195 2c0 -96 24.667 -165.833 74 -209.5s109.333 -65.5 180 -65.5c71.333 0 127.333 19.5 168 58.5s61 89.167 61 150.5c0 60 -19.167 106.833 -57.5 140.5s-111.166 69.834 -218.499 108.501c-139.333 42.667 -242 94.167 -308 154.5
s-99 147.833 -99 262.5c0 61.333 14.167 115 42.5 161s69.166 82.667 122.499 110c-45.333 34 -79.166 74.333 -101.499 121s-33.5 103.667 -33.5 171c0 110.667 39.333 199.667 118 267s183.667 101 315 101c136 0 242.167 -37.167 318.5 -111.5
s113.166 -178.5 110.499 -312.5l-2 -6h-195c0 78.667 -20.5 144 -61.5 196s-97.833 78 -170.5 78c-76.667 0 -134 -19.667 -172 -59s-57 -89.666 -57 -150.999c0 -64.667 17.833 -113.834 53.5 -147.501s109.167 -69.167 220.5 -106.5
c141.333 -44 244.666 -95.5 309.999 -154.5s98 -145.167 98 -258.5zM522.999 697c-23.333 6.66699 -45.334 13.502 -66.001 20.502s-40.667 14.5 -60 22.5c-35.333 -14.667 -61.666 -38 -78.999 -70s-26 -70 -26 -114c0 -67.333 18 -118.166 54 -152.499
s110.333 -71.5 223 -111.5l58 -20l61 -21c36.667 14 65.167 37.167 85.5 69.5s30.5 70.166 30.5 113.499c0 61.333 -19.833 110.166 -59.5 146.499s-113.5 75.166 -221.5 116.499z" />
    <glyph glyph-name="dieresis" unicode="&#xa8;" horiz-adv-x="950" 
d="M797 1271h-209v185h209v-185zM361 1271h-209v185h209v-185z" />
    <glyph glyph-name="copyright" unicode="&#xa9;" horiz-adv-x="1462" 
d="M1004 596l3 -5.99902c2 -100 -23 -176.333 -75 -229s-124.333 -79 -217 -79c-95.333 0 -171 35.5 -227 106.5s-84 164.5 -84 280.5v119c0 115.333 28 208.666 84 279.999s131.667 107 227 107c92.667 0 165.167 -26.5 217.5 -79.5s77.5 -129.167 75.5 -228.5l-3 -6h-122
c0 68 -14 118 -42 150s-70 48 -126 48c-58.667 0 -103.834 -25 -135.501 -75s-47.5 -115 -47.5 -195v-120c0 -82 15.833 -147.833 47.5 -197.5s76.834 -74.5 135.501 -74.5c56 0 97.833 15.667 125.5 47s41.5 82 41.5 152h122zM191 729.001c0 -180.667 52 -333 156 -457
s230.667 -186 380 -186c147.333 0 273.166 62 377.499 186s156.5 276.333 156.5 457c0 178.667 -52.167 329.667 -156.5 453s-230.166 185 -377.499 185c-149.333 0 -276 -61.667 -380 -185s-156 -274.333 -156 -453zM88 729.001c0 210 62 387 186 531s275 216 453 216
c176.667 0 327.167 -72 451.5 -216s186.5 -321 186.5 -531c0 -210.667 -62.333 -388.334 -187 -533.001s-275 -217 -451 -217c-178 0 -329 72.333 -453 217s-186 322.334 -186 533.001z" />
    <glyph glyph-name="ordfeminine" unicode="&#xaa;" horiz-adv-x="798" 
d="M533 706c-4.66699 15.333 -8.49805 31.332 -11.498 47.999s-5.16699 34 -6.5 52c-18.667 -33.333 -44.334 -60.666 -77.001 -81.999s-71.334 -32 -116.001 -32c-68 0 -120.667 20.5 -158 61.5s-56 96.5 -56 166.5c0 72 24 127.667 72 167s118 59 210 59h123v56
c0 47.333 -9 84 -27 110s-44 39 -78 39c-40 0 -70.833 -10.5 -92.5 -31.5s-32.5 -50.5 -32.5 -88.5l-133 12l-2 6c-3.33301 65.333 19.167 119.666 67.5 162.999s112.5 65 192.5 65c76 0 136.333 -23.667 181 -71s67 -115.666 67 -204.999v-314c0 -34 1.66699 -65.667 5 -95
s9 -58 17 -86h-145zM356.002 813.999c30.667 0 61.832 11 93.499 33s52.834 46.333 63.501 73v123h-122c-44 0 -78.333 -11.5 -103 -34.5s-37 -51.167 -37 -84.5c0 -35.333 8.5 -62.5 25.5 -81.5s43.5 -28.5 79.5 -28.5z" />
    <glyph glyph-name="guillemotleft" unicode="&#xab;" horiz-adv-x="867" 
d="M261 517l214 -394h-140l-247 385v19l247 384h140zM596 517l214 -394h-140l-247 385v19l247 384h140z" />
    <glyph glyph-name="logicalnot" unicode="&#xac;" horiz-adv-x="985" 
d="M830 378h-162v271h-552v143h714v-414z" />
    <glyph glyph-name="uni00AD" unicode="&#xad;" horiz-adv-x="787" 
d="M644 542h-507v155h507v-155z" />
    <glyph glyph-name="registered" unicode="&#xae;" horiz-adv-x="1462" 
d="M87 729c0 210 62 387 186 531s274.667 216 452 216c176.667 0 327.334 -72 452.001 -216s187 -321 187 -531c0 -210.667 -62.333 -388.334 -187 -533.001s-275.334 -217 -452.001 -217c-177.333 0 -328 72.333 -452 217s-186 322.334 -186 533.001zM191 729
c0 -180.667 52 -333 156 -457s230 -186 378 -186s274.167 62 378.5 186s156.5 276.333 156.5 457c0 178.667 -52 329.667 -156 453s-230.333 185 -379 185c-148 0 -274 -61.667 -378 -185s-156 -274.333 -156 -453zM593 660l-0.000976562 -343.999h-126v850h248
c90.667 0 161.5 -21.833 212.5 -65.5s76.5 -106.834 76.5 -189.501c0 -42 -10 -78.5 -30 -109.5s-49 -56.833 -87 -77.5c39.333 -18 68 -44.833 86 -80.5s27 -78.5 27 -128.5v-56c0 -28 1 -52.833 3 -74.5s6 -39.167 12 -52.5v-16h-130
c-5.33301 14 -8.66602 34.5 -9.99902 61.5s-2 54.5 -2 82.5v54c0 50.667 -10.333 87.667 -31 111s-54.667 35 -102 35h-147zM592.999 776.001l134 0.000976562c42 0 77.667 11.667 107 35s44 55.666 44 96.999c0 52 -12.167 88.833 -36.5 110.5s-66.5 32.5 -126.5 32.5h-122
v-275z" />
    <glyph glyph-name="macron" unicode="&#xaf;" horiz-adv-x="889" 
d="M769 1324h-644v132h644v-132z" />
    <glyph glyph-name="macron" unicode="&#x2c9;" horiz-adv-x="889" 
d="M769 1324h-644v132h644v-132z" />
    <glyph glyph-name="degree" unicode="&#xb0;" horiz-adv-x="715" 
d="M124 1216c0 70.667 23 131.834 69 183.501s101.333 77.5 166 77.5c63.333 0 117.833 -25.833 163.5 -77.5s68.5 -112.834 68.5 -183.501c0 -72 -22.667 -132.833 -68 -182.5s-100 -74.5 -164 -74.5c-65.333 0 -120.833 24.833 -166.5 74.5s-68.5 110.5 -68.5 182.5z
M241 1216c0 -39.333 11.333 -72.167 34 -98.5s50.667 -39.5 84 -39.5c32.667 0 60 13 82 39s33 59 33 99s-11.167 73.5 -33.5 100.5s-49.5 40.5 -81.5 40.5c-33.333 0 -61.333 -13.5 -84 -40.5s-34 -60.5 -34 -100.5z" />
    <glyph glyph-name="plusminus" unicode="&#xb1;" horiz-adv-x="999" 
d="M599 873h314v-157h-314v-414h-182v414h-327v157h327v407h182v-407zM827 5h-718v155h718v-155z" />
    <glyph glyph-name="twosuperior" unicode="&#xb2;" horiz-adv-x="753" 
d="M627 667l-520 -0.000976562v121l265 267c37.333 40 61.833 73 73.5 99s17.5 54 17.5 84c0 35.333 -7.83301 63.833 -23.5 85.5s-39.5 32.5 -71.5 32.5c-36 0 -63.667 -11.667 -83 -35s-29 -53.666 -29 -90.999h-149l-2 6c-3.33301 66.667 19.5 123.834 68.5 171.501
s114.5 71.5 196.5 71.5c79.333 0 141 -21 185 -63s66 -101.667 66 -179c0 -52 -14.667 -98.833 -44 -140.5s-77 -94.834 -143 -159.501l-125 -144l2 -5h316v-121z" />
    <glyph glyph-name="threesuperior" unicode="&#xb3;" horiz-adv-x="756" 
d="M635 1250c0 -37.333 -10.333 -71.3311 -31 -101.998s-49 -54.667 -85 -72c40.667 -15.333 72 -38.833 94 -70.5s33 -70.834 33 -117.501c0 -73.333 -25.5 -130.5 -76.5 -171.5s-118.833 -61.5 -203.5 -61.5c-78 0 -143.167 19.667 -195.5 59s-76.833 96.333 -73.5 171
l2 6h149c0 -34.667 10.333 -62.5 31 -83.5s49.334 -31.5 86.001 -31.5c37.333 0 67.166 10.333 89.499 31s33.5 49 33.5 85c0 42.667 -10.5 74.167 -31.5 94.5s-52.167 30.5 -93.5 30.5h-103v113h103c38.667 0 67.167 10 85.5 30s27.5 48.333 27.5 85
c0 32 -9.33301 58.333 -28 79s-46.667 31 -84 31c-32 0 -57.5 -9.16699 -76.5 -27.5s-28.5 -42.5 -28.5 -72.5h-149l-2 6c-4 64.667 18.667 117 68 157s111.333 60 186 60c84 0 150.5 -19.833 199.5 -59.5s73.5 -95.834 73.5 -168.501z" />
    <glyph glyph-name="acute" unicode="&#xb4;" horiz-adv-x="620" 
d="M292 1518h233l3 -5l-242 -261h-170z" />
    <glyph glyph-name="mu" unicode="&#xb5;" horiz-adv-x="1055" 
d="M335 1082v-626c0 -123.333 15 -207.833 45 -253.5s73 -68.5 129 -68.5c52 0 94.333 12.5 127 37.5s57.667 61.5 75 109.5v801h202v-1082h-186l-6 90c-26 -36 -56.667 -63.5 -92 -82.5s-75.333 -28.5 -120 -28.5c-36 0 -68.5 5.16699 -97.5 15.5s-54.5 26.833 -76.5 49.5
v-460h-202v1498h202z" />
    <glyph glyph-name="paragraph" unicode="&#xb6;" horiz-adv-x="907" 
d="M559 0v520.001h-74c-133.333 0 -237.166 43.167 -311.499 129.5s-111.5 199.166 -111.5 338.499c0 138 37.167 250.5 111.5 337.5s178.166 130.5 311.499 130.5h277v-1456h-203z" />
    <glyph glyph-name="periodcentered" unicode="&#xb7;" horiz-adv-x="508" 
d="M351 606h-206v214h206v-214z" />
    <glyph glyph-name="cedilla" unicode="&#xb8;" horiz-adv-x="468" 
d="M278 2l-11 -58c38 -6.66699 69.5 -23.5 94.5 -50.5s37.5 -67.5 37.5 -121.5c0 -65.333 -24.5 -117.333 -73.5 -156s-118.833 -58 -209.5 -58l-5 113c36 0 65.167 8.33301 87.5 25s33.5 42 33.5 76c0 33.333 -10 56.5 -30 69.5s-54 21.833 -102 26.5l26 134h152z" />
    <glyph glyph-name="onesuperior" unicode="&#xb9;" horiz-adv-x="495" 
d="M351 665h-160v666l-111 -3v126l271 23v-812z" />
    <glyph glyph-name="ordmasculine" unicode="&#xba;" horiz-adv-x="816" 
d="M110 1142c0 98.667 26.667 179.167 80 241.5s125 93.5 215 93.5s161.833 -31.167 215.5 -93.5s80.5 -142.833 80.5 -241.5v-117c0 -99.333 -26.667 -179.833 -80 -241.5s-124.666 -92.5 -213.999 -92.5c-90.667 0 -162.834 30.833 -216.501 92.5
s-80.5 142.167 -80.5 241.5v117zM254 1025c0 -63.333 12.8311 -114.333 38.498 -153s63.834 -58 114.501 -58c48.667 0 86 19.333 112 58s39 89.667 39 153v117c0 61.333 -13.167 111.5 -39.5 150.5s-64.166 58.5 -113.499 58.5s-86.833 -19.5 -112.5 -58.5
s-38.5 -89.167 -38.5 -150.5v-117z" />
    <glyph glyph-name="guillemotright" unicode="&#xbb;" horiz-adv-x="866" 
d="M257 550l-138 304h141l160 -209h51l15 -87l3 -3l-1 -6l1 -5l-3 -4l-15 -84l-50 -1l-161 -210h-141zM603 550l-138 304h141l160 -209h51l15 -87l3 -3l-1 -6l1 -5l-3 -4l-15 -84l-50 -1l-161 -210h-141z" />
    <glyph glyph-name="onequarter" unicode="&#xbc;" horiz-adv-x="1337" 
d="M440 664h-160v666l-111 -3v126l271 23v-812zM429 121l-105 63l612 1138l105 -63zM1293 277h100v-122h-100v-155h-158v155h-357l-8 95l364 551h159v-524zM935 277h200v321l-6 1l-11 -19z" />
    <glyph glyph-name="onehalf" unicode="&#xbd;" horiz-adv-x="1400" 
d="M442 121l-105 63l612 1138l105 -63zM440 664h-160v666l-111 -3v126l271 23v-812zM1438 0l-520 -0.000976562v121l265 267c37.333 40 61.833 73 73.5 99s17.5 54 17.5 84c0 35.333 -7.83301 63.833 -23.5 85.5s-39.5 32.5 -71.5 32.5c-36 0 -63.667 -11.667 -83 -35
s-29 -53.666 -29 -90.999h-149l-2 6c-3.33301 66.667 19.5 123.834 68.5 171.501s114.5 71.5 196.5 71.5c79.333 0 141 -21 185 -63s66 -101.667 66 -179c0 -52 -14.667 -98.833 -44 -140.5s-77 -94.834 -143 -159.501l-125 -144l2 -5h316v-121z" />
    <glyph glyph-name="threequarters" unicode="&#xbe;" horiz-adv-x="1510" 
d="M612 121l-105 63l612 1138l105 -63zM1482 277h100v-122h-100v-155h-158v155h-357l-8 95l364 551h159v-524zM1124 277h200v321l-6 1l-11 -19zM651 1251c0 -37.333 -10.333 -71.3311 -31 -101.998s-49 -54.667 -85 -72c40.667 -15.333 72 -38.833 94 -70.5
s33 -70.834 33 -117.501c0 -73.333 -25.5 -130.5 -76.5 -171.5s-118.833 -61.5 -203.5 -61.5c-78 0 -143.167 19.667 -195.5 59s-76.833 96.333 -73.5 171l2 6h149c0 -34.667 10.333 -62.5 31 -83.5s49.334 -31.5 86.001 -31.5c37.333 0 67.166 10.333 89.499 31
s33.5 49 33.5 85c0 42.667 -10.5 74.167 -31.5 94.5s-52.167 30.5 -93.5 30.5h-103v113h103c38.667 0 67.167 10 85.5 30s27.5 48.333 27.5 85c0 32 -9.33301 58.333 -28 79s-46.667 31 -84 31c-32 0 -57.5 -9.16699 -76.5 -27.5s-28.5 -42.5 -28.5 -72.5h-149l-2 6
c-4 64.667 18.667 117 68 157s111.333 60 186 60c84 0 150.5 -19.833 199.5 -59.5s73.5 -95.834 73.5 -168.501z" />
    <glyph glyph-name="questiondown" unicode="&#xbf;" horiz-adv-x="889" 
d="M590 673c-1.33301 -89.333 -11.168 -153.333 -29.501 -192s-58.833 -88.667 -121.5 -150c-49.333 -61.333 -86.5 -115.833 -111.5 -163.5s-37.5 -103.5 -37.5 -167.5c0 -73.333 15.333 -130.5 46 -171.5s75 -61.5 133 -61.5c48 0 88.833 18.667 122.5 56
s50.834 89.666 51.501 156.999h196l2 -6c1.33301 -114.667 -33 -204.667 -103 -270s-159.667 -98 -269 -98c-120 0 -213.667 34.833 -281 104.5s-101 165.167 -101 286.5c0 85.333 20.167 163.333 60.5 234s94.5 140.334 162.5 209.001c32.667 33.333 53.5 65.5 62.5 96.5
s13.5 76.5 13.5 136.5h204zM381.998 1082h209v-199h-209v199z" />
    <glyph glyph-name="Agrave" unicode="&#xc0;" horiz-adv-x="1127" 
d="M783 368h-435l-105 -368h-211l437 1456h197l433 -1456h-211zM394 529h344l-168 592h-6zM661 1602h-177l-232 261l2 5h235z" />
    <glyph glyph-name="Aacute" unicode="&#xc1;" horiz-adv-x="1127" 
d="M783 368h-435l-105 -368h-211l437 1456h197l433 -1456h-211zM394 529h344l-168 592h-6zM639 1864h233l3 -5l-242 -261h-170z" />
    <glyph glyph-name="Acircumflex" unicode="&#xc2;" horiz-adv-x="1127" 
d="M783 368h-435l-105 -368h-211l437 1456h197l433 -1456h-211zM394 529h344l-168 592h-6zM853 1621v-22h-164l-126 151l-124 -151h-162v23l225 232h123z" />
    <glyph glyph-name="Atilde" unicode="&#xc3;" horiz-adv-x="1127" 
d="M783 368h-435l-105 -368h-211l437 1456h197l433 -1456h-211zM394 529h344l-168 592h-6zM870 1838c0 -61.333 -16.834 -113 -50.501 -155s-76.167 -63 -127.5 -63c-41.333 0 -85.666 16.333 -132.999 49s-85.666 49 -114.999 49c-23.333 0 -42.666 -11.167 -57.999 -33.5
s-23 -49.833 -23 -82.5l-111 28c0 60 16.833 111.667 50.5 155s76.167 65 127.5 65c33.333 0 75.666 -16.5 126.999 -49.5s91.666 -49.5 120.999 -49.5c22 0 41.167 11.333 57.5 34s24.5 50.667 24.5 84z" />
    <glyph glyph-name="Adieresis" unicode="&#xc4;" horiz-adv-x="1127" 
d="M783 368h-435l-105 -368h-211l437 1456h197l433 -1456h-211zM394 529h344l-168 592h-6zM887 1617h-209v185h209v-185zM451 1617h-209v185h209v-185z" />
    <glyph glyph-name="Aring" unicode="&#xc5;" horiz-adv-x="1127" 
d="M783 368h-435l-105 -368h-211l437 1456h197l433 -1456h-211zM394 529h344l-168 592h-6zM404 1736c0 46 15.5 84.833 46.5 116.5s68.833 47.5 113.5 47.5c43.333 0 80.166 -15.833 110.499 -47.5s45.5 -70.5 45.5 -116.5c0 -46.667 -15.167 -85 -45.5 -115
s-67.166 -45 -110.499 -45c-44.667 0 -82.5 15.167 -113.5 45.5s-46.5 68.5 -46.5 114.5zM496 1736c0 -22 6.5 -40 19.5 -54s29.167 -21 48.5 -21c18 0 33 7 45 21s18 32 18 54s-6 40.333 -18 55s-27 22 -45 22c-19.333 0 -35.5 -7.33301 -48.5 -22s-19.5 -33 -19.5 -55z
" />
    <glyph glyph-name="AE" unicode="&#xc6;" horiz-adv-x="1699" 
d="M1631 0h-764l-13 361h-425l-167 -361h-242l714 1456h844v-157h-555l17 -467h468v-155h-462l19 -522h566v-155zM508 531h340l-25 667l-5 1z" />
    <glyph glyph-name="Ccedilla" unicode="&#xc7;" horiz-adv-x="1133" 
d="M1050 438l2.00293 -6.00195c2.66699 -143.333 -37.333 -254.666 -120 -333.999s-196.334 -119 -341.001 -119c-149.333 0 -268.333 47.833 -357 143.5s-133 229.834 -133 402.501v404c0 172 43.667 306.333 131 403s204.666 145 351.999 145
c148.667 0 264.667 -38.5 348 -115.5s123.666 -189.5 120.999 -337.5l-2 -6h-195c0 104 -22.667 180.5 -68 229.5s-113.333 73.5 -204 73.5c-89.333 0 -158.333 -33.5 -207 -100.5s-73 -163.167 -73 -288.5v-407c0 -126.667 25 -223.667 75 -291s120.667 -101 212 -101
c88 0 154 24.167 198 72.5s66 125.833 66 232.5h195zM663.003 -4.00195l-11 -58c38 -6.66699 69.5 -23.5 94.5 -50.5s37.5 -67.5 37.5 -121.5c0 -65.333 -24.5 -117.333 -73.5 -156s-118.833 -58 -209.5 -58l-5 113c36 0 65.167 8.33301 87.5 25s33.5 42 33.5 76
c0 33.333 -10 56.5 -30 69.5s-54 21.833 -102 26.5l26 134h152z" />
    <glyph glyph-name="Egrave" unicode="&#xc8;" horiz-adv-x="989" 
d="M836 676h-494v-522h582v-154h-785v1456h780v-156h-577v-469h494v-155zM629 1602h-177l-232 261l2 5h235z" />
    <glyph glyph-name="Eacute" unicode="&#xc9;" horiz-adv-x="989" 
d="M836 676h-494v-522h582v-154h-785v1456h780v-156h-577v-469h494v-155zM607 1864h233l3 -5l-242 -261h-170z" />
    <glyph glyph-name="Ecircumflex" unicode="&#xca;" horiz-adv-x="989" 
d="M836 676h-494v-522h582v-154h-785v1456h780v-156h-577v-469h494v-155zM821 1621v-22h-164l-126 151l-124 -151h-162v23l225 232h123z" />
    <glyph glyph-name="Edieresis" unicode="&#xcb;" horiz-adv-x="989" 
d="M836 676h-494v-522h582v-154h-785v1456h780v-156h-577v-469h494v-155zM855 1617h-209v185h209v-185zM419 1617h-209v185h209v-185z" />
    <glyph glyph-name="Igrave" unicode="&#xcc;" horiz-adv-x="518" 
d="M360 0h-203v1456h203v-1456zM357 1602h-177l-232 261l2 5h235z" />
    <glyph glyph-name="Iacute" unicode="&#xcd;" horiz-adv-x="518" 
d="M360 0h-203v1456h203v-1456zM334 1864h233l3 -5l-242 -261h-170z" />
    <glyph glyph-name="Icircumflex" unicode="&#xce;" horiz-adv-x="518" 
d="M360 0h-203v1456h203v-1456zM549 1621v-22h-164l-126 151l-124 -151h-162v23l225 232h123z" />
    <glyph glyph-name="Idieresis" unicode="&#xcf;" horiz-adv-x="518" 
d="M360 0h-203v1456h203v-1456zM583 1617h-209v185h209v-185zM147 1617h-209v185h209v-185z" />
    <glyph glyph-name="Eth" unicode="&#xd0;" horiz-adv-x="1191" 
d="M139 0v670h-131v141h131v645h413c157.333 0 285.833 -58.333 385.5 -175s149.5 -266.667 149.5 -450v-207c0 -184 -49.833 -334 -149.5 -450s-228.167 -174 -385.5 -174h-413zM571 670h-229v-516h210c100 0 180 43.833 240 131.5s90 200.5 90 338.5v209
c0 136 -30 247.833 -90 335.5s-140 131.5 -240 131.5h-210v-489h229v-141z" />
    <glyph glyph-name="Ntilde" unicode="&#xd1;" horiz-adv-x="1255" 
d="M1116 0h-204l-564 1074l-6 -2v-1072h-203v1456h203l564 -1071l6 1v1070h204v-1456zM932 1838c0 -61.333 -16.834 -113 -50.501 -155s-76.167 -63 -127.5 -63c-41.333 0 -85.666 16.333 -132.999 49s-85.666 49 -114.999 49c-23.333 0 -42.666 -11.167 -57.999 -33.5
s-23 -49.833 -23 -82.5l-111 28c0 60 16.833 111.667 50.5 155s76.167 65 127.5 65c33.333 0 75.666 -16.5 126.999 -49.5s91.666 -49.5 120.999 -49.5c22 0 41.167 11.333 57.5 34s24.5 50.667 24.5 84z" />
    <glyph glyph-name="Ograve" unicode="&#xd2;" horiz-adv-x="1218" 
d="M1119 527c0 -172.667 -46.668 -307.167 -140.001 -403.5s-218.333 -144.5 -375 -144.5c-154.667 0 -277.667 48.167 -369 144.5s-137 230.833 -137 403.5v400c0 172 45.667 306.667 137 404s214 146 368 146c156.667 0 281.834 -48.5 375.501 -145.5
s140.5 -231.833 140.5 -404.5v-400zM916.999 930c0 126.667 -27.168 222.833 -81.501 288.5s-131.833 98.5 -232.5 98.5c-97.333 0 -172.166 -32.833 -224.499 -98.5s-78.5 -161.834 -78.5 -288.501v-403c0 -128 26.333 -225 79 -291s127.667 -99 225 -99
c100.667 0 178 32.833 232 98.5s81 162.834 81 291.501v403zM704.998 1623h-177l-232 261l2 5h235z" />
    <glyph glyph-name="Oacute" unicode="&#xd3;" horiz-adv-x="1218" 
d="M1119 527c0 -172.667 -46.668 -307.167 -140.001 -403.5s-218.333 -144.5 -375 -144.5c-154.667 0 -277.667 48.167 -369 144.5s-137 230.833 -137 403.5v400c0 172 45.667 306.667 137 404s214 146 368 146c156.667 0 281.834 -48.5 375.501 -145.5
s140.5 -231.833 140.5 -404.5v-400zM916.999 930c0 126.667 -27.168 222.833 -81.501 288.5s-131.833 98.5 -232.5 98.5c-97.333 0 -172.166 -32.833 -224.499 -98.5s-78.5 -161.834 -78.5 -288.501v-403c0 -128 26.333 -225 79 -291s127.667 -99 225 -99
c100.667 0 178 32.833 232 98.5s81 162.834 81 291.501v403zM682.998 1885h233l3 -5l-242 -261h-170z" />
    <glyph glyph-name="Ocircumflex" unicode="&#xd4;" horiz-adv-x="1218" 
d="M1119 527c0 -172.667 -46.668 -307.167 -140.001 -403.5s-218.333 -144.5 -375 -144.5c-154.667 0 -277.667 48.167 -369 144.5s-137 230.833 -137 403.5v400c0 172 45.667 306.667 137 404s214 146 368 146c156.667 0 281.834 -48.5 375.501 -145.5
s140.5 -231.833 140.5 -404.5v-400zM916.999 930c0 126.667 -27.168 222.833 -81.501 288.5s-131.833 98.5 -232.5 98.5c-97.333 0 -172.166 -32.833 -224.499 -98.5s-78.5 -161.834 -78.5 -288.501v-403c0 -128 26.333 -225 79 -291s127.667 -99 225 -99
c100.667 0 178 32.833 232 98.5s81 162.834 81 291.501v403zM896.998 1642v-22h-164l-126 151l-124 -151h-162v23l225 232h123z" />
    <glyph glyph-name="Otilde" unicode="&#xd5;" horiz-adv-x="1218" 
d="M1119 527c0 -172.667 -46.668 -307.167 -140.001 -403.5s-218.333 -144.5 -375 -144.5c-154.667 0 -277.667 48.167 -369 144.5s-137 230.833 -137 403.5v400c0 172 45.667 306.667 137 404s214 146 368 146c156.667 0 281.834 -48.5 375.501 -145.5
s140.5 -231.833 140.5 -404.5v-400zM916.999 930c0 126.667 -27.168 222.833 -81.501 288.5s-131.833 98.5 -232.5 98.5c-97.333 0 -172.166 -32.833 -224.499 -98.5s-78.5 -161.834 -78.5 -288.501v-403c0 -128 26.333 -225 79 -291s127.667 -99 225 -99
c100.667 0 178 32.833 232 98.5s81 162.834 81 291.501v403zM913.998 1859c0 -61.333 -16.834 -113 -50.501 -155s-76.167 -63 -127.5 -63c-41.333 0 -85.666 16.333 -132.999 49s-85.666 49 -114.999 49c-23.333 0 -42.666 -11.167 -57.999 -33.5s-23 -49.833 -23 -82.5
l-111 28c0 60 16.833 111.667 50.5 155s76.167 65 127.5 65c33.333 0 75.666 -16.5 126.999 -49.5s91.666 -49.5 120.999 -49.5c22 0 41.167 11.333 57.5 34s24.5 50.667 24.5 84z" />
    <glyph glyph-name="Odieresis" unicode="&#xd6;" horiz-adv-x="1218" 
d="M1119 527c0 -172.667 -46.668 -307.167 -140.001 -403.5s-218.333 -144.5 -375 -144.5c-154.667 0 -277.667 48.167 -369 144.5s-137 230.833 -137 403.5v400c0 172 45.667 306.667 137 404s214 146 368 146c156.667 0 281.834 -48.5 375.501 -145.5
s140.5 -231.833 140.5 -404.5v-400zM916.999 930c0 126.667 -27.168 222.833 -81.501 288.5s-131.833 98.5 -232.5 98.5c-97.333 0 -172.166 -32.833 -224.499 -98.5s-78.5 -161.834 -78.5 -288.501v-403c0 -128 26.333 -225 79 -291s127.667 -99 225 -99
c100.667 0 178 32.833 232 98.5s81 162.834 81 291.501v403zM930.998 1638h-209v185h209v-185zM494.998 1638h-209v185h209v-185z" />
    <glyph glyph-name="multiply" unicode="&#xd7;" horiz-adv-x="991" 
d="M76 344l299 339l-296 336l125 119l286 -325l286 325l125 -119l-296 -336l299 -339l-124 -119l-290 328l-289 -328z" />
    <glyph glyph-name="Oslash" unicode="&#xd8;" horiz-adv-x="1219" 
d="M1119 527c0 -172.667 -46.668 -307.166 -140.001 -403.499s-218.333 -144.5 -375 -144.5c-50 0 -97 5.16699 -141 15.5s-84.333 25.833 -121 46.5l-67 -131h-121l99 195c-50.667 46.667 -89.167 105.667 -115.5 177s-39.5 153 -39.5 245v400
c0 172 45.667 306.667 137 404s214 146 368 146c58.667 0 113.834 -7.5 165.501 -22.5s98.5 -36.5 140.5 -64.5l63 122h121l-100 -196c40 -47.333 71 -103.833 93 -169.5s33 -138.834 33 -219.501v-400zM299.999 527.001c0 -49.333 3.66406 -93.499 10.9971 -132.499
s18.333 -71.833 33 -98.5l6 -1l477 933c-27.333 29.333 -59.666 51.5 -96.999 66.5s-79.666 22.5 -126.999 22.5c-97.333 0 -172.166 -32.833 -224.499 -98.5s-78.5 -161.834 -78.5 -288.501v-403zM916.996 930.002c0 36 -2.33301 68.8311 -7 98.498s-11 55.167 -19 76.5
l-5 1l-466 -912c24 -19.333 51.333 -33.666 82 -42.999s64.667 -14 102 -14c100.667 0 178 32.833 232 98.5s81 162.834 81 291.501v403z" />
    <glyph glyph-name="Ugrave" unicode="&#xd9;" horiz-adv-x="1213" 
d="M1092 1456l0.00195312 -962.998c0 -161.333 -45.333 -287.333 -136 -378s-208.334 -136 -353.001 -136c-142 0 -257.5 45.5 -346.5 136.5s-133.5 216.833 -133.5 377.5v963h203v-963c0 -112.667 25.5 -200.834 76.5 -264.501s117.833 -95.5 200.5 -95.5
c85.333 0 154.166 31.667 206.499 95s78.5 151.666 78.5 264.999v963h204zM707.002 1602h-177l-232 261l2 5h235z" />
    <glyph glyph-name="Uacute" unicode="&#xda;" horiz-adv-x="1213" 
d="M1092 1456l0.00195312 -962.998c0 -161.333 -45.333 -287.333 -136 -378s-208.334 -136 -353.001 -136c-142 0 -257.5 45.5 -346.5 136.5s-133.5 216.833 -133.5 377.5v963h203v-963c0 -112.667 25.5 -200.834 76.5 -264.501s117.833 -95.5 200.5 -95.5
c85.333 0 154.166 31.667 206.499 95s78.5 151.666 78.5 264.999v963h204zM685.002 1864h233l3 -5l-242 -261h-170z" />
    <glyph glyph-name="Ucircumflex" unicode="&#xdb;" horiz-adv-x="1213" 
d="M1092 1456l0.00195312 -962.998c0 -161.333 -45.333 -287.333 -136 -378s-208.334 -136 -353.001 -136c-142 0 -257.5 45.5 -346.5 136.5s-133.5 216.833 -133.5 377.5v963h203v-963c0 -112.667 25.5 -200.834 76.5 -264.501s117.833 -95.5 200.5 -95.5
c85.333 0 154.166 31.667 206.499 95s78.5 151.666 78.5 264.999v963h204zM899.002 1621v-22h-164l-126 151l-124 -151h-162v23l225 232h123z" />
    <glyph glyph-name="Udieresis" unicode="&#xdc;" horiz-adv-x="1213" 
d="M1092 1456l0.00195312 -962.998c0 -161.333 -45.333 -287.333 -136 -378s-208.334 -136 -353.001 -136c-142 0 -257.5 45.5 -346.5 136.5s-133.5 216.833 -133.5 377.5v963h203v-963c0 -112.667 25.5 -200.834 76.5 -264.501s117.833 -95.5 200.5 -95.5
c85.333 0 154.166 31.667 206.499 95s78.5 151.666 78.5 264.999v963h204zM933.002 1617h-209v185h209v-185zM497.002 1617h-209v185h209v-185z" />
    <glyph glyph-name="Yacute" unicode="&#xdd;" horiz-adv-x="1127" 
d="M559 746h6l304 710h228l-437 -932v-524h-203v539l-429 917h226zM640 1860h233l3 -5l-242 -261h-170z" />
    <glyph glyph-name="Thorn" unicode="&#xde;" horiz-adv-x="1070" 
d="M338 1456v-290h217c138.667 0 246.667 -39.667 324 -119s116 -182.333 116 -309c0 -128 -38.667 -231.5 -116 -310.5s-185.333 -118.5 -324 -118.5h-217v-309h-203v1456h203zM338 1011v-547h217c78.667 0 137.667 26.333 177 79s59 117 59 193s-19.667 140.833 -59 194.5
s-98.333 80.5 -177 80.5h-217z" />
    <glyph glyph-name="germandbls" unicode="&#xdf;" horiz-adv-x="1093" 
d="M327 0l-202 0.00390625v1088c0 143.333 34.833 255 104.5 335s162.5 120 278.5 120c96 0 175.333 -28.833 238 -86.5s94 -139.834 94 -246.501c0 -74 -16.667 -145.833 -50 -215.5s-50 -127.5 -50 -173.5c0 -50.667 46.5 -123.334 139.5 -218.001s139.5 -189 139.5 -283
c0 -113.333 -31.667 -198.5 -95 -255.5s-151 -85.5 -263 -85.5c-46.667 0 -94 6.66699 -142 20s-83.333 30 -106 50l40 154c24 -18.667 53.833 -35.167 89.5 -49.5s71.834 -21.5 108.501 -21.5c53.333 0 94.166 16.5 122.499 49.5s42.5 76.833 42.5 131.5
c0 57.333 -46.5 132.666 -139.5 225.999s-139.5 186.666 -139.5 279.999c0 58.667 17.5 123.5 52.5 194.5s52.5 132.5 52.5 184.5c0 56.667 -14 102.667 -42 138s-60.333 53 -97 53c-52.667 0 -95.167 -26.5 -127.5 -79.5s-48.5 -127.5 -48.5 -223.5v-1086z" />
    <glyph glyph-name="agrave" unicode="&#xe0;" horiz-adv-x="967" 
d="M679 0c-8.66699 32.667 -15.498 61.834 -20.498 87.501s-8.16699 51.167 -9.5 76.5c-28.667 -53.333 -66.5 -97.5 -113.5 -132.5s-100.5 -52.5 -160.5 -52.5c-96.667 0 -170.834 28.667 -222.501 86s-77.5 135.666 -77.5 234.999c0 102 35.833 182.333 107.5 241
s171.5 88 299.5 88h166v111c0 66 -14.667 117.5 -44 154.5s-71.333 55.5 -126 55.5c-49.333 0 -88.5 -16 -117.5 -48s-43.5 -73 -43.5 -123l-194 -1l-2 6c-4 84 28.667 158 98 222s160 96 272 96c107.333 0 194.333 -31.5 261 -94.5s100 -152.833 100 -269.5v-502
c0 -41.333 2.66699 -81.5 8 -120.5s13.666 -77.5 24.999 -115.5h-206zM417.002 135c55.333 0 104.333 17.167 147 51.5s70.667 75.833 84 124.5v192h-169c-62.667 0 -111.667 -19.833 -147 -59.5s-53 -87.5 -53 -143.5c0 -50 12 -90 36 -120s58 -45 102 -45zM577.002 1280
h-177l-232 261l2 5h235z" />
    <glyph glyph-name="aacute" unicode="&#xe1;" horiz-adv-x="967" 
d="M679 0c-8.66699 32.667 -15.498 61.834 -20.498 87.501s-8.16699 51.167 -9.5 76.5c-28.667 -53.333 -66.5 -97.5 -113.5 -132.5s-100.5 -52.5 -160.5 -52.5c-96.667 0 -170.834 28.667 -222.501 86s-77.5 135.666 -77.5 234.999c0 102 35.833 182.333 107.5 241
s171.5 88 299.5 88h166v111c0 66 -14.667 117.5 -44 154.5s-71.333 55.5 -126 55.5c-49.333 0 -88.5 -16 -117.5 -48s-43.5 -73 -43.5 -123l-194 -1l-2 6c-4 84 28.667 158 98 222s160 96 272 96c107.333 0 194.333 -31.5 261 -94.5s100 -152.833 100 -269.5v-502
c0 -41.333 2.66699 -81.5 8 -120.5s13.666 -77.5 24.999 -115.5h-206zM417.002 135c55.333 0 104.333 17.167 147 51.5s70.667 75.833 84 124.5v192h-169c-62.667 0 -111.667 -19.833 -147 -59.5s-53 -87.5 -53 -143.5c0 -50 12 -90 36 -120s58 -45 102 -45zM555.002 1542
h233l3 -5l-242 -261h-170z" />
    <glyph glyph-name="acircumflex" unicode="&#xe2;" horiz-adv-x="967" 
d="M679 0c-8.66699 32.667 -15.498 61.834 -20.498 87.501s-8.16699 51.167 -9.5 76.5c-28.667 -53.333 -66.5 -97.5 -113.5 -132.5s-100.5 -52.5 -160.5 -52.5c-96.667 0 -170.834 28.667 -222.501 86s-77.5 135.666 -77.5 234.999c0 102 35.833 182.333 107.5 241
s171.5 88 299.5 88h166v111c0 66 -14.667 117.5 -44 154.5s-71.333 55.5 -126 55.5c-49.333 0 -88.5 -16 -117.5 -48s-43.5 -73 -43.5 -123l-194 -1l-2 6c-4 84 28.667 158 98 222s160 96 272 96c107.333 0 194.333 -31.5 261 -94.5s100 -152.833 100 -269.5v-502
c0 -41.333 2.66699 -81.5 8 -120.5s13.666 -77.5 24.999 -115.5h-206zM417.002 135c55.333 0 104.333 17.167 147 51.5s70.667 75.833 84 124.5v192h-169c-62.667 0 -111.667 -19.833 -147 -59.5s-53 -87.5 -53 -143.5c0 -50 12 -90 36 -120s58 -45 102 -45zM769.002 1299
v-22h-164l-126 151l-124 -151h-162v23l225 232h123z" />
    <glyph glyph-name="atilde" unicode="&#xe3;" horiz-adv-x="967" 
d="M679 0c-8.66699 32.667 -15.498 61.834 -20.498 87.501s-8.16699 51.167 -9.5 76.5c-28.667 -53.333 -66.5 -97.5 -113.5 -132.5s-100.5 -52.5 -160.5 -52.5c-96.667 0 -170.834 28.667 -222.501 86s-77.5 135.666 -77.5 234.999c0 102 35.833 182.333 107.5 241
s171.5 88 299.5 88h166v111c0 66 -14.667 117.5 -44 154.5s-71.333 55.5 -126 55.5c-49.333 0 -88.5 -16 -117.5 -48s-43.5 -73 -43.5 -123l-194 -1l-2 6c-4 84 28.667 158 98 222s160 96 272 96c107.333 0 194.333 -31.5 261 -94.5s100 -152.833 100 -269.5v-502
c0 -41.333 2.66699 -81.5 8 -120.5s13.666 -77.5 24.999 -115.5h-206zM417.002 135c55.333 0 104.333 17.167 147 51.5s70.667 75.833 84 124.5v192h-169c-62.667 0 -111.667 -19.833 -147 -59.5s-53 -87.5 -53 -143.5c0 -50 12 -90 36 -120s58 -45 102 -45zM786.002 1516
c0 -61.333 -16.834 -113 -50.501 -155s-76.167 -63 -127.5 -63c-41.333 0 -85.666 16.333 -132.999 49s-85.666 49 -114.999 49c-23.333 0 -42.666 -11.167 -57.999 -33.5s-23 -49.833 -23 -82.5l-111 28c0 60 16.833 111.667 50.5 155s76.167 65 127.5 65
c33.333 0 75.666 -16.5 126.999 -49.5s91.666 -49.5 120.999 -49.5c22 0 41.167 11.333 57.5 34s24.5 50.667 24.5 84z" />
    <glyph glyph-name="adieresis" unicode="&#xe4;" horiz-adv-x="967" 
d="M679 0c-8.66699 32.667 -15.498 61.834 -20.498 87.501s-8.16699 51.167 -9.5 76.5c-28.667 -53.333 -66.5 -97.5 -113.5 -132.5s-100.5 -52.5 -160.5 -52.5c-96.667 0 -170.834 28.667 -222.501 86s-77.5 135.666 -77.5 234.999c0 102 35.833 182.333 107.5 241
s171.5 88 299.5 88h166v111c0 66 -14.667 117.5 -44 154.5s-71.333 55.5 -126 55.5c-49.333 0 -88.5 -16 -117.5 -48s-43.5 -73 -43.5 -123l-194 -1l-2 6c-4 84 28.667 158 98 222s160 96 272 96c107.333 0 194.333 -31.5 261 -94.5s100 -152.833 100 -269.5v-502
c0 -41.333 2.66699 -81.5 8 -120.5s13.666 -77.5 24.999 -115.5h-206zM417.002 135c55.333 0 104.333 17.167 147 51.5s70.667 75.833 84 124.5v192h-169c-62.667 0 -111.667 -19.833 -147 -59.5s-53 -87.5 -53 -143.5c0 -50 12 -90 36 -120s58 -45 102 -45zM803.002 1295
h-209v185h209v-185zM367.002 1295h-209v185h209v-185z" />
    <glyph glyph-name="aring" unicode="&#xe5;" horiz-adv-x="967" 
d="M679 0c-8.66699 32.667 -15.498 61.834 -20.498 87.501s-8.16699 51.167 -9.5 76.5c-28.667 -53.333 -66.5 -97.5 -113.5 -132.5s-100.5 -52.5 -160.5 -52.5c-96.667 0 -170.834 28.667 -222.501 86s-77.5 135.666 -77.5 234.999c0 102 35.833 182.333 107.5 241
s171.5 88 299.5 88h166v111c0 66 -14.667 117.5 -44 154.5s-71.333 55.5 -126 55.5c-49.333 0 -88.5 -16 -117.5 -48s-43.5 -73 -43.5 -123l-194 -1l-2 6c-4 84 28.667 158 98 222s160 96 272 96c107.333 0 194.333 -31.5 261 -94.5s100 -152.833 100 -269.5v-502
c0 -41.333 2.66699 -81.5 8 -120.5s13.666 -77.5 24.999 -115.5h-206zM417.002 135c55.333 0 104.333 17.167 147 51.5s70.667 75.833 84 124.5v192h-169c-62.667 0 -111.667 -19.833 -147 -59.5s-53 -87.5 -53 -143.5c0 -50 12 -90 36 -120s58 -45 102 -45zM320.002 1414
c0 46 15.5 84.833 46.5 116.5s68.833 47.5 113.5 47.5c43.333 0 80.166 -15.833 110.499 -47.5s45.5 -70.5 45.5 -116.5c0 -46.667 -15.167 -85 -45.5 -115s-67.166 -45 -110.499 -45c-44.667 0 -82.5 15.167 -113.5 45.5s-46.5 68.5 -46.5 114.5zM412.002 1414
c0 -22 6.5 -40 19.5 -54s29.167 -21 48.5 -21c18 0 33 7 45 21s18 32 18 54s-6 40.333 -18 55s-27 22 -45 22c-19.333 0 -35.5 -7.33301 -48.5 -22s-19.5 -33 -19.5 -55z" />
    <glyph glyph-name="ae" unicode="&#xe6;" horiz-adv-x="1545" 
d="M1112 -21c-76 0 -143.332 15.168 -201.999 45.501s-106.667 73.5 -144 129.5c-34 -50 -81.333 -91.667 -142 -125s-133.334 -50 -218.001 -50c-104 0 -184.167 29 -240.5 87s-84.5 137.333 -84.5 238c0 102 34.667 181.333 104 238s170 85 302 85h179v89
c0 72.667 -13.5 129.167 -40.5 169.5s-65.833 60.5 -116.5 60.5c-54.667 0 -97.667 -18.167 -129 -54.5s-47 -81.166 -47 -134.499l-195 16l-2 6c-3.33301 92.667 29.5 169.667 98.5 231s160.833 92 275.5 92c62 0 117.667 -11.333 167 -34s89.666 -55.334 120.999 -98.001
c35.333 42 77.333 74.5 126 97.5s102 34.5 160 34.5c121.333 0 215.833 -42.833 283.5 -128.5s101.5 -202.5 101.5 -350.5v-124h-594c0.666992 -110.667 21.334 -199.334 62.001 -266.001s103.667 -100 189 -100c56 0 103.167 8.83301 141.5 26.5s78.833 43.167 121.5 76.5
l60 -132c-32.667 -32 -78 -60.833 -136 -86.5s-125 -38.5 -201 -38.5zM445.001 127.001c40 0 81.167 13.167 123.5 39.5s74.833 56.833 97.5 91.5v232h-177c-64.667 0 -115 -18.333 -151 -55s-54 -81.667 -54 -135s13.5 -95.5 40.5 -126.5s67.167 -46.5 120.5 -46.5z
M1084 946.001c-62 0 -110.167 -28 -144.5 -84s-54.833 -130.333 -61.5 -223h390v30c0 82 -15.167 148.667 -45.5 200s-76.5 77 -138.5 77z" />
    <glyph glyph-name="ccedilla" unicode="&#xe7;" horiz-adv-x="927" 
d="M493 133c50 0 91.832 19.333 125.499 58s50.5 91 50.5 157h183l2 -6c2.66699 -102 -31.666 -188 -102.999 -258s-157.333 -105 -258 -105c-133.333 0 -236.333 50.833 -309 152.5s-109 231.5 -109 389.5v38c0 157.333 36.333 287.166 109 389.499
s175.667 153.5 309 153.5c108 0 195.833 -36.5 263.5 -109.5s100.5 -167.833 98.5 -284.5l-2 -5h-184c0 72 -16.167 130.5 -48.5 175.5s-74.833 67.5 -127.5 67.5c-76 0 -130.833 -36.667 -164.5 -110s-50.5 -165.666 -50.5 -276.999v-38
c0 -113.333 16.667 -206.333 50 -279s88.333 -109 165 -109zM558.999 -4l-11 -58c38 -6.66699 69.5 -23.5 94.5 -50.5s37.5 -67.5 37.5 -121.5c0 -65.333 -24.5 -117.333 -73.5 -156s-118.833 -58 -209.5 -58l-5 113c36 0 65.167 8.33301 87.5 25s33.5 42 33.5 76
c0 33.333 -10 56.5 -30 69.5s-54 21.833 -102 26.5l26 134h152z" />
    <glyph glyph-name="egrave" unicode="&#xe8;" horiz-adv-x="933" 
d="M508 -21c-134.667 0 -240.166 49.3311 -316.499 147.998s-114.5 227 -114.5 385v47c0 158.667 38 288.834 114 390.501s175.333 152.5 298 152.5c123.333 0 217.166 -43.667 281.499 -131s96.5 -204.666 96.5 -351.999v-114h-587
c0 -110.667 19.833 -200.334 59.5 -269.001s100.5 -103 182.5 -103c56.667 0 106 8.83301 148 26.5s80.667 43.5 116 77.5l66 -126c-36 -37.333 -83.5 -68.666 -142.5 -93.999s-126.167 -38 -201.5 -38zM489.001 945.998c-58.667 0 -105.332 -27.168 -139.999 -81.501
s-56.334 -126.166 -65.001 -215.499h383v23c0 81.333 -14.5 147.333 -43.5 198s-73.833 76 -134.5 76zM569.003 1281h-177l-232 261l2 5h235z" />
    <glyph glyph-name="eacute" unicode="&#xe9;" horiz-adv-x="933" 
d="M508 -21c-134.667 0 -240.166 49.3311 -316.499 147.998s-114.5 227 -114.5 385v47c0 158.667 38 288.834 114 390.501s175.333 152.5 298 152.5c123.333 0 217.166 -43.667 281.499 -131s96.5 -204.666 96.5 -351.999v-114h-587
c0 -110.667 19.833 -200.334 59.5 -269.001s100.5 -103 182.5 -103c56.667 0 106 8.83301 148 26.5s80.667 43.5 116 77.5l66 -126c-36 -37.333 -83.5 -68.666 -142.5 -93.999s-126.167 -38 -201.5 -38zM489.001 945.998c-58.667 0 -105.332 -27.168 -139.999 -81.501
s-56.334 -126.166 -65.001 -215.499h383v23c0 81.333 -14.5 147.333 -43.5 198s-73.833 76 -134.5 76zM547.003 1543h233l3 -5l-242 -261h-170z" />
    <glyph glyph-name="ecircumflex" unicode="&#xea;" horiz-adv-x="933" 
d="M508 -21c-134.667 0 -240.166 49.3311 -316.499 147.998s-114.5 227 -114.5 385v47c0 158.667 38 288.834 114 390.501s175.333 152.5 298 152.5c123.333 0 217.166 -43.667 281.499 -131s96.5 -204.666 96.5 -351.999v-114h-587
c0 -110.667 19.833 -200.334 59.5 -269.001s100.5 -103 182.5 -103c56.667 0 106 8.83301 148 26.5s80.667 43.5 116 77.5l66 -126c-36 -37.333 -83.5 -68.666 -142.5 -93.999s-126.167 -38 -201.5 -38zM489.001 945.998c-58.667 0 -105.332 -27.168 -139.999 -81.501
s-56.334 -126.166 -65.001 -215.499h383v23c0 81.333 -14.5 147.333 -43.5 198s-73.833 76 -134.5 76zM761.003 1300v-22h-164l-126 151l-124 -151h-162v23l225 232h123z" />
    <glyph glyph-name="edieresis" unicode="&#xeb;" horiz-adv-x="933" 
d="M508 -21c-134.667 0 -240.166 49.3311 -316.499 147.998s-114.5 227 -114.5 385v47c0 158.667 38 288.834 114 390.501s175.333 152.5 298 152.5c123.333 0 217.166 -43.667 281.499 -131s96.5 -204.666 96.5 -351.999v-114h-587
c0 -110.667 19.833 -200.334 59.5 -269.001s100.5 -103 182.5 -103c56.667 0 106 8.83301 148 26.5s80.667 43.5 116 77.5l66 -126c-36 -37.333 -83.5 -68.666 -142.5 -93.999s-126.167 -38 -201.5 -38zM489.001 945.998c-58.667 0 -105.332 -27.168 -139.999 -81.501
s-56.334 -126.166 -65.001 -215.499h383v23c0 81.333 -14.5 147.333 -43.5 198s-73.833 76 -134.5 76zM796.003 1296h-209v185h209v-185zM360.003 1296h-209v185h209v-185z" />
    <glyph glyph-name="igrave" unicode="&#xec;" horiz-adv-x="470" 
d="M334 0h-203v1082h203v-1082zM332 1259h-177l-232 261l2 5h235z" />
    <glyph glyph-name="iacute" unicode="&#xed;" horiz-adv-x="470" 
d="M334 0h-203v1082h203v-1082zM309 1521h233l3 -5l-242 -261h-170z" />
    <glyph glyph-name="icircumflex" unicode="&#xee;" horiz-adv-x="470" 
d="M334 0h-203v1082h203v-1082zM524 1278v-22h-164l-126 151l-124 -151h-162v23l225 232h123z" />
    <glyph glyph-name="idieresis" unicode="&#xef;" horiz-adv-x="470" 
d="M334 0h-203v1082h203v-1082zM558 1274h-209v185h209v-185zM122 1274h-209v185h209v-185z" />
    <glyph glyph-name="eth" unicode="&#xf0;" horiz-adv-x="1053" 
d="M766 1302c60 -69.333 106.5 -150.33 139.5 -242.997s49.5 -195.334 49.5 -308.001v-213c0 -164 -43 -298.167 -129 -402.5s-193.667 -156.5 -323 -156.5c-130 0 -236.333 46.167 -319 138.5s-124 207.166 -124 344.499c0 153.333 38.667 276 116 368s180 138 308 138
c51.333 0 99.333 -10.667 144 -32s82 -50 112 -86l4 5c-6 70 -21 133.5 -45 190.5s-54.667 107.5 -92 151.5l-238 -156l-64 94l215 141c-24 17.333 -49.167 32.833 -75.5 46.5s-53.5 26.167 -81.5 37.5l64 157c46.667 -14.667 91.5 -33.334 134.5 -56.001
s83.167 -49 120.5 -79l186 123l64 -94zM507 134.003c73.333 0 132.5 37.832 177.5 113.499s67.5 172.5 67.5 290.5v141c-20 38.667 -51.333 71.334 -94 98.001s-94 40 -154 40c-74.667 0 -133.5 -33.667 -176.5 -101s-64.5 -152 -64.5 -254c0 -88 22.167 -164.667 66.5 -230
s103.5 -98 177.5 -98z" />
    <glyph glyph-name="ntilde" unicode="&#xf1;" 
d="M301 1082l11.998 -161c30.667 57.333 69.334 101.833 116.001 133.5s99.667 47.5 159 47.5c96 0 170.833 -35.333 224.5 -106s80.5 -180.667 80.5 -330v-666h-203v665c0 102 -14.167 174 -42.5 216s-71.166 63 -128.499 63c-46.667 0 -86.667 -12.167 -120 -36.5
s-60 -57.833 -80 -100.5v-807h-204v1082h186zM808.998 1516c0 -61.333 -16.834 -113 -50.501 -155s-76.167 -63 -127.5 -63c-41.333 0 -85.666 16.333 -132.999 49s-85.666 49 -114.999 49c-23.333 0 -42.666 -11.167 -57.999 -33.5s-23 -49.833 -23 -82.5l-111 28
c0 60 16.833 111.667 50.5 155s76.167 65 127.5 65c33.333 0 75.666 -16.5 126.999 -49.5s91.666 -49.5 120.999 -49.5c22 0 41.167 11.333 57.5 34s24.5 50.667 24.5 84z" />
    <glyph glyph-name="ograve" unicode="&#xf2;" 
d="M76 553c0 160.667 38 292.334 114 395.001s180.333 154 313 154s237.167 -51.333 313.5 -154s114.5 -234.334 114.5 -395.001v-27c0 -161.333 -38 -292.833 -114 -394.5s-180 -152.5 -312 -152.5c-134 0 -239 50.833 -315 152.5s-114 233.167 -114 394.5v27zM280 526
c0 -115.333 18.5 -209.668 55.5 -283.001s93.5 -110 169.5 -110c74 0 129.5 36.833 166.5 110.5s55.5 167.834 55.5 282.501v27c0 113.333 -18.667 207.166 -56 281.499s-93.333 111.5 -168 111.5s-130.5 -37.167 -167.5 -111.5s-55.5 -168.166 -55.5 -281.499v-27z
M603 1280h-177l-232 261l2 5h235z" />
    <glyph glyph-name="oacute" unicode="&#xf3;" 
d="M76 553c0 160.667 38 292.334 114 395.001s180.333 154 313 154s237.167 -51.333 313.5 -154s114.5 -234.334 114.5 -395.001v-27c0 -161.333 -38 -292.833 -114 -394.5s-180 -152.5 -312 -152.5c-134 0 -239 50.833 -315 152.5s-114 233.167 -114 394.5v27zM280 526
c0 -115.333 18.5 -209.668 55.5 -283.001s93.5 -110 169.5 -110c74 0 129.5 36.833 166.5 110.5s55.5 167.834 55.5 282.501v27c0 113.333 -18.667 207.166 -56 281.499s-93.333 111.5 -168 111.5s-130.5 -37.167 -167.5 -111.5s-55.5 -168.166 -55.5 -281.499v-27z
M581 1542h233l3 -5l-242 -261h-170z" />
    <glyph glyph-name="ocircumflex" unicode="&#xf4;" 
d="M76 553c0 160.667 38 292.334 114 395.001s180.333 154 313 154s237.167 -51.333 313.5 -154s114.5 -234.334 114.5 -395.001v-27c0 -161.333 -38 -292.833 -114 -394.5s-180 -152.5 -312 -152.5c-134 0 -239 50.833 -315 152.5s-114 233.167 -114 394.5v27zM280 526
c0 -115.333 18.5 -209.668 55.5 -283.001s93.5 -110 169.5 -110c74 0 129.5 36.833 166.5 110.5s55.5 167.834 55.5 282.501v27c0 113.333 -18.667 207.166 -56 281.499s-93.333 111.5 -168 111.5s-130.5 -37.167 -167.5 -111.5s-55.5 -168.166 -55.5 -281.499v-27z
M795 1299v-22h-164l-126 151l-124 -151h-162v23l225 232h123z" />
    <glyph glyph-name="otilde" unicode="&#xf5;" 
d="M76 553c0 160.667 38 292.334 114 395.001s180.333 154 313 154s237.167 -51.333 313.5 -154s114.5 -234.334 114.5 -395.001v-27c0 -161.333 -38 -292.833 -114 -394.5s-180 -152.5 -312 -152.5c-134 0 -239 50.833 -315 152.5s-114 233.167 -114 394.5v27zM280 526
c0 -115.333 18.5 -209.668 55.5 -283.001s93.5 -110 169.5 -110c74 0 129.5 36.833 166.5 110.5s55.5 167.834 55.5 282.501v27c0 113.333 -18.667 207.166 -56 281.499s-93.333 111.5 -168 111.5s-130.5 -37.167 -167.5 -111.5s-55.5 -168.166 -55.5 -281.499v-27z
M812 1516c0 -61.333 -16.834 -113 -50.501 -155s-76.167 -63 -127.5 -63c-41.333 0 -85.666 16.333 -132.999 49s-85.666 49 -114.999 49c-23.333 0 -42.666 -11.167 -57.999 -33.5s-23 -49.833 -23 -82.5l-111 28c0 60 16.833 111.667 50.5 155s76.167 65 127.5 65
c33.333 0 75.666 -16.5 126.999 -49.5s91.666 -49.5 120.999 -49.5c22 0 41.167 11.333 57.5 34s24.5 50.667 24.5 84z" />
    <glyph glyph-name="odieresis" unicode="&#xf6;" 
d="M76 553c0 160.667 38 292.334 114 395.001s180.333 154 313 154s237.167 -51.333 313.5 -154s114.5 -234.334 114.5 -395.001v-27c0 -161.333 -38 -292.833 -114 -394.5s-180 -152.5 -312 -152.5c-134 0 -239 50.833 -315 152.5s-114 233.167 -114 394.5v27zM280 526
c0 -115.333 18.5 -209.668 55.5 -283.001s93.5 -110 169.5 -110c74 0 129.5 36.833 166.5 110.5s55.5 167.834 55.5 282.501v27c0 113.333 -18.667 207.166 -56 281.499s-93.333 111.5 -168 111.5s-130.5 -37.167 -167.5 -111.5s-55.5 -168.166 -55.5 -281.499v-27z
M829 1295h-209v185h209v-185zM393 1295h-209v185h209v-185z" />
    <glyph glyph-name="divide" unicode="&#xf7;" horiz-adv-x="1018" 
d="M936 608h-872v171h872v-171zM604 995h-206v195h206v-195zM604 188h-206v195h206v-195z" />
    <glyph glyph-name="oslash" unicode="&#xf8;" horiz-adv-x="1009" 
d="M76 553c0 160.667 38 292.334 114 395.001s180.333 154 313 154c30.667 0 60 -3.16699 88 -9.5s55 -15.166 81 -26.499l62 147h122l-89 -211c52.667 -48.667 93.167 -111.834 121.5 -189.501s42.5 -164.167 42.5 -259.5v-27c0 -161.333 -38 -292.833 -114 -394.5
s-180 -152.5 -312 -152.5c-29.333 0 -57 2.5 -83 7.5s-50.667 12.167 -74 21.5l-62 -147h-121l87 206c-57.333 47.333 -101 110.666 -131 189.999s-45 169 -45 269v27zM280 526c0 -54 3.83008 -103.834 11.4971 -149.501s19.834 -83.167 36.501 -112.5h6l273 648
c-15.333 10.667 -31.666 19 -48.999 25s-35.666 9 -54.999 9c-74.667 0 -130.5 -37.167 -167.5 -111.5s-55.5 -168.166 -55.5 -281.499v-27zM726.997 552.999c0 48.667 -3.5 93.999 -10.5 135.999s-17.167 77.333 -30.5 106l-6 1l-269 -637
c13.333 -8.66699 27.833 -15.167 43.5 -19.5s32.5 -6.5 50.5 -6.5c74 0 129.5 36.833 166.5 110.5s55.5 167.834 55.5 282.501v27z" />
    <glyph glyph-name="ugrave" unicode="&#xf9;" 
d="M699 158c-29.333 -57.333 -66.668 -101.499 -112.001 -132.499s-98 -46.5 -158 -46.5c-99.333 0 -177 38.333 -233 115s-84 195.667 -84 357v631h204v-633c0 -116 13.333 -197.167 40 -243.5s67.334 -69.5 122.001 -69.5c50 0 92.5 11.667 127.5 35
s62.5 56.666 82.5 99.999v811h204v-1082h-173zM600.998 1259h-177l-232 261l2 5h235z" />
    <glyph glyph-name="uacute" unicode="&#xfa;" 
d="M699 158c-29.333 -57.333 -66.668 -101.499 -112.001 -132.499s-98 -46.5 -158 -46.5c-99.333 0 -177 38.333 -233 115s-84 195.667 -84 357v631h204v-633c0 -116 13.333 -197.167 40 -243.5s67.334 -69.5 122.001 -69.5c50 0 92.5 11.667 127.5 35
s62.5 56.666 82.5 99.999v811h204v-1082h-173zM578.998 1521h233l3 -5l-242 -261h-170z" />
    <glyph glyph-name="ucircumflex" unicode="&#xfb;" 
d="M699 158c-29.333 -57.333 -66.668 -101.499 -112.001 -132.499s-98 -46.5 -158 -46.5c-99.333 0 -177 38.333 -233 115s-84 195.667 -84 357v631h204v-633c0 -116 13.333 -197.167 40 -243.5s67.334 -69.5 122.001 -69.5c50 0 92.5 11.667 127.5 35
s62.5 56.666 82.5 99.999v811h204v-1082h-173zM792.998 1278v-22h-164l-126 151l-124 -151h-162v23l225 232h123z" />
    <glyph glyph-name="udieresis" unicode="&#xfc;" 
d="M699 158c-29.333 -57.333 -66.668 -101.499 -112.001 -132.499s-98 -46.5 -158 -46.5c-99.333 0 -177 38.333 -233 115s-84 195.667 -84 357v631h204v-633c0 -116 13.333 -197.167 40 -243.5s67.334 -69.5 122.001 -69.5c50 0 92.5 11.667 127.5 35
s62.5 56.666 82.5 99.999v811h204v-1082h-173zM826.998 1274h-209v185h209v-185zM390.998 1274h-209v185h209v-185z" />
    <glyph glyph-name="yacute" unicode="&#xfd;" horiz-adv-x="903" 
d="M425 373l16.001 -73.002h6l212 782h223l-387 -1250c-24.667 -74 -59 -137.333 -103 -190s-107.333 -79 -190 -79c-16.667 0 -34.667 1.83301 -54 5.5s-38.333 7.83398 -57 12.501l23 150c6.66699 -1.33301 16.5 -2.66602 29.5 -3.99902s23.167 -2 30.5 -2
c40 0 71.667 16.833 95 50.5s41.666 73.5 54.999 119.5l37 112l-341 1075h222zM527.001 1521h233l3 -5l-242 -261h-170z" />
    <glyph glyph-name="thorn" unicode="&#xfe;" horiz-adv-x="1019" 
d="M939 507c0 -160 -31.834 -288 -95.501 -384s-152.5 -144 -266.5 -144c-53.333 0 -100.5 10.5 -141.5 31.5s-75.833 51.833 -104.5 92.5v-519h-204v416h-3v1560h204v-594c28.667 44 63.667 77.667 105 101s89 35 143 35c114.667 0 203.834 -52.333 267.501 -157
s95.5 -243.667 95.5 -417v-21zM734.999 528c0 122.667 -17.833 222.667 -53.5 300s-89.167 116 -160.5 116c-45.333 0 -83.666 -12.5 -114.999 -37.5s-56.333 -58.833 -75 -101.5v-545c18.667 -40.667 43.667 -72 75 -94s70 -33 116 -33c71.333 0 124.666 34 159.999 102
s53 158.667 53 272v21z" />
    <glyph glyph-name="ydieresis" unicode="&#xff;" horiz-adv-x="903" 
d="M425 373l16.001 -73.002h6l212 782h223l-387 -1250c-24.667 -74 -59 -137.333 -103 -190s-107.333 -79 -190 -79c-16.667 0 -34.667 1.83301 -54 5.5s-38.333 7.83398 -57 12.501l23 150c6.66699 -1.33301 16.5 -2.66602 29.5 -3.99902s23.167 -2 30.5 -2
c40 0 71.667 16.833 95 50.5s41.666 73.5 54.999 119.5l37 112l-341 1075h222zM776.001 1274h-209v185h209v-185zM340.001 1274h-209v185h209v-185z" />
    <glyph glyph-name="Amacron" unicode="&#x100;" horiz-adv-x="1127" 
d="M783 368h-435l-105 -368h-211l437 1456h197l433 -1456h-211zM394 529h344l-168 592h-6zM887 1652h-644v132h644v-132z" />
    <glyph glyph-name="amacron" unicode="&#x101;" horiz-adv-x="967" 
d="M679 0c-8.66699 32.667 -15.498 61.834 -20.498 87.501s-8.16699 51.167 -9.5 76.5c-28.667 -53.333 -66.5 -97.5 -113.5 -132.5s-100.5 -52.5 -160.5 -52.5c-96.667 0 -170.834 28.667 -222.501 86s-77.5 135.666 -77.5 234.999c0 102 35.833 182.333 107.5 241
s171.5 88 299.5 88h166v111c0 66 -14.667 117.5 -44 154.5s-71.333 55.5 -126 55.5c-49.333 0 -88.5 -16 -117.5 -48s-43.5 -73 -43.5 -123l-194 -1l-2 6c-4 84 28.667 158 98 222s160 96 272 96c107.333 0 194.333 -31.5 261 -94.5s100 -152.833 100 -269.5v-502
c0 -41.333 2.66699 -81.5 8 -120.5s13.666 -77.5 24.999 -115.5h-206zM417.002 135c55.333 0 104.333 17.167 147 51.5s70.667 75.833 84 124.5v192h-169c-62.667 0 -111.667 -19.833 -147 -59.5s-53 -87.5 -53 -143.5c0 -50 12 -90 36 -120s58 -45 102 -45zM803.002 1330
h-644v132h644v-132z" />
    <glyph glyph-name="Abreve" unicode="&#x102;" horiz-adv-x="1127" 
d="M783 368h-435l-105 -368h-211l437 1456h197l433 -1456h-211zM394 529h344l-168 592h-6zM845 1872l2.00098 -5.99902c2.66699 -78.667 -21.833 -142.667 -73.5 -192s-121.5 -74 -209.5 -74c-88.667 0 -158.834 24.667 -210.501 74s-75.834 113.333 -72.501 192l2 6h152
c0 -44.667 10.333 -80.834 31 -108.501s53.334 -41.5 98.001 -41.5c42.667 0 74.5 14 95.5 42s31.5 64 31.5 108h154z" />
    <glyph glyph-name="abreve" unicode="&#x103;" horiz-adv-x="967" 
d="M679 0c-8.66699 32.667 -15.498 61.834 -20.498 87.501s-8.16699 51.167 -9.5 76.5c-28.667 -53.333 -66.5 -97.5 -113.5 -132.5s-100.5 -52.5 -160.5 -52.5c-96.667 0 -170.834 28.667 -222.501 86s-77.5 135.666 -77.5 234.999c0 102 35.833 182.333 107.5 241
s171.5 88 299.5 88h166v111c0 66 -14.667 117.5 -44 154.5s-71.333 55.5 -126 55.5c-49.333 0 -88.5 -16 -117.5 -48s-43.5 -73 -43.5 -123l-194 -1l-2 6c-4 84 28.667 158 98 222s160 96 272 96c107.333 0 194.333 -31.5 261 -94.5s100 -152.833 100 -269.5v-502
c0 -41.333 2.66699 -81.5 8 -120.5s13.666 -77.5 24.999 -115.5h-206zM417.002 135c55.333 0 104.333 17.167 147 51.5s70.667 75.833 84 124.5v192h-169c-62.667 0 -111.667 -19.833 -147 -59.5s-53 -87.5 -53 -143.5c0 -50 12 -90 36 -120s58 -45 102 -45zM761.002 1550
l2.00098 -5.99902c2.66699 -78.667 -21.833 -142.667 -73.5 -192s-121.5 -74 -209.5 -74c-88.667 0 -158.834 24.667 -210.501 74s-75.834 113.333 -72.501 192l2 6h152c0 -44.667 10.333 -80.834 31 -108.501s53.334 -41.5 98.001 -41.5c42.667 0 74.5 14 95.5 42
s31.5 64 31.5 108h154z" />
    <glyph glyph-name="Aogonek" unicode="&#x104;" horiz-adv-x="1127" 
d="M783 368h-435l-105 -368h-211l437 1456h197l433 -1456h-211zM394 529h344l-168 592h-6zM1053 0c-36 -37.333 -62.999 -70.666 -80.999 -99.999s-27 -61.666 -27 -96.999c0 -22 5.5 -41.167 16.5 -57.5s31.5 -24.5 61.5 -24.5c16.667 0 31.667 2.66699 45 8
s26 11.666 38 18.999l29 -117c-20 -12 -42.5 -22.333 -67.5 -31s-54.5 -13 -88.5 -13c-56.667 0 -103.334 17.167 -140.001 51.5s-55 82.166 -55 143.499c0 50.667 15 99.167 45 145.5s75.667 86.833 137 121.5z" />
    <glyph glyph-name="aogonek" unicode="&#x105;" horiz-adv-x="967" 
d="M679 0c-8.66699 32.667 -15.498 61.834 -20.498 87.501s-8.16699 51.167 -9.5 76.5c-28.667 -53.333 -66.5 -97.5 -113.5 -132.5s-100.5 -52.5 -160.5 -52.5c-96.667 0 -170.834 28.667 -222.501 86s-77.5 135.666 -77.5 234.999c0 102 35.833 182.333 107.5 241
s171.5 88 299.5 88h166v111c0 66 -14.667 117.5 -44 154.5s-71.333 55.5 -126 55.5c-49.333 0 -88.5 -16 -117.5 -48s-43.5 -73 -43.5 -123l-194 -1l-2 6c-4 84 28.667 158 98 222s160 96 272 96c107.333 0 194.333 -31.5 261 -94.5s100 -152.833 100 -269.5v-502
c0 -41.333 2.66699 -81.5 8 -120.5s13.666 -77.5 24.999 -115.5h-206zM417.002 135c55.333 0 104.333 17.167 147 51.5s70.667 75.833 84 124.5v192h-169c-62.667 0 -111.667 -19.833 -147 -59.5s-53 -87.5 -53 -143.5c0 -50 12 -90 36 -120s58 -45 102 -45zM838.002 0
c-36 -37.333 -62.999 -70.666 -80.999 -99.999s-27 -61.666 -27 -96.999c0 -22 5.5 -41.167 16.5 -57.5s31.5 -24.5 61.5 -24.5c16.667 0 31.667 2.66699 45 8s26 11.666 38 18.999l29 -117c-20 -12 -42.5 -22.333 -67.5 -31s-54.5 -13 -88.5 -13
c-56.667 0 -103.334 17.167 -140.001 51.5s-55 82.166 -55 143.499c0 50.667 15 99.167 45 145.5s75.667 86.833 137 121.5z" />
    <glyph glyph-name="Cacute" unicode="&#x106;" horiz-adv-x="1133" 
d="M1050 438l2.00293 -6.00195c2.66699 -143.333 -37.333 -254.666 -120 -333.999s-196.334 -119 -341.001 -119c-149.333 0 -268.333 47.833 -357 143.5s-133 229.834 -133 402.501v404c0 172 43.667 306.333 131 403s204.666 145 351.999 145
c148.667 0 264.667 -38.5 348 -115.5s123.666 -189.5 120.999 -337.5l-2 -6h-195c0 104 -22.667 180.5 -68 229.5s-113.333 73.5 -204 73.5c-89.333 0 -158.333 -33.5 -207 -100.5s-73 -163.167 -73 -288.5v-407c0 -126.667 25 -223.667 75 -291s120.667 -101 212 -101
c88 0 154 24.167 198 72.5s66 125.833 66 232.5h195zM665.003 1885h233l3 -5l-242 -261h-170z" />
    <glyph glyph-name="cacute" unicode="&#x107;" horiz-adv-x="927" 
d="M493 133c50 0 91.832 19.333 125.499 58s50.5 91 50.5 157h183l2 -6c2.66699 -102 -31.666 -188 -102.999 -258s-157.333 -105 -258 -105c-133.333 0 -236.333 50.833 -309 152.5s-109 231.5 -109 389.5v38c0 157.333 36.333 287.166 109 389.499
s175.667 153.5 309 153.5c108 0 195.833 -36.5 263.5 -109.5s100.5 -167.833 98.5 -284.5l-2 -5h-184c0 72 -16.167 130.5 -48.5 175.5s-74.833 67.5 -127.5 67.5c-76 0 -130.833 -36.667 -164.5 -110s-50.5 -165.666 -50.5 -276.999v-38
c0 -113.333 16.667 -206.333 50 -279s88.333 -109 165 -109zM546.999 1542h233l3 -5l-242 -261h-170z" />
    <glyph glyph-name="Ccircumflex" unicode="&#x108;" horiz-adv-x="1133" 
d="M1050 438l2.00293 -6.00195c2.66699 -143.333 -37.333 -254.666 -120 -333.999s-196.334 -119 -341.001 -119c-149.333 0 -268.333 47.833 -357 143.5s-133 229.834 -133 402.501v404c0 172 43.667 306.333 131 403s204.666 145 351.999 145
c148.667 0 264.667 -38.5 348 -115.5s123.666 -189.5 120.999 -337.5l-2 -6h-195c0 104 -22.667 180.5 -68 229.5s-113.333 73.5 -204 73.5c-89.333 0 -158.333 -33.5 -207 -100.5s-73 -163.167 -73 -288.5v-407c0 -126.667 25 -223.667 75 -291s120.667 -101 212 -101
c88 0 154 24.167 198 72.5s66 125.833 66 232.5h195zM879.003 1642v-22h-164l-126 151l-124 -151h-162v23l225 232h123z" />
    <glyph glyph-name="ccircumflex" unicode="&#x109;" horiz-adv-x="927" 
d="M493 133c50 0 91.832 19.333 125.499 58s50.5 91 50.5 157h183l2 -6c2.66699 -102 -31.666 -188 -102.999 -258s-157.333 -105 -258 -105c-133.333 0 -236.333 50.833 -309 152.5s-109 231.5 -109 389.5v38c0 157.333 36.333 287.166 109 389.499
s175.667 153.5 309 153.5c108 0 195.833 -36.5 263.5 -109.5s100.5 -167.833 98.5 -284.5l-2 -5h-184c0 72 -16.167 130.5 -48.5 175.5s-74.833 67.5 -127.5 67.5c-76 0 -130.833 -36.667 -164.5 -110s-50.5 -165.666 -50.5 -276.999v-38
c0 -113.333 16.667 -206.333 50 -279s88.333 -109 165 -109zM760.999 1299v-22h-164l-126 151l-124 -151h-162v23l225 232h123z" />
    <glyph glyph-name="uni010A" unicode="&#x10a;" horiz-adv-x="1133" 
d="M1050 438l2.00293 -6.00195c2.66699 -143.333 -37.333 -254.666 -120 -333.999s-196.334 -119 -341.001 -119c-149.333 0 -268.333 47.833 -357 143.5s-133 229.834 -133 402.501v404c0 172 43.667 306.333 131 403s204.666 145 351.999 145
c148.667 0 264.667 -38.5 348 -115.5s123.666 -189.5 120.999 -337.5l-2 -6h-195c0 104 -22.667 180.5 -68 229.5s-113.333 73.5 -204 73.5c-89.333 0 -158.333 -33.5 -207 -100.5s-73 -163.167 -73 -288.5v-407c0 -126.667 25 -223.667 75 -291s120.667 -101 212 -101
c88 0 154 24.167 198 72.5s66 125.833 66 232.5h195zM703.003 1637h-229v200h229v-200z" />
    <glyph glyph-name="uni010B" unicode="&#x10b;" horiz-adv-x="927" 
d="M493 133c50 0 91.832 19.333 125.499 58s50.5 91 50.5 157h183l2 -6c2.66699 -102 -31.666 -188 -102.999 -258s-157.333 -105 -258 -105c-133.333 0 -236.333 50.833 -309 152.5s-109 231.5 -109 389.5v38c0 157.333 36.333 287.166 109 389.499
s175.667 153.5 309 153.5c108 0 195.833 -36.5 263.5 -109.5s100.5 -167.833 98.5 -284.5l-2 -5h-184c0 72 -16.167 130.5 -48.5 175.5s-74.833 67.5 -127.5 67.5c-76 0 -130.833 -36.667 -164.5 -110s-50.5 -165.666 -50.5 -276.999v-38
c0 -113.333 16.667 -206.333 50 -279s88.333 -109 165 -109zM584.999 1294h-229v200h229v-200z" />
    <glyph glyph-name="Ccaron" unicode="&#x10c;" horiz-adv-x="1133" 
d="M1050 438l2.00293 -6.00195c2.66699 -143.333 -37.333 -254.666 -120 -333.999s-196.334 -119 -341.001 -119c-149.333 0 -268.333 47.833 -357 143.5s-133 229.834 -133 402.501v404c0 172 43.667 306.333 131 403s204.666 145 351.999 145
c148.667 0 264.667 -38.5 348 -115.5s123.666 -189.5 120.999 -337.5l-2 -6h-195c0 104 -22.667 180.5 -68 229.5s-113.333 73.5 -204 73.5c-89.333 0 -158.333 -33.5 -207 -100.5s-73 -163.167 -73 -288.5v-407c0 -126.667 25 -223.667 75 -291s120.667 -101 212 -101
c88 0 154 24.167 198 72.5s66 125.833 66 232.5h195zM589.003 1730l115 150h182v-17l-229 -240h-135l-228 239v18h180z" />
    <glyph glyph-name="ccaron" unicode="&#x10d;" horiz-adv-x="927" 
d="M493 133c50 0 91.832 19.333 125.499 58s50.5 91 50.5 157h183l2 -6c2.66699 -102 -31.666 -188 -102.999 -258s-157.333 -105 -258 -105c-133.333 0 -236.333 50.833 -309 152.5s-109 231.5 -109 389.5v38c0 157.333 36.333 287.166 109 389.499
s175.667 153.5 309 153.5c108 0 195.833 -36.5 263.5 -109.5s100.5 -167.833 98.5 -284.5l-2 -5h-184c0 72 -16.167 130.5 -48.5 175.5s-74.833 67.5 -127.5 67.5c-76 0 -130.833 -36.667 -164.5 -110s-50.5 -165.666 -50.5 -276.999v-38
c0 -113.333 16.667 -206.333 50 -279s88.333 -109 165 -109zM470.999 1387l115 150h182v-17l-229 -240h-135l-228 239v18h180z" />
    <glyph glyph-name="Dcaron" unicode="&#x10e;" horiz-adv-x="1191" 
d="M139 0v1456h413c157.333 0 285.833 -58.333 385.5 -175s149.5 -266.667 149.5 -450v-207c0 -184 -49.833 -334 -149.5 -450s-228.167 -174 -385.5 -174h-413zM342 1300v-1146h210c100 0 180 43.833 240 131.5s90 200.5 90 338.5v209c0 136 -30 247.833 -90 335.5
s-140 131.5 -240 131.5h-210zM523 1709l115 150h182v-17l-229 -240h-135l-228 239v18h180z" />
    <glyph glyph-name="dcaron" unicode="&#x10f;" 
d="M79 528c0 173.333 31.667 312.334 95 417.001s152.333 157 267 157c51.333 0 97.333 -11.5 138 -34.5s75.667 -56.167 105 -99.5v592h203v-1560h-168l-21 130c-30 -49.333 -66.667 -86.833 -110 -112.5s-93 -38.5 -149 -38.5c-114 0 -202.5 48.167 -265.5 144.5
s-94.5 224.166 -94.5 383.499v21zM281 507.001c0 -113.333 17 -203.5 51 -270.5s87 -100.5 159 -100.5c45.333 0 83.833 12 115.5 36s57.5 58 77.5 102v524c-20 44.667 -46 80.167 -78 106.5s-70 39.5 -114 39.5c-72 0 -125.167 -38.5 -159.5 -115.5
s-51.5 -177.167 -51.5 -300.5v-21zM1152 1420l-104 -224h-91l51 231v132h144v-139z" />
    <glyph glyph-name="Dcroat" unicode="&#x110;" horiz-adv-x="1191" 
d="M139 0v670h-131v141h131v645h413c157.333 0 285.833 -58.333 385.5 -175s149.5 -266.667 149.5 -450v-207c0 -184 -49.833 -334 -149.5 -450s-228.167 -174 -385.5 -174h-413zM571 670h-229v-516h210c100 0 180 43.833 240 131.5s90 200.5 90 338.5v209
c0 136 -30 247.833 -90 335.5s-140 131.5 -240 131.5h-210v-489h229v-141z" />
    <glyph glyph-name="dcroat" unicode="&#x111;" 
d="M1031 1238l-144 0.000976562v-1238h-168l-21 130c-30 -49.333 -66.667 -86.833 -110 -112.5s-93 -38.5 -149 -38.5c-114 0 -202.5 48.167 -265.5 144.5s-94.5 224.166 -94.5 383.499v21c0 173.333 31.667 312.333 95 417s152.333 157 267 157
c51.333 0 97.333 -11.5 138 -34.5s75.667 -56.167 105 -99.5v270h-216v141h216v181h203v-181h144v-141zM281 507.001c0 -113.333 17 -203.5 51 -270.5s87 -100.5 159 -100.5c45.333 0 83.833 12 115.5 36s57.5 58 77.5 102v524c-20 44.667 -46 80.167 -78 106.5
s-70 39.5 -114 39.5c-72 0 -125.167 -38.5 -159.5 -115.5s-51.5 -177.167 -51.5 -300.5v-21z" />
    <glyph glyph-name="Emacron" unicode="&#x112;" horiz-adv-x="989" 
d="M836 676h-494v-522h582v-154h-785v1456h780v-156h-577v-469h494v-155zM855 1652h-644v132h644v-132z" />
    <glyph glyph-name="emacron" unicode="&#x113;" horiz-adv-x="933" 
d="M508 -21c-134.667 0 -240.166 49.3311 -316.499 147.998s-114.5 227 -114.5 385v47c0 158.667 38 288.834 114 390.501s175.333 152.5 298 152.5c123.333 0 217.166 -43.667 281.499 -131s96.5 -204.666 96.5 -351.999v-114h-587
c0 -110.667 19.833 -200.334 59.5 -269.001s100.5 -103 182.5 -103c56.667 0 106 8.83301 148 26.5s80.667 43.5 116 77.5l66 -126c-36 -37.333 -83.5 -68.666 -142.5 -93.999s-126.167 -38 -201.5 -38zM489.001 945.998c-58.667 0 -105.332 -27.168 -139.999 -81.501
s-56.334 -126.166 -65.001 -215.499h383v23c0 81.333 -14.5 147.333 -43.5 198s-73.833 76 -134.5 76zM795.003 1331h-644v132h644v-132z" />
    <glyph glyph-name="Ebreve" unicode="&#x114;" horiz-adv-x="989" 
d="M836 676h-494v-522h582v-154h-785v1456h780v-156h-577v-469h494v-155zM813 1872l2.00098 -5.99902c2.66699 -78.667 -21.833 -142.667 -73.5 -192s-121.5 -74 -209.5 -74c-88.667 0 -158.834 24.667 -210.501 74s-75.834 113.333 -72.501 192l2 6h152
c0 -44.667 10.333 -80.834 31 -108.501s53.334 -41.5 98.001 -41.5c42.667 0 74.5 14 95.5 42s31.5 64 31.5 108h154z" />
    <glyph glyph-name="ebreve" unicode="&#x115;" horiz-adv-x="933" 
d="M508 -21c-134.667 0 -240.166 49.3311 -316.499 147.998s-114.5 227 -114.5 385v47c0 158.667 38 288.834 114 390.501s175.333 152.5 298 152.5c123.333 0 217.166 -43.667 281.499 -131s96.5 -204.666 96.5 -351.999v-114h-587
c0 -110.667 19.833 -200.334 59.5 -269.001s100.5 -103 182.5 -103c56.667 0 106 8.83301 148 26.5s80.667 43.5 116 77.5l66 -126c-36 -37.333 -83.5 -68.666 -142.5 -93.999s-126.167 -38 -201.5 -38zM489.001 945.998c-58.667 0 -105.332 -27.168 -139.999 -81.501
s-56.334 -126.166 -65.001 -215.499h383v23c0 81.333 -14.5 147.333 -43.5 198s-73.833 76 -134.5 76zM753.003 1551l2.00098 -5.99902c2.66699 -78.667 -21.833 -142.667 -73.5 -192s-121.5 -74 -209.5 -74c-88.667 0 -158.834 24.667 -210.501 74
s-75.834 113.333 -72.501 192l2 6h152c0 -44.667 10.333 -80.834 31 -108.501s53.334 -41.5 98.001 -41.5c42.667 0 74.5 14 95.5 42s31.5 64 31.5 108h154z" />
    <glyph glyph-name="Edotaccent" unicode="&#x116;" horiz-adv-x="989" 
d="M836 676h-494v-522h582v-154h-785v1456h780v-156h-577v-469h494v-155zM645 1616h-229v200h229v-200z" />
    <glyph glyph-name="edotaccent" unicode="&#x117;" horiz-adv-x="933" 
d="M508 -21c-134.667 0 -240.166 49.3311 -316.499 147.998s-114.5 227 -114.5 385v47c0 158.667 38 288.834 114 390.501s175.333 152.5 298 152.5c123.333 0 217.166 -43.667 281.499 -131s96.5 -204.666 96.5 -351.999v-114h-587
c0 -110.667 19.833 -200.334 59.5 -269.001s100.5 -103 182.5 -103c56.667 0 106 8.83301 148 26.5s80.667 43.5 116 77.5l66 -126c-36 -37.333 -83.5 -68.666 -142.5 -93.999s-126.167 -38 -201.5 -38zM489.001 945.998c-58.667 0 -105.332 -27.168 -139.999 -81.501
s-56.334 -126.166 -65.001 -215.499h383v23c0 81.333 -14.5 147.333 -43.5 198s-73.833 76 -134.5 76zM585.003 1295h-229v200h229v-200z" />
    <glyph glyph-name="Eogonek" unicode="&#x118;" horiz-adv-x="989" 
d="M836 676h-494v-522h582v-154h-785v1456h780v-156h-577v-469h494v-155zM588 0c-36 -37.333 -62.999 -70.666 -80.999 -99.999s-27 -61.666 -27 -96.999c0 -22 5.5 -41.167 16.5 -57.5s31.5 -24.5 61.5 -24.5c16.667 0 31.667 2.66699 45 8s26 11.666 38 18.999l29 -117
c-20 -12 -42.5 -22.333 -67.5 -31s-54.5 -13 -88.5 -13c-56.667 0 -103.334 17.167 -140.001 51.5s-55 82.166 -55 143.499c0 50.667 15 99.167 45 145.5s75.667 86.833 137 121.5z" />
    <glyph glyph-name="eogonek" unicode="&#x119;" horiz-adv-x="933" 
d="M508 -21c-134.667 0 -240.166 49.3311 -316.499 147.998s-114.5 227 -114.5 385v47c0 158.667 38 288.834 114 390.501s175.333 152.5 298 152.5c123.333 0 217.166 -43.667 281.499 -131s96.5 -204.666 96.5 -351.999v-114h-587
c0 -110.667 19.833 -200.334 59.5 -269.001s100.5 -103 182.5 -103c56.667 0 106 8.83301 148 26.5s80.667 43.5 116 77.5l66 -126c-36 -37.333 -83.5 -68.666 -142.5 -93.999s-126.167 -38 -201.5 -38zM489.001 945.998c-58.667 0 -105.332 -27.168 -139.999 -81.501
s-56.334 -126.166 -65.001 -215.499h383v23c0 81.333 -14.5 147.333 -43.5 198s-73.833 76 -134.5 76zM759.003 53.9971c-36 -37.333 -62.999 -70.666 -80.999 -99.999s-27 -61.666 -27 -96.999c0 -22 5.5 -41.167 16.5 -57.5s31.5 -24.5 61.5 -24.5
c16.667 0 31.667 2.66699 45 8s26 11.666 38 18.999l29 -117c-20 -12 -42.5 -22.333 -67.5 -31s-54.5 -13 -88.5 -13c-56.667 0 -103.334 17.167 -140.001 51.5s-55 82.166 -55 143.499c0 50.667 15 99.167 45 145.5s75.667 86.833 137 121.5z" />
    <glyph glyph-name="Ecaron" unicode="&#x11a;" horiz-adv-x="989" 
d="M836 676h-494v-522h582v-154h-785v1456h780v-156h-577v-469h494v-155zM531 1709l115 150h182v-17l-229 -240h-135l-228 239v18h180z" />
    <glyph glyph-name="ecaron" unicode="&#x11b;" horiz-adv-x="933" 
d="M508 -21c-134.667 0 -240.166 49.3311 -316.499 147.998s-114.5 227 -114.5 385v47c0 158.667 38 288.834 114 390.501s175.333 152.5 298 152.5c123.333 0 217.166 -43.667 281.499 -131s96.5 -204.666 96.5 -351.999v-114h-587
c0 -110.667 19.833 -200.334 59.5 -269.001s100.5 -103 182.5 -103c56.667 0 106 8.83301 148 26.5s80.667 43.5 116 77.5l66 -126c-36 -37.333 -83.5 -68.666 -142.5 -93.999s-126.167 -38 -201.5 -38zM489.001 945.998c-58.667 0 -105.332 -27.168 -139.999 -81.501
s-56.334 -126.166 -65.001 -215.499h383v23c0 81.333 -14.5 147.333 -43.5 198s-73.833 76 -134.5 76zM471.003 1388l115 150h182v-17l-229 -240h-135l-228 239v18h180z" />
    <glyph glyph-name="Gcircumflex" unicode="&#x11c;" horiz-adv-x="1198" 
d="M1068 190c-34.667 -55.333 -89.833 -104.333 -165.5 -147s-173.167 -64 -292.5 -64c-152 0 -274.5 46.333 -367.5 139s-139.5 224.667 -139.5 396v432c0 168.667 45 299.334 135 392.001s209.667 139 359 139c147.333 0 261 -38 341 -114s118.667 -180 116 -312l-2 -6
h-191c0 87.333 -22.167 155.166 -66.5 203.499s-108.833 72.5 -193.5 72.5c-91.333 0 -163.166 -31.833 -215.499 -95.5s-78.5 -156.167 -78.5 -277.5v-434c0 -124 27.167 -218.5 81.5 -283.5s128.166 -97.5 221.499 -97.5c68.667 0 123.5 10.667 164.5 32
s70.833 47.333 89.5 78v339h-268v148h472v-540zM874.001 1642v-22h-164l-126 151l-124 -151h-162v23l225 232h123z" />
    <glyph glyph-name="gcircumflex" unicode="&#x11d;" 
d="M83 528c0 173.333 31.667 312.336 95 417.003s152.666 157 267.999 157c56 0 105.5 -13.5 148.5 -40.5s79.167 -65.5 108.5 -115.5l19 136h170v-1084c0 -138.667 -37 -245.834 -111 -321.501s-178.333 -113.5 -313 -113.5c-46 0 -95.167 7 -147.5 21s-99.5 33 -141.5 57
l33 152c36.667 -20.667 76.5 -36.834 119.5 -48.501s87.833 -17.5 134.5 -17.5c76 0 132 22.5 168 67.5s54 113.167 54 204.5v107c-29.333 -42 -64.166 -73.667 -104.499 -95s-86.833 -32 -139.5 -32c-114 0 -202.667 48.167 -266 144.5s-95 224.166 -95 383.499v21z
M287 507.003c0 -114 16.668 -204.333 50.001 -271s86.333 -100 159 -100c45.333 0 83.833 11.667 115.5 35s57.167 56.333 76.5 99v532c-19.333 44 -44.833 78.667 -76.5 104s-69.834 38 -114.501 38c-72 0 -125 -38.5 -159 -115.5s-51 -177.167 -51 -300.5v-21z
M779.001 1299v-22h-164l-126 151l-124 -151h-162v23l225 232h123z" />
    <glyph glyph-name="Gbreve" unicode="&#x11e;" horiz-adv-x="1198" 
d="M1068 190c-34.667 -55.333 -89.833 -104.333 -165.5 -147s-173.167 -64 -292.5 -64c-152 0 -274.5 46.333 -367.5 139s-139.5 224.667 -139.5 396v432c0 168.667 45 299.334 135 392.001s209.667 139 359 139c147.333 0 261 -38 341 -114s118.667 -180 116 -312l-2 -6
h-191c0 87.333 -22.167 155.166 -66.5 203.499s-108.833 72.5 -193.5 72.5c-91.333 0 -163.166 -31.833 -215.499 -95.5s-78.5 -156.167 -78.5 -277.5v-434c0 -124 27.167 -218.5 81.5 -283.5s128.166 -97.5 221.499 -97.5c68.667 0 123.5 10.667 164.5 32
s70.833 47.333 89.5 78v339h-268v148h472v-540zM866.001 1893l2.00098 -5.99902c2.66699 -78.667 -21.833 -142.667 -73.5 -192s-121.5 -74 -209.5 -74c-88.667 0 -158.834 24.667 -210.501 74s-75.834 113.333 -72.501 192l2 6h152c0 -44.667 10.333 -80.834 31 -108.501
s53.334 -41.5 98.001 -41.5c42.667 0 74.5 14 95.5 42s31.5 64 31.5 108h154z" />
    <glyph glyph-name="gbreve" unicode="&#x11f;" 
d="M83 528c0 173.333 31.667 312.336 95 417.003s152.666 157 267.999 157c56 0 105.5 -13.5 148.5 -40.5s79.167 -65.5 108.5 -115.5l19 136h170v-1084c0 -138.667 -37 -245.834 -111 -321.501s-178.333 -113.5 -313 -113.5c-46 0 -95.167 7 -147.5 21s-99.5 33 -141.5 57
l33 152c36.667 -20.667 76.5 -36.834 119.5 -48.501s87.833 -17.5 134.5 -17.5c76 0 132 22.5 168 67.5s54 113.167 54 204.5v107c-29.333 -42 -64.166 -73.667 -104.499 -95s-86.833 -32 -139.5 -32c-114 0 -202.667 48.167 -266 144.5s-95 224.166 -95 383.499v21z
M287 507.003c0 -114 16.668 -204.333 50.001 -271s86.333 -100 159 -100c45.333 0 83.833 11.667 115.5 35s57.167 56.333 76.5 99v532c-19.333 44 -44.833 78.667 -76.5 104s-69.834 38 -114.501 38c-72 0 -125 -38.5 -159 -115.5s-51 -177.167 -51 -300.5v-21z
M771.001 1550l2.00098 -5.99902c2.66699 -78.667 -21.833 -142.667 -73.5 -192s-121.5 -74 -209.5 -74c-88.667 0 -158.834 24.667 -210.501 74s-75.834 113.333 -72.501 192l2 6h152c0 -44.667 10.333 -80.834 31 -108.501s53.334 -41.5 98.001 -41.5
c42.667 0 74.5 14 95.5 42s31.5 64 31.5 108h154z" />
    <glyph glyph-name="uni0120" unicode="&#x120;" horiz-adv-x="1198" 
d="M1068 190c-34.667 -55.333 -89.833 -104.333 -165.5 -147s-173.167 -64 -292.5 -64c-152 0 -274.5 46.333 -367.5 139s-139.5 224.667 -139.5 396v432c0 168.667 45 299.334 135 392.001s209.667 139 359 139c147.333 0 261 -38 341 -114s118.667 -180 116 -312l-2 -6
h-191c0 87.333 -22.167 155.166 -66.5 203.499s-108.833 72.5 -193.5 72.5c-91.333 0 -163.166 -31.833 -215.499 -95.5s-78.5 -156.167 -78.5 -277.5v-434c0 -124 27.167 -218.5 81.5 -283.5s128.166 -97.5 221.499 -97.5c68.667 0 123.5 10.667 164.5 32
s70.833 47.333 89.5 78v339h-268v148h472v-540zM698.001 1637h-229v200h229v-200z" />
    <glyph glyph-name="uni0121" unicode="&#x121;" 
d="M83 528c0 173.333 31.667 312.336 95 417.003s152.666 157 267.999 157c56 0 105.5 -13.5 148.5 -40.5s79.167 -65.5 108.5 -115.5l19 136h170v-1084c0 -138.667 -37 -245.834 -111 -321.501s-178.333 -113.5 -313 -113.5c-46 0 -95.167 7 -147.5 21s-99.5 33 -141.5 57
l33 152c36.667 -20.667 76.5 -36.834 119.5 -48.501s87.833 -17.5 134.5 -17.5c76 0 132 22.5 168 67.5s54 113.167 54 204.5v107c-29.333 -42 -64.166 -73.667 -104.499 -95s-86.833 -32 -139.5 -32c-114 0 -202.667 48.167 -266 144.5s-95 224.166 -95 383.499v21z
M287 507.003c0 -114 16.668 -204.333 50.001 -271s86.333 -100 159 -100c45.333 0 83.833 11.667 115.5 35s57.167 56.333 76.5 99v532c-19.333 44 -44.833 78.667 -76.5 104s-69.834 38 -114.501 38c-72 0 -125 -38.5 -159 -115.5s-51 -177.167 -51 -300.5v-21z
M603.001 1294h-229v200h229v-200z" />
    <glyph glyph-name="Gcommaaccent" unicode="&#x122;" horiz-adv-x="1198" 
d="M1068 190c-34.667 -55.333 -89.833 -104.333 -165.5 -147s-173.167 -64 -292.5 -64c-152 0 -274.5 46.333 -367.5 139s-139.5 224.667 -139.5 396v432c0 168.667 45 299.334 135 392.001s209.667 139 359 139c147.333 0 261 -38 341 -114s118.667 -180 116 -312l-2 -6
h-191c0 87.333 -22.167 155.166 -66.5 203.499s-108.833 72.5 -193.5 72.5c-91.333 0 -163.166 -31.833 -215.499 -95.5s-78.5 -156.167 -78.5 -277.5v-434c0 -124 27.167 -218.5 81.5 -283.5s128.166 -97.5 221.499 -97.5c68.667 0 123.5 10.667 164.5 32
s70.833 47.333 89.5 78v339h-268v148h472v-540zM660.001 -261l-104 -224h-91l51 231v132h144v-139z" />
    <glyph glyph-name="gcommaaccent" unicode="&#x123;" 
d="M83 528c0 173.333 31.667 312.336 95 417.003s152.666 157 267.999 157c56 0 105.5 -13.5 148.5 -40.5s79.167 -65.5 108.5 -115.5l19 136h170v-1084c0 -138.667 -37 -245.834 -111 -321.501s-178.333 -113.5 -313 -113.5c-46 0 -95.167 7 -147.5 21s-99.5 33 -141.5 57
l33 152c36.667 -20.667 76.5 -36.834 119.5 -48.501s87.833 -17.5 134.5 -17.5c76 0 132 22.5 168 67.5s54 113.167 54 204.5v107c-29.333 -42 -64.166 -73.667 -104.499 -95s-86.833 -32 -139.5 -32c-114 0 -202.667 48.167 -266 144.5s-95 224.166 -95 383.499v21z
M287 507.003c0 -114 16.668 -204.333 50.001 -271s86.333 -100 159 -100c45.333 0 83.833 11.667 115.5 35s57.167 56.333 76.5 99v532c-19.333 44 -44.833 78.667 -76.5 104s-69.834 38 -114.501 38c-72 0 -125 -38.5 -159 -115.5s-51 -177.167 -51 -300.5v-21z
M395.001 1411l98 238h109l-27 -244v-146h-180v152z" />
    <glyph glyph-name="Hcircumflex" unicode="&#x124;" horiz-adv-x="1254" 
d="M1115 0h-203v642h-570v-642h-203v1456h203v-659h570v659h203v-1456zM912 1621v-22h-164l-126 151l-124 -151h-162v23l225 232h123z" />
    <glyph glyph-name="hcircumflex" unicode="&#x125;" 
d="M318 937c30.667 52 68.335 92.501 113.002 121.501s94.667 43.5 150 43.5c98 0 174.667 -36 230 -108s83 -182.667 83 -332v-662h-204v664c0 99.333 -14.333 170.833 -43 214.5s-71 65.5 -127 65.5c-46.667 0 -86.834 -11.333 -120.501 -34
s-60.834 -54.334 -81.501 -95.001v-815h-204v1560h204v-623zM736.001 1620v-22h-164l-126 151l-124 -151h-162v23l225 232h123z" />
    <glyph glyph-name="Hbar" unicode="&#x126;" horiz-adv-x="1251" 
d="M1123 1159h110v-133h-110v-1026h-203v642h-570v-642h-203v1026h-121v133h121v297h203v-297h570v297h203v-297zM350 797h570v229h-570v-229z" />
    <glyph glyph-name="hbar" unicode="&#x127;" 
d="M555 1237l-236.999 0.000976562v-300c30.667 52 68.334 92.5 113.001 121.5s94.667 43.5 150 43.5c98 0 174.667 -36 230 -108s83 -182.667 83 -332v-662h-204v664c0 99.333 -14.333 170.833 -43 214.5s-71 65.5 -127 65.5c-46.667 0 -86.834 -11.333 -120.501 -34
s-60.834 -54.334 -81.501 -95.001v-815h-204v1237h-122v141h122v182h204v-182h237v-141z" />
    <glyph glyph-name="Itilde" unicode="&#x128;" horiz-adv-x="518" 
d="M360 0h-203v1456h203v-1456zM566 1838c0 -61.333 -16.834 -113 -50.501 -155s-76.167 -63 -127.5 -63c-41.333 0 -85.666 16.333 -132.999 49s-85.666 49 -114.999 49c-23.333 0 -42.666 -11.167 -57.999 -33.5s-23 -49.833 -23 -82.5l-111 28
c0 60 16.833 111.667 50.5 155s76.167 65 127.5 65c33.333 0 75.666 -16.5 126.999 -49.5s91.666 -49.5 120.999 -49.5c22 0 41.167 11.333 57.5 34s24.5 50.667 24.5 84z" />
    <glyph glyph-name="itilde" unicode="&#x129;" horiz-adv-x="470" 
d="M334 0h-203v1082h203v-1082zM541 1495c0 -61.333 -16.834 -113 -50.501 -155s-76.167 -63 -127.5 -63c-41.333 0 -85.666 16.333 -132.999 49s-85.666 49 -114.999 49c-23.333 0 -42.666 -11.167 -57.999 -33.5s-23 -49.833 -23 -82.5l-111 28
c0 60 16.833 111.667 50.5 155s76.167 65 127.5 65c33.333 0 75.666 -16.5 126.999 -49.5s91.666 -49.5 120.999 -49.5c22 0 41.167 11.333 57.5 34s24.5 50.667 24.5 84z" />
    <glyph glyph-name="Imacron" unicode="&#x12a;" horiz-adv-x="518" 
d="M360 0h-203v1456h203v-1456zM583 1652h-644v132h644v-132z" />
    <glyph glyph-name="imacron" unicode="&#x12b;" horiz-adv-x="470" 
d="M334 0h-203v1082h203v-1082zM558 1310h-644v132h644v-132z" />
    <glyph glyph-name="Ibreve" unicode="&#x12c;" horiz-adv-x="518" 
d="M360 0h-203v1456h203v-1456zM541 1872l2.00098 -5.99902c2.66699 -78.667 -21.833 -142.667 -73.5 -192s-121.5 -74 -209.5 -74c-88.667 0 -158.834 24.667 -210.501 74s-75.834 113.333 -72.501 192l2 6h152c0 -44.667 10.333 -80.834 31 -108.501
s53.334 -41.5 98.001 -41.5c42.667 0 74.5 14 95.5 42s31.5 64 31.5 108h154z" />
    <glyph glyph-name="ibreve" unicode="&#x12d;" horiz-adv-x="470" 
d="M334 0h-203v1082h203v-1082zM516 1529l2.00098 -5.99902c2.66699 -78.667 -21.833 -142.667 -73.5 -192s-121.5 -74 -209.5 -74c-88.667 0 -158.834 24.667 -210.501 74s-75.834 113.333 -72.501 192l2 6h152c0 -44.667 10.333 -80.834 31 -108.501
s53.334 -41.5 98.001 -41.5c42.667 0 74.5 14 95.5 42s31.5 64 31.5 108h154z" />
    <glyph glyph-name="Iogonek" unicode="&#x12e;" horiz-adv-x="518" 
d="M360 0h-203v1456h203v-1456zM314 0c-36 -37.333 -62.999 -70.666 -80.999 -99.999s-27 -61.666 -27 -96.999c0 -22 5.5 -41.167 16.5 -57.5s31.5 -24.5 61.5 -24.5c16.667 0 31.667 2.66699 45 8s26 11.666 38 18.999l29 -117c-20 -12 -42.5 -22.333 -67.5 -31
s-54.5 -13 -88.5 -13c-56.667 0 -103.334 17.167 -140.001 51.5s-55 82.166 -55 143.499c0 50.667 15 99.167 45 145.5s75.667 86.833 137 121.5z" />
    <glyph glyph-name="iogonek" unicode="&#x12f;" horiz-adv-x="465" 
d="M334 0h-204v1082h204v-1082zM334 1366h-204v194h204v-194zM288 0c-36 -37.333 -62.999 -70.666 -80.999 -99.999s-27 -61.666 -27 -96.999c0 -22 5.5 -41.167 16.5 -57.5s31.5 -24.5 61.5 -24.5c16.667 0 31.667 2.66699 45 8s26 11.666 38 18.999l29 -117
c-20 -12 -42.5 -22.333 -67.5 -31s-54.5 -13 -88.5 -13c-56.667 0 -103.334 17.167 -140.001 51.5s-55 82.166 -55 143.499c0 50.667 15 99.167 45 145.5s75.667 86.833 137 121.5z" />
    <glyph glyph-name="Idotaccent" unicode="&#x130;" horiz-adv-x="518" 
d="M360 0h-203v1456h203v-1456zM372 1616h-229v200h229v-200z" />
    <glyph glyph-name="dotlessi" unicode="&#x131;" horiz-adv-x="470" 
d="M334 0h-203v1082h203v-1082z" />
    <glyph glyph-name="IJ" unicode="&#x132;" horiz-adv-x="1503" 
d="M360 0h-203v1456h203v-1456zM1163 1456h204v-1025c0 -138 -36.667 -247.833 -110 -329.5s-167.666 -122.5 -282.999 -122.5c-124 0 -222.333 36.167 -295 108.5s-107.667 177.833 -105 316.5l3 6h195c0 -94 17.833 -163.667 53.5 -209s85.167 -68 148.5 -68
c55.333 0 100.666 26.833 135.999 80.5s53 126.167 53 217.5v1025z" />
    <glyph glyph-name="ij" unicode="&#x133;" horiz-adv-x="935" 
d="M334 0h-204v1082h204v-1082zM334 1366h-204v194h204v-194zM807 1082l-0.000976562 -1156c0 -116 -26.667 -205.5 -80 -268.5s-127.333 -94.5 -222 -94.5c-20 0 -38.167 1.5 -54.5 4.5s-34.166 7.5 -53.499 13.5l12 155c10.667 -4 23 -7.33301 37 -10s27 -4 39 -4
c36.667 0 65.667 16.833 87 50.5s32 84.834 32 153.501v1156h203zM801.999 1369h-204v191h204v-191z" />
    <glyph glyph-name="Jcircumflex" unicode="&#x134;" horiz-adv-x="985" 
d="M645 1456h204v-1025c0 -138 -36.667 -247.833 -110 -329.5s-167.666 -122.5 -282.999 -122.5c-124 0 -222.333 36.167 -295 108.5s-107.667 177.833 -105 316.5l3 6h195c0 -94 17.833 -163.667 53.5 -209s85.167 -68 148.5 -68c55.333 0 100.666 26.833 135.999 80.5
s53 126.167 53 217.5v1025zM1027 1607v-22h-164l-126 151l-124 -151h-162v23l225 232h123z" />
    <glyph glyph-name="jcircumflex" unicode="&#x135;" horiz-adv-x="482" 
d="M348 1082v-1156c0 -116 -26.667 -205.5 -80 -268.5s-127.333 -94.5 -222 -94.5c-20 0 -38.167 1.5 -54.5 4.5s-34.5 7.5 -54.5 13.5l12 151c10.667 -3.33301 24 -6.33301 40 -9s30.333 -4 43 -4c35.333 0 63 18.167 83 54.5s30 87.166 30 152.499v1156h203zM528 1263v-22
h-164l-126 151l-124 -151h-162v23l225 232h123z" />
    <glyph glyph-name="Kcommaaccent" unicode="&#x136;" horiz-adv-x="1130" 
d="M442 655h-100v-655h-203v1456h203v-638h86l406 638h246l-480 -684l517 -772h-258zM618 -249l-104 -224h-91l51 231v132h144v-139z" />
    <glyph glyph-name="kcommaaccent" unicode="&#x137;" horiz-adv-x="933" 
d="M397 496h-76v-496h-203v1560h203v-909h71l260 431h239l-331 -492l367 -590h-237zM546 -247l-104 -224h-91l51 231v132h144v-139z" />
    <glyph glyph-name="kgreenlandic" unicode="&#x138;" horiz-adv-x="1023" 
d="M425 457h-93v-457h-203v1082h203v-453h79l290 453h254l-369 -507l391 -575h-259z" />
    <glyph glyph-name="Lacute" unicode="&#x139;" horiz-adv-x="987" 
d="M342 154h589v-154h-792v1456h203v-1302zM316 1813h233l3 -5l-242 -261h-170z" />
    <glyph glyph-name="lacute" unicode="&#x13a;" horiz-adv-x="465" 
d="M334 0h-204v1560h204v-1560zM308 1881h233l3 -5l-242 -261h-170z" />
    <glyph glyph-name="Lcommaaccent" unicode="&#x13b;" horiz-adv-x="987" 
d="M342 154h589v-154h-792v1456h203v-1302zM599 -247l-104 -224h-91l51 231v132h144v-139z" />
    <glyph glyph-name="lcommaaccent" unicode="&#x13c;" horiz-adv-x="465" 
d="M334 0h-204v1560h204v-1560zM298 -247l-104 -224h-91l51 231v132h144v-139z" />
    <glyph glyph-name="Lcaron" unicode="&#x13d;" horiz-adv-x="987" 
d="M342 154h589v-154h-792v1456h203v-1302zM711 1317l-104 -224h-91l51 231v132h144v-139z" />
    <glyph glyph-name="lcaron" unicode="&#x13e;" horiz-adv-x="465" 
d="M334 0h-204v1560h204v-1560zM618 1420l-104 -224h-91l51 231v132h144v-139z" />
    <glyph glyph-name="Ldot" unicode="&#x13f;" horiz-adv-x="987" 
d="M342 154h589v-154h-792v1456h203v-1302zM751 684h-229v200h229v-200z" />
    <glyph glyph-name="ldot" unicode="&#x140;" horiz-adv-x="465" 
d="M334 0h-204v1560h204v-1560zM573 668h-229v200h229v-200z" />
    <glyph glyph-name="Lslash" unicode="&#x141;" horiz-adv-x="923" 
d="M335 852l226 79v-151l-226 -79v-547h589v-154h-792v630l-105 -37v151l105 37v675h203v-604z" />
    <glyph glyph-name="lslash" unicode="&#x142;" horiz-adv-x="507" 
d="M354 884l127 53v-151l-127 -53v-733h-204v649l-122 -50v151l122 50v760h204v-676z" />
    <glyph glyph-name="Nacute" unicode="&#x143;" horiz-adv-x="1255" 
d="M1116 0h-204l-564 1074l-6 -2v-1072h-203v1456h203l564 -1071l6 1v1070h204v-1456zM701 1864h233l3 -5l-242 -261h-170z" />
    <glyph glyph-name="nacute" unicode="&#x144;" 
d="M301 1082l11.998 -161c30.667 57.333 69.334 101.833 116.001 133.5s99.667 47.5 159 47.5c96 0 170.833 -35.333 224.5 -106s80.5 -180.667 80.5 -330v-666h-203v665c0 102 -14.167 174 -42.5 216s-71.166 63 -128.499 63c-46.667 0 -86.667 -12.167 -120 -36.5
s-60 -57.833 -80 -100.5v-807h-204v1082h186zM577.998 1542h233l3 -5l-242 -261h-170z" />
    <glyph glyph-name="Ncommaaccent" unicode="&#x145;" horiz-adv-x="1255" 
d="M1116 0h-204l-564 1074l-6 -2v-1072h-203v1456h203l564 -1071l6 1v1070h204v-1456zM691 -247l-104 -224h-91l51 231v132h144v-139z" />
    <glyph glyph-name="ncommaaccent" unicode="&#x146;" 
d="M301 1082l11.998 -161c30.667 57.333 69.334 101.833 116.001 133.5s99.667 47.5 159 47.5c96 0 170.833 -35.333 224.5 -106s80.5 -180.667 80.5 -330v-666h-203v665c0 102 -14.167 174 -42.5 216s-71.166 63 -128.499 63c-46.667 0 -86.667 -12.167 -120 -36.5
s-60 -57.833 -80 -100.5v-807h-204v1082h186zM567.998 -247l-104 -224h-91l51 231v132h144v-139z" />
    <glyph glyph-name="Ncaron" unicode="&#x147;" horiz-adv-x="1255" 
d="M1116 0h-204l-564 1074l-6 -2v-1072h-203v1456h203l564 -1071l6 1v1070h204v-1456zM625 1709l115 150h182v-17l-229 -240h-135l-228 239v18h180z" />
    <glyph glyph-name="ncaron" unicode="&#x148;" 
d="M301 1082l11.998 -161c30.667 57.333 69.334 101.833 116.001 133.5s99.667 47.5 159 47.5c96 0 170.833 -35.333 224.5 -106s80.5 -180.667 80.5 -330v-666h-203v665c0 102 -14.167 174 -42.5 216s-71.166 63 -128.499 63c-46.667 0 -86.667 -12.167 -120 -36.5
s-60 -57.833 -80 -100.5v-807h-204v1082h186zM501.998 1387l115 150h182v-17l-229 -240h-135l-228 239v18h180z" />
    <glyph glyph-name="napostrophe" unicode="&#x149;" 
d="M301 1082l11.998 -161c30.667 57.333 69.334 101.833 116.001 133.5s99.667 47.5 159 47.5c96 0 170.833 -35.333 224.5 -106s80.5 -180.667 80.5 -330v-666h-203v665c0 102 -14.167 174 -42.5 216s-71.166 63 -128.499 63c-46.667 0 -86.667 -12.167 -120 -36.5
s-60 -57.833 -80 -100.5v-807h-204v1082h186zM176.998 1419l-104 -224h-91l51 231v132h144v-139z" />
    <glyph glyph-name="Eng" unicode="&#x14a;" horiz-adv-x="1243" 
d="M1112 1456l-0.000976562 -1530c0 -115.333 -26.833 -204.666 -80.5 -267.999s-127.834 -95 -222.501 -95c-20.667 0 -39.5 1.5 -56.5 4.5s-35.167 7.5 -54.5 13.5l12 151c10.667 -3.33301 24.334 -6.33301 41.001 -9s31.334 -4 44.001 -4c35.333 0 63 18.167 83 54.5
s30 87.166 30 152.499v74l-564 1072l-6 -2v-1070h-204v1456h204l564 -1073l6 2v1071h204z" />
    <glyph glyph-name="eng" unicode="&#x14b;" 
d="M301 1082l12.001 -156c30 56 68.167 99.333 114.5 130s98.5 46 156.5 46c96.667 0 171.834 -35.333 225.501 -106s80.5 -180.667 80.5 -330v-740c0 -116 -26.833 -205.5 -80.5 -268.5s-127.834 -94.5 -222.501 -94.5c-20.667 0 -39.667 1.5 -57 4.5s-35.333 7.5 -54 13.5
l11 157c10.667 -3.33301 24.5 -6.5 41.5 -9.5s31.833 -4.5 44.5 -4.5c36 0 63.833 17.5 83.5 52.5s29.5 84.833 29.5 149.5v739c0 102 -14.333 174 -43 216s-71.667 63 -129 63c-44.667 0 -83.334 -11.5 -116.001 -34.5s-59 -54.5 -79 -94.5v-815h-204v1082h186z" />
    <glyph glyph-name="Omacron" unicode="&#x14c;" horiz-adv-x="1218" 
d="M1119 527c0 -172.667 -46.668 -307.167 -140.001 -403.5s-218.333 -144.5 -375 -144.5c-154.667 0 -277.667 48.167 -369 144.5s-137 230.833 -137 403.5v400c0 172 45.667 306.667 137 404s214 146 368 146c156.667 0 281.834 -48.5 375.501 -145.5
s140.5 -231.833 140.5 -404.5v-400zM916.999 930c0 126.667 -27.168 222.833 -81.501 288.5s-131.833 98.5 -232.5 98.5c-97.333 0 -172.166 -32.833 -224.499 -98.5s-78.5 -161.834 -78.5 -288.501v-403c0 -128 26.333 -225 79 -291s127.667 -99 225 -99
c100.667 0 178 32.833 232 98.5s81 162.834 81 291.501v403zM930.998 1673h-644v132h644v-132z" />
    <glyph glyph-name="omacron" unicode="&#x14d;" 
d="M76 553c0 160.667 38 292.334 114 395.001s180.333 154 313 154s237.167 -51.333 313.5 -154s114.5 -234.334 114.5 -395.001v-27c0 -161.333 -38 -292.833 -114 -394.5s-180 -152.5 -312 -152.5c-134 0 -239 50.833 -315 152.5s-114 233.167 -114 394.5v27zM280 526
c0 -115.333 18.5 -209.668 55.5 -283.001s93.5 -110 169.5 -110c74 0 129.5 36.833 166.5 110.5s55.5 167.834 55.5 282.501v27c0 113.333 -18.667 207.166 -56 281.499s-93.333 111.5 -168 111.5s-130.5 -37.167 -167.5 -111.5s-55.5 -168.166 -55.5 -281.499v-27z
M829 1330h-644v132h644v-132z" />
    <glyph glyph-name="Obreve" unicode="&#x14e;" horiz-adv-x="1218" 
d="M1119 527c0 -172.667 -46.668 -307.167 -140.001 -403.5s-218.333 -144.5 -375 -144.5c-154.667 0 -277.667 48.167 -369 144.5s-137 230.833 -137 403.5v400c0 172 45.667 306.667 137 404s214 146 368 146c156.667 0 281.834 -48.5 375.501 -145.5
s140.5 -231.833 140.5 -404.5v-400zM916.999 930c0 126.667 -27.168 222.833 -81.501 288.5s-131.833 98.5 -232.5 98.5c-97.333 0 -172.166 -32.833 -224.499 -98.5s-78.5 -161.834 -78.5 -288.501v-403c0 -128 26.333 -225 79 -291s127.667 -99 225 -99
c100.667 0 178 32.833 232 98.5s81 162.834 81 291.501v403zM888.998 1893l2.00098 -5.99902c2.66699 -78.667 -21.833 -142.667 -73.5 -192s-121.5 -74 -209.5 -74c-88.667 0 -158.834 24.667 -210.501 74s-75.834 113.333 -72.501 192l2 6h152
c0 -44.667 10.333 -80.834 31 -108.501s53.334 -41.5 98.001 -41.5c42.667 0 74.5 14 95.5 42s31.5 64 31.5 108h154z" />
    <glyph glyph-name="obreve" unicode="&#x14f;" 
d="M76 553c0 160.667 38 292.334 114 395.001s180.333 154 313 154s237.167 -51.333 313.5 -154s114.5 -234.334 114.5 -395.001v-27c0 -161.333 -38 -292.833 -114 -394.5s-180 -152.5 -312 -152.5c-134 0 -239 50.833 -315 152.5s-114 233.167 -114 394.5v27zM280 526
c0 -115.333 18.5 -209.668 55.5 -283.001s93.5 -110 169.5 -110c74 0 129.5 36.833 166.5 110.5s55.5 167.834 55.5 282.501v27c0 113.333 -18.667 207.166 -56 281.499s-93.333 111.5 -168 111.5s-130.5 -37.167 -167.5 -111.5s-55.5 -168.166 -55.5 -281.499v-27z
M787 1550l2.00098 -5.99902c2.66699 -78.667 -21.833 -142.667 -73.5 -192s-121.5 -74 -209.5 -74c-88.667 0 -158.834 24.667 -210.501 74s-75.834 113.333 -72.501 192l2 6h152c0 -44.667 10.333 -80.834 31 -108.501s53.334 -41.5 98.001 -41.5c42.667 0 74.5 14 95.5 42
s31.5 64 31.5 108h154z" />
    <glyph glyph-name="Ohungarumlaut" unicode="&#x150;" horiz-adv-x="1218" 
d="M1119 527c0 -172.667 -46.668 -307.167 -140.001 -403.5s-218.333 -144.5 -375 -144.5c-154.667 0 -277.667 48.167 -369 144.5s-137 230.833 -137 403.5v400c0 172 45.667 306.667 137 404s214 146 368 146c156.667 0 281.834 -48.5 375.501 -145.5
s140.5 -231.833 140.5 -404.5v-400zM916.999 930c0 126.667 -27.168 222.833 -81.501 288.5s-131.833 98.5 -232.5 98.5c-97.333 0 -172.166 -32.833 -224.499 -98.5s-78.5 -161.834 -78.5 -288.501v-403c0 -128 26.333 -225 79 -291s127.667 -99 225 -99
c100.667 0 178 32.833 232 98.5s81 162.834 81 291.501v403zM847.998 1888h210l3 -6l-252 -260h-168l-3 5zM543.998 1888h207l-211 -266h-165z" />
    <glyph glyph-name="ohungarumlaut" unicode="&#x151;" 
d="M76 553c0 160.667 38 292.334 114 395.001s180.333 154 313 154s237.167 -51.333 313.5 -154s114.5 -234.334 114.5 -395.001v-27c0 -161.333 -38 -292.833 -114 -394.5s-180 -152.5 -312 -152.5c-134 0 -239 50.833 -315 152.5s-114 233.167 -114 394.5v27zM280 526
c0 -115.333 18.5 -209.668 55.5 -283.001s93.5 -110 169.5 -110c74 0 129.5 36.833 166.5 110.5s55.5 167.834 55.5 282.501v27c0 113.333 -18.667 207.166 -56 281.499s-93.333 111.5 -168 111.5s-130.5 -37.167 -167.5 -111.5s-55.5 -168.166 -55.5 -281.499v-27z
M746 1545h210l3 -6l-252 -260h-168l-3 5zM442 1545h207l-211 -266h-165z" />
    <glyph glyph-name="OE" unicode="&#x152;" horiz-adv-x="1705" 
d="M1571 676h-494v-522h582v-154h-785v1456h780v-156h-577v-469h494v-155zM592 1477c40 0 80.6689 -1.99902 122.002 -5.99902s84.666 -9 129.999 -15v-160c-39.333 8 -80.333 14.333 -123 19s-85.667 7 -129 7c-92 0 -164.167 -38.5 -216.5 -115.5
s-78.5 -185.167 -78.5 -324.5v-306c0 -140 26.5 -248.667 79.5 -326s125.5 -116 217.5 -116c42.667 0 85.167 2.16699 127.5 6.5s83.166 10.833 122.499 19.5v-160c-52.667 -6.66699 -98 -11.834 -136 -15.501s-76 -5.5 -114 -5.5c-148.667 0 -269.167 55.167 -361.5 165.5
s-138.5 254.166 -138.5 431.499v304c0 176.667 46 320.334 138 431.001s212 166 360 166z" />
    <glyph glyph-name="oe" unicode="&#x153;" horiz-adv-x="1609" 
d="M1288 -21c-97.333 0 -179.832 26.332 -247.499 78.999s-117.167 125.334 -148.5 218.001c-32 -92.667 -81.333 -165.334 -148 -218.001s-146.334 -79 -239.001 -79c-134 0 -239 50.833 -315 152.5s-114 233.167 -114 394.5v27c0 160.667 38 292.334 114 395.001
s180.333 154 313 154c94.667 0 175.334 -27 242.001 -81s116 -128 148 -222c31.333 93.333 79.833 167.166 145.5 221.499s142.5 81.5 230.5 81.5c123.333 0 217.166 -43.667 281.499 -131s96.5 -204.666 96.5 -351.999v-114h-587c0 -110.667 19.833 -200.334 59.5 -269.001
s100.5 -103 182.5 -103c56.667 0 106 8.83301 148 26.5s80.667 43.5 116 77.5l66 -126c-36 -37.333 -83.5 -68.666 -142.5 -93.999s-126.167 -38 -201.5 -38zM280.001 525.999c0 -115.333 18.5 -209.668 55.5 -283.001s93.5 -110 169.5 -110c74 0 129.5 36.833 166.5 110.5
s55.5 167.834 55.5 282.501v27c0 113.333 -18.667 207.166 -56 281.499s-93.333 111.5 -168 111.5s-130.5 -37.167 -167.5 -111.5s-55.5 -168.166 -55.5 -281.499v-27zM1269 945.997c-58.667 0 -105.332 -27.168 -139.999 -81.501s-56.334 -126.166 -65.001 -215.499h383v23
c0 81.333 -14.5 147.333 -43.5 198s-73.833 76 -134.5 76z" />
    <glyph glyph-name="Racute" unicode="&#x154;" horiz-adv-x="1138" 
d="M341 627l0.00195312 -626.998h-203v1455h429c140 0 248.167 -35.667 324.5 -107s114.5 -173.666 114.5 -306.999c0 -76 -17.833 -142.5 -53.5 -199.5s-86.834 -101.167 -153.501 -132.5c74.667 -25.333 128.5 -67.333 161.5 -126s49.5 -131.334 49.5 -218.001v-127
c0 -44.667 4.33301 -86.334 13 -125.001s24 -68.667 46 -90v-23h-209c-22.667 22 -37.5 55.5 -44.5 100.5s-10.5 91.5 -10.5 139.5v123c0 81.333 -18.833 145.666 -56.5 192.999s-89.834 71 -156.501 71h-251zM341.002 782.002l216 0.000976562c84 0 146 22.167 186 66.5
s60 107.166 60 188.499c0 83.333 -19.5 148 -58.5 194s-98.167 69 -177.5 69h-226v-518zM614.002 1864h233l3 -5l-242 -261h-170z" />
    <glyph glyph-name="racute" unicode="&#x155;" horiz-adv-x="630" 
d="M581 913l-88.001 4.99902c-42.667 0 -78.167 -12.833 -106.5 -38.5s-50.166 -61.834 -65.499 -108.501v-771h-204v1082h187l14 -160c24 56.667 54.667 100.834 92 132.501s80.333 47.5 129 47.5c12.667 0 24.5 -1.16699 35.5 -3.5s20.833 -5.16602 29.5 -8.49902z
M435.999 1542h233l3 -5l-242 -261h-170z" />
    <glyph glyph-name="Rcommaaccent" unicode="&#x156;" horiz-adv-x="1138" 
d="M341 627l0.00195312 -626.998h-203v1455h429c140 0 248.167 -35.667 324.5 -107s114.5 -173.666 114.5 -306.999c0 -76 -17.833 -142.5 -53.5 -199.5s-86.834 -101.167 -153.501 -132.5c74.667 -25.333 128.5 -67.333 161.5 -126s49.5 -131.334 49.5 -218.001v-127
c0 -44.667 4.33301 -86.334 13 -125.001s24 -68.667 46 -90v-23h-209c-22.667 22 -37.5 55.5 -44.5 100.5s-10.5 91.5 -10.5 139.5v123c0 81.333 -18.833 145.666 -56.5 192.999s-89.834 71 -156.501 71h-251zM341.002 782.002l216 0.000976562c84 0 146 22.167 186 66.5
s60 107.166 60 188.499c0 83.333 -19.5 148 -58.5 194s-98.167 69 -177.5 69h-226v-518zM604.002 -246.997l-104 -224h-91l51 231v132h144v-139z" />
    <glyph glyph-name="rcommaaccent" unicode="&#x157;" horiz-adv-x="630" 
d="M581 913l-88.001 4.99902c-42.667 0 -78.167 -12.833 -106.5 -38.5s-50.166 -61.834 -65.499 -108.501v-771h-204v1082h187l14 -160c24 56.667 54.667 100.834 92 132.501s80.333 47.5 129 47.5c12.667 0 24.5 -1.16699 35.5 -3.5s20.833 -5.16602 29.5 -8.49902z
M295.999 -246.001l-104 -224h-91l51 231v132h144v-139z" />
    <glyph glyph-name="Rcaron" unicode="&#x158;" horiz-adv-x="1138" 
d="M341 627l0.00195312 -626.998h-203v1455h429c140 0 248.167 -35.667 324.5 -107s114.5 -173.666 114.5 -306.999c0 -76 -17.833 -142.5 -53.5 -199.5s-86.834 -101.167 -153.501 -132.5c74.667 -25.333 128.5 -67.333 161.5 -126s49.5 -131.334 49.5 -218.001v-127
c0 -44.667 4.33301 -86.334 13 -125.001s24 -68.667 46 -90v-23h-209c-22.667 22 -37.5 55.5 -44.5 100.5s-10.5 91.5 -10.5 139.5v123c0 81.333 -18.833 145.666 -56.5 192.999s-89.834 71 -156.501 71h-251zM341.002 782.002l216 0.000976562c84 0 146 22.167 186 66.5
s60 107.166 60 188.499c0 83.333 -19.5 148 -58.5 194s-98.167 69 -177.5 69h-226v-518zM538.002 1709l115 150h182v-17l-229 -240h-135l-228 239v18h180z" />
    <glyph glyph-name="rcaron" unicode="&#x159;" horiz-adv-x="630" 
d="M581 913l-88.001 4.99902c-42.667 0 -78.167 -12.833 -106.5 -38.5s-50.166 -61.834 -65.499 -108.501v-771h-204v1082h187l14 -160c24 56.667 54.667 100.834 92 132.501s80.333 47.5 129 47.5c12.667 0 24.5 -1.16699 35.5 -3.5s20.833 -5.16602 29.5 -8.49902z
M360.999 1387l115 150h182v-17l-229 -240h-135l-228 239v18h180z" />
    <glyph glyph-name="Sacute" unicode="&#x15a;" horiz-adv-x="1094" 
d="M803 366c0 66.667 -18.9961 121.502 -56.9961 164.502s-105 82.167 -201 117.5c-136.667 42.667 -241.667 97.667 -315 165s-110 157 -110 269c0 114.667 40.5 209.167 121.5 283.5s184.833 111.5 311.5 111.5c134.667 0 242.667 -41.333 324 -124
s120.666 -186.334 117.999 -311.001l-2 -6h-195c0 85.333 -22.667 154.333 -68 207s-105 79 -179 79c-72 0 -127.833 -22.667 -167.5 -68s-59.5 -102 -59.5 -170c0 -63.333 21 -115.666 63 -156.999s112.667 -80.333 212 -117c132.667 -43.333 233.667 -100 303 -170
s104 -160.667 104 -272c0 -118.667 -40.833 -213.167 -122.5 -283.5s-188.834 -105.5 -321.501 -105.5c-128 0 -239.333 38 -334 114s-140.334 185 -137.001 327l2 6h196c0 -98.667 26.167 -172.334 78.5 -221.001s117.166 -73 194.499 -73
c75.333 0 134.333 21.167 177 63.5s64 99.166 64 170.499zM622.004 1885h233l3 -5l-242 -261h-170z" />
    <glyph glyph-name="sacute" unicode="&#x15b;" horiz-adv-x="902" 
d="M630 273c0 42 -14 77.166 -42 105.499s-81.667 60.166 -161 95.499c-111.333 42 -194.666 87.667 -249.999 137s-83 112.666 -83 189.999c0 83.333 33.5 154.333 100.5 213s154.167 88 261.5 88c111.333 0 201 -32.167 269 -96.5s100.667 -142.166 98 -233.499l-2 -6
h-196c0 51.333 -15.167 95.5 -45.5 132.5s-71.5 55.5 -123.5 55.5s-92.5 -14.5 -121.5 -43.5s-43.5 -62.833 -43.5 -101.5c0 -41.333 12.5 -73.833 37.5 -97.5s78.5 -54.167 160.5 -91.5c113.333 -40 198.5 -86.333 255.5 -139s85.5 -118.667 85.5 -198
c0 -90 -34.5 -163.167 -103.5 -219.5s-159.5 -84.5 -271.5 -84.5c-121.333 0 -216.833 33.833 -286.5 101.5s-102.834 146.834 -99.501 237.501l2 6h189c2.66699 -70 22.5 -120.5 59.5 -151.5s83.167 -46.5 138.5 -46.5c54 0 96.167 13.833 126.5 41.5
s45.5 62.834 45.5 105.501zM534 1542h233l3 -5l-242 -261h-170z" />
    <glyph glyph-name="Scircumflex" unicode="&#x15c;" horiz-adv-x="1094" 
d="M803 366c0 66.667 -18.9961 121.502 -56.9961 164.502s-105 82.167 -201 117.5c-136.667 42.667 -241.667 97.667 -315 165s-110 157 -110 269c0 114.667 40.5 209.167 121.5 283.5s184.833 111.5 311.5 111.5c134.667 0 242.667 -41.333 324 -124
s120.666 -186.334 117.999 -311.001l-2 -6h-195c0 85.333 -22.667 154.333 -68 207s-105 79 -179 79c-72 0 -127.833 -22.667 -167.5 -68s-59.5 -102 -59.5 -170c0 -63.333 21 -115.666 63 -156.999s112.667 -80.333 212 -117c132.667 -43.333 233.667 -100 303 -170
s104 -160.667 104 -272c0 -118.667 -40.833 -213.167 -122.5 -283.5s-188.834 -105.5 -321.501 -105.5c-128 0 -239.333 38 -334 114s-140.334 185 -137.001 327l2 6h196c0 -98.667 26.167 -172.334 78.5 -221.001s117.166 -73 194.499 -73
c75.333 0 134.333 21.167 177 63.5s64 99.166 64 170.499zM836.004 1642v-22h-164l-126 151l-124 -151h-162v23l225 232h123z" />
    <glyph glyph-name="scircumflex" unicode="&#x15d;" horiz-adv-x="902" 
d="M630 273c0 42 -14 77.166 -42 105.499s-81.667 60.166 -161 95.499c-111.333 42 -194.666 87.667 -249.999 137s-83 112.666 -83 189.999c0 83.333 33.5 154.333 100.5 213s154.167 88 261.5 88c111.333 0 201 -32.167 269 -96.5s100.667 -142.166 98 -233.499l-2 -6
h-196c0 51.333 -15.167 95.5 -45.5 132.5s-71.5 55.5 -123.5 55.5s-92.5 -14.5 -121.5 -43.5s-43.5 -62.833 -43.5 -101.5c0 -41.333 12.5 -73.833 37.5 -97.5s78.5 -54.167 160.5 -91.5c113.333 -40 198.5 -86.333 255.5 -139s85.5 -118.667 85.5 -198
c0 -90 -34.5 -163.167 -103.5 -219.5s-159.5 -84.5 -271.5 -84.5c-121.333 0 -216.833 33.833 -286.5 101.5s-102.834 146.834 -99.501 237.501l2 6h189c2.66699 -70 22.5 -120.5 59.5 -151.5s83.167 -46.5 138.5 -46.5c54 0 96.167 13.833 126.5 41.5
s45.5 62.834 45.5 105.501zM748 1299v-22h-164l-126 151l-124 -151h-162v23l225 232h123z" />
    <glyph glyph-name="Scedilla" unicode="&#x15e;" horiz-adv-x="1094" 
d="M803 366c0 66.667 -18.9961 121.502 -56.9961 164.502s-105 82.167 -201 117.5c-136.667 42.667 -241.667 97.667 -315 165s-110 157 -110 269c0 114.667 40.5 209.167 121.5 283.5s184.833 111.5 311.5 111.5c134.667 0 242.667 -41.333 324 -124
s120.666 -186.334 117.999 -311.001l-2 -6h-195c0 85.333 -22.667 154.333 -68 207s-105 79 -179 79c-72 0 -127.833 -22.667 -167.5 -68s-59.5 -102 -59.5 -170c0 -63.333 21 -115.666 63 -156.999s112.667 -80.333 212 -117c132.667 -43.333 233.667 -100 303 -170
s104 -160.667 104 -272c0 -118.667 -40.833 -213.167 -122.5 -283.5s-188.834 -105.5 -321.501 -105.5c-128 0 -239.333 38 -334 114s-140.334 185 -137.001 327l2 6h196c0 -98.667 26.167 -172.334 78.5 -221.001s117.166 -73 194.499 -73
c75.333 0 134.333 21.167 177 63.5s64 99.166 64 170.499zM625.004 -6.99805l-11 -58c38 -6.66699 69.5 -23.5 94.5 -50.5s37.5 -67.5 37.5 -121.5c0 -65.333 -24.5 -117.333 -73.5 -156s-118.833 -58 -209.5 -58l-5 113c36 0 65.167 8.33301 87.5 25s33.5 42 33.5 76
c0 33.333 -10 56.5 -30 69.5s-54 21.833 -102 26.5l26 134h152z" />
    <glyph glyph-name="scedilla" unicode="&#x15f;" horiz-adv-x="902" 
d="M630 273c0 42 -14 77.166 -42 105.499s-81.667 60.166 -161 95.499c-111.333 42 -194.666 87.667 -249.999 137s-83 112.666 -83 189.999c0 83.333 33.5 154.333 100.5 213s154.167 88 261.5 88c111.333 0 201 -32.167 269 -96.5s100.667 -142.166 98 -233.499l-2 -6
h-196c0 51.333 -15.167 95.5 -45.5 132.5s-71.5 55.5 -123.5 55.5s-92.5 -14.5 -121.5 -43.5s-43.5 -62.833 -43.5 -101.5c0 -41.333 12.5 -73.833 37.5 -97.5s78.5 -54.167 160.5 -91.5c113.333 -40 198.5 -86.333 255.5 -139s85.5 -118.667 85.5 -198
c0 -90 -34.5 -163.167 -103.5 -219.5s-159.5 -84.5 -271.5 -84.5c-121.333 0 -216.833 33.833 -286.5 101.5s-102.834 146.834 -99.501 237.501l2 6h189c2.66699 -70 22.5 -120.5 59.5 -151.5s83.167 -46.5 138.5 -46.5c54 0 96.167 13.833 126.5 41.5
s45.5 62.834 45.5 105.501zM537 -5.00098l-11 -58c38 -6.66699 69.5 -23.5 94.5 -50.5s37.5 -67.5 37.5 -121.5c0 -65.333 -24.5 -117.333 -73.5 -156s-118.833 -58 -209.5 -58l-5 113c36 0 65.167 8.33301 87.5 25s33.5 42 33.5 76c0 33.333 -10 56.5 -30 69.5
s-54 21.833 -102 26.5l26 134h152z" />
    <glyph glyph-name="Scaron" unicode="&#x160;" horiz-adv-x="1094" 
d="M803 366c0 66.667 -18.9961 121.502 -56.9961 164.502s-105 82.167 -201 117.5c-136.667 42.667 -241.667 97.667 -315 165s-110 157 -110 269c0 114.667 40.5 209.167 121.5 283.5s184.833 111.5 311.5 111.5c134.667 0 242.667 -41.333 324 -124
s120.666 -186.334 117.999 -311.001l-2 -6h-195c0 85.333 -22.667 154.333 -68 207s-105 79 -179 79c-72 0 -127.833 -22.667 -167.5 -68s-59.5 -102 -59.5 -170c0 -63.333 21 -115.666 63 -156.999s112.667 -80.333 212 -117c132.667 -43.333 233.667 -100 303 -170
s104 -160.667 104 -272c0 -118.667 -40.833 -213.167 -122.5 -283.5s-188.834 -105.5 -321.501 -105.5c-128 0 -239.333 38 -334 114s-140.334 185 -137.001 327l2 6h196c0 -98.667 26.167 -172.334 78.5 -221.001s117.166 -73 194.499 -73
c75.333 0 134.333 21.167 177 63.5s64 99.166 64 170.499zM546.004 1730l115 150h182v-17l-229 -240h-135l-228 239v18h180z" />
    <glyph glyph-name="scaron" unicode="&#x161;" horiz-adv-x="902" 
d="M630 273c0 42 -14 77.166 -42 105.499s-81.667 60.166 -161 95.499c-111.333 42 -194.666 87.667 -249.999 137s-83 112.666 -83 189.999c0 83.333 33.5 154.333 100.5 213s154.167 88 261.5 88c111.333 0 201 -32.167 269 -96.5s100.667 -142.166 98 -233.499l-2 -6
h-196c0 51.333 -15.167 95.5 -45.5 132.5s-71.5 55.5 -123.5 55.5s-92.5 -14.5 -121.5 -43.5s-43.5 -62.833 -43.5 -101.5c0 -41.333 12.5 -73.833 37.5 -97.5s78.5 -54.167 160.5 -91.5c113.333 -40 198.5 -86.333 255.5 -139s85.5 -118.667 85.5 -198
c0 -90 -34.5 -163.167 -103.5 -219.5s-159.5 -84.5 -271.5 -84.5c-121.333 0 -216.833 33.833 -286.5 101.5s-102.834 146.834 -99.501 237.501l2 6h189c2.66699 -70 22.5 -120.5 59.5 -151.5s83.167 -46.5 138.5 -46.5c54 0 96.167 13.833 126.5 41.5
s45.5 62.834 45.5 105.501zM458 1387l115 150h182v-17l-229 -240h-135l-228 239v18h180z" />
    <glyph glyph-name="Tcommaaccent" unicode="&#x162;" horiz-adv-x="1045" 
d="M1010 1300h-386v-1300h-204v1300h-383v156h973v-156zM590 -247l-104 -224h-91l51 231v132h144v-139z" />
    <glyph glyph-name="tcommaaccent" unicode="&#x163;" horiz-adv-x="614" 
d="M378 1351v-269h169v-145h-169v-644c0 -56 8.5 -95.833 25.5 -119.5s39.5 -35.5 67.5 -35.5c11.333 0 22 1 32 3s21.667 5 35 9l21 -140c-19.333 -9.33301 -40.833 -16.833 -64.5 -22.5s-48.167 -8.5 -73.5 -8.5c-78 0 -138.667 25.167 -182 75.5s-65 129.833 -65 238.5
v644h-143v145h143v269h204zM460 -257l-104 -224h-91l51 231v132h144v-139z" />
    <glyph glyph-name="Tcaron" unicode="&#x164;" horiz-adv-x="1045" 
d="M1010 1300h-386v-1300h-204v1300h-383v156h973v-156zM524 1706l115 150h182v-17l-229 -240h-135l-228 239v18h180z" />
    <glyph glyph-name="tcaron" unicode="&#x165;" horiz-adv-x="614" 
d="M378 1351v-269h169v-145h-169v-644c0 -56 8.5 -95.833 25.5 -119.5s39.5 -35.5 67.5 -35.5c11.333 0 22 1 32 3s21.667 5 35 9l21 -140c-19.333 -9.33301 -40.833 -16.833 -64.5 -22.5s-48.167 -8.5 -73.5 -8.5c-78 0 -138.667 25.167 -182 75.5s-65 129.833 -65 238.5
v644h-143v145h143v269h204zM687 1438l-104 -224h-91l51 231v132h144v-139z" />
    <glyph glyph-name="Tbar" unicode="&#x166;" horiz-adv-x="1045" 
d="M804 805h-180v-805h-204v805h-179v141h179v354h-383v156h973v-156h-386v-354h180v-141z" />
    <glyph glyph-name="tbar" unicode="&#x167;" horiz-adv-x="614" 
d="M378 1351v-269h169v-145h-169v-209h189v-141h-189v-294c0 -56 8.5 -95.833 25.5 -119.5s39.5 -35.5 67.5 -35.5c11.333 0 22 1 32 3s21.667 5 35 9l21 -140c-19.333 -9.33301 -40.833 -16.833 -64.5 -22.5s-48.167 -8.5 -73.5 -8.5c-78 0 -138.667 25.167 -182 75.5
s-65 129.833 -65 238.5v294h-170v141h170v209h-143v145h143v269h204z" />
    <glyph glyph-name="Utilde" unicode="&#x168;" horiz-adv-x="1213" 
d="M1092 1456l0.00195312 -962.998c0 -161.333 -45.333 -287.333 -136 -378s-208.334 -136 -353.001 -136c-142 0 -257.5 45.5 -346.5 136.5s-133.5 216.833 -133.5 377.5v963h203v-963c0 -112.667 25.5 -200.834 76.5 -264.501s117.833 -95.5 200.5 -95.5
c85.333 0 154.166 31.667 206.499 95s78.5 151.666 78.5 264.999v963h204zM916.002 1838c0 -61.333 -16.834 -113 -50.501 -155s-76.167 -63 -127.5 -63c-41.333 0 -85.666 16.333 -132.999 49s-85.666 49 -114.999 49c-23.333 0 -42.666 -11.167 -57.999 -33.5
s-23 -49.833 -23 -82.5l-111 28c0 60 16.833 111.667 50.5 155s76.167 65 127.5 65c33.333 0 75.666 -16.5 126.999 -49.5s91.666 -49.5 120.999 -49.5c22 0 41.167 11.333 57.5 34s24.5 50.667 24.5 84z" />
    <glyph glyph-name="utilde" unicode="&#x169;" 
d="M699 158c-29.333 -57.333 -66.668 -101.499 -112.001 -132.499s-98 -46.5 -158 -46.5c-99.333 0 -177 38.333 -233 115s-84 195.667 -84 357v631h204v-633c0 -116 13.333 -197.167 40 -243.5s67.334 -69.5 122.001 -69.5c50 0 92.5 11.667 127.5 35
s62.5 56.666 82.5 99.999v811h204v-1082h-173zM809.998 1495c0 -61.333 -16.834 -113 -50.501 -155s-76.167 -63 -127.5 -63c-41.333 0 -85.666 16.333 -132.999 49s-85.666 49 -114.999 49c-23.333 0 -42.666 -11.167 -57.999 -33.5s-23 -49.833 -23 -82.5l-111 28
c0 60 16.833 111.667 50.5 155s76.167 65 127.5 65c33.333 0 75.666 -16.5 126.999 -49.5s91.666 -49.5 120.999 -49.5c22 0 41.167 11.333 57.5 34s24.5 50.667 24.5 84z" />
    <glyph glyph-name="Umacron" unicode="&#x16a;" horiz-adv-x="1213" 
d="M1092 1456l0.00195312 -962.998c0 -161.333 -45.333 -287.333 -136 -378s-208.334 -136 -353.001 -136c-142 0 -257.5 45.5 -346.5 136.5s-133.5 216.833 -133.5 377.5v963h203v-963c0 -112.667 25.5 -200.834 76.5 -264.501s117.833 -95.5 200.5 -95.5
c85.333 0 154.166 31.667 206.499 95s78.5 151.666 78.5 264.999v963h204zM933.002 1652h-644v132h644v-132z" />
    <glyph glyph-name="umacron" unicode="&#x16b;" 
d="M699 158c-29.333 -57.333 -66.668 -101.499 -112.001 -132.499s-98 -46.5 -158 -46.5c-99.333 0 -177 38.333 -233 115s-84 195.667 -84 357v631h204v-633c0 -116 13.333 -197.167 40 -243.5s67.334 -69.5 122.001 -69.5c50 0 92.5 11.667 127.5 35
s62.5 56.666 82.5 99.999v811h204v-1082h-173zM826.998 1310h-644v132h644v-132z" />
    <glyph glyph-name="Ubreve" unicode="&#x16c;" horiz-adv-x="1213" 
d="M1092 1456l0.00195312 -962.998c0 -161.333 -45.333 -287.333 -136 -378s-208.334 -136 -353.001 -136c-142 0 -257.5 45.5 -346.5 136.5s-133.5 216.833 -133.5 377.5v963h203v-963c0 -112.667 25.5 -200.834 76.5 -264.501s117.833 -95.5 200.5 -95.5
c85.333 0 154.166 31.667 206.499 95s78.5 151.666 78.5 264.999v963h204zM891.002 1872l2.00098 -5.99902c2.66699 -78.667 -21.833 -142.667 -73.5 -192s-121.5 -74 -209.5 -74c-88.667 0 -158.834 24.667 -210.501 74s-75.834 113.333 -72.501 192l2 6h152
c0 -44.667 10.333 -80.834 31 -108.501s53.334 -41.5 98.001 -41.5c42.667 0 74.5 14 95.5 42s31.5 64 31.5 108h154z" />
    <glyph glyph-name="ubreve" unicode="&#x16d;" 
d="M699 158c-29.333 -57.333 -66.668 -101.499 -112.001 -132.499s-98 -46.5 -158 -46.5c-99.333 0 -177 38.333 -233 115s-84 195.667 -84 357v631h204v-633c0 -116 13.333 -197.167 40 -243.5s67.334 -69.5 122.001 -69.5c50 0 92.5 11.667 127.5 35
s62.5 56.666 82.5 99.999v811h204v-1082h-173zM784.998 1529l2.00098 -5.99902c2.66699 -78.667 -21.833 -142.667 -73.5 -192s-121.5 -74 -209.5 -74c-88.667 0 -158.834 24.667 -210.501 74s-75.834 113.333 -72.501 192l2 6h152c0 -44.667 10.333 -80.834 31 -108.501
s53.334 -41.5 98.001 -41.5c42.667 0 74.5 14 95.5 42s31.5 64 31.5 108h154z" />
    <glyph glyph-name="Uring" unicode="&#x16e;" horiz-adv-x="1213" 
d="M1092 1456l0.00195312 -962.998c0 -161.333 -45.333 -287.333 -136 -378s-208.334 -136 -353.001 -136c-142 0 -257.5 45.5 -346.5 136.5s-133.5 216.833 -133.5 377.5v963h203v-963c0 -112.667 25.5 -200.834 76.5 -264.501s117.833 -95.5 200.5 -95.5
c85.333 0 154.166 31.667 206.499 95s78.5 151.666 78.5 264.999v963h204zM450.002 1736c0 46 15.5 84.833 46.5 116.5s68.833 47.5 113.5 47.5c43.333 0 80.166 -15.833 110.499 -47.5s45.5 -70.5 45.5 -116.5c0 -46.667 -15.167 -85 -45.5 -115s-67.166 -45 -110.499 -45
c-44.667 0 -82.5 15.167 -113.5 45.5s-46.5 68.5 -46.5 114.5zM542.002 1736c0 -22 6.5 -40 19.5 -54s29.167 -21 48.5 -21c18 0 33 7 45 21s18 32 18 54s-6 40.333 -18 55s-27 22 -45 22c-19.333 0 -35.5 -7.33301 -48.5 -22s-19.5 -33 -19.5 -55z" />
    <glyph glyph-name="uring" unicode="&#x16f;" 
d="M699 158c-29.333 -57.333 -66.668 -101.499 -112.001 -132.499s-98 -46.5 -158 -46.5c-99.333 0 -177 38.333 -233 115s-84 195.667 -84 357v631h204v-633c0 -116 13.333 -197.167 40 -243.5s67.334 -69.5 122.001 -69.5c50 0 92.5 11.667 127.5 35
s62.5 56.666 82.5 99.999v811h204v-1082h-173zM343.998 1393c0 46 15.5 84.833 46.5 116.5s68.833 47.5 113.5 47.5c43.333 0 80.166 -15.833 110.499 -47.5s45.5 -70.5 45.5 -116.5c0 -46.667 -15.167 -85 -45.5 -115s-67.166 -45 -110.499 -45
c-44.667 0 -82.5 15.167 -113.5 45.5s-46.5 68.5 -46.5 114.5zM435.998 1393c0 -22 6.5 -40 19.5 -54s29.167 -21 48.5 -21c18 0 33 7 45 21s18 32 18 54s-6 40.333 -18 55s-27 22 -45 22c-19.333 0 -35.5 -7.33301 -48.5 -22s-19.5 -33 -19.5 -55z" />
    <glyph glyph-name="Uhungarumlaut" unicode="&#x170;" horiz-adv-x="1213" 
d="M1092 1456l0.00195312 -962.998c0 -161.333 -45.333 -287.333 -136 -378s-208.334 -136 -353.001 -136c-142 0 -257.5 45.5 -346.5 136.5s-133.5 216.833 -133.5 377.5v963h203v-963c0 -112.667 25.5 -200.834 76.5 -264.501s117.833 -95.5 200.5 -95.5
c85.333 0 154.166 31.667 206.499 95s78.5 151.666 78.5 264.999v963h204zM850.002 1867h210l3 -6l-252 -260h-168l-3 5zM546.002 1867h207l-211 -266h-165z" />
    <glyph glyph-name="uhungarumlaut" unicode="&#x171;" 
d="M699 158c-29.333 -57.333 -66.668 -101.499 -112.001 -132.499s-98 -46.5 -158 -46.5c-99.333 0 -177 38.333 -233 115s-84 195.667 -84 357v631h204v-633c0 -116 13.333 -197.167 40 -243.5s67.334 -69.5 122.001 -69.5c50 0 92.5 11.667 127.5 35
s62.5 56.666 82.5 99.999v811h204v-1082h-173zM743.998 1524h210l3 -6l-252 -260h-168l-3 5zM439.998 1524h207l-211 -266h-165z" />
    <glyph glyph-name="Uogonek" unicode="&#x172;" horiz-adv-x="1213" 
d="M1092 1456l0.00195312 -962.998c0 -161.333 -45.333 -287.333 -136 -378s-208.334 -136 -353.001 -136c-142 0 -257.5 45.5 -346.5 136.5s-133.5 216.833 -133.5 377.5v963h203v-963c0 -112.667 25.5 -200.834 76.5 -264.501s117.833 -95.5 200.5 -95.5
c85.333 0 154.166 31.667 206.499 95s78.5 151.666 78.5 264.999v963h204zM700.002 0.00195312c-36 -37.333 -62.999 -70.666 -80.999 -99.999s-27 -61.666 -27 -96.999c0 -22 5.5 -41.167 16.5 -57.5s31.5 -24.5 61.5 -24.5c16.667 0 31.667 2.66699 45 8
s26 11.666 38 18.999l29 -117c-20 -12 -42.5 -22.333 -67.5 -31s-54.5 -13 -88.5 -13c-56.667 0 -103.334 17.167 -140.001 51.5s-55 82.166 -55 143.499c0 50.667 15 99.167 45 145.5s75.667 86.833 137 121.5z" />
    <glyph glyph-name="uogonek" unicode="&#x173;" 
d="M699 158c-29.333 -57.333 -66.668 -101.499 -112.001 -132.499s-98 -46.5 -158 -46.5c-99.333 0 -177 38.333 -233 115s-84 195.667 -84 357v631h204v-633c0 -116 13.333 -197.167 40 -243.5s67.334 -69.5 122.001 -69.5c50 0 92.5 11.667 127.5 35
s62.5 56.666 82.5 99.999v811h204v-1082h-173zM843.998 0.000976562c-36 -37.333 -62.999 -70.666 -80.999 -99.999s-27 -61.666 -27 -96.999c0 -22 5.5 -41.167 16.5 -57.5s31.5 -24.5 61.5 -24.5c16.667 0 31.667 2.66699 45 8s26 11.666 38 18.999l29 -117
c-20 -12 -42.5 -22.333 -67.5 -31s-54.5 -13 -88.5 -13c-56.667 0 -103.334 17.167 -140.001 51.5s-55 82.166 -55 143.499c0 50.667 15 99.167 45 145.5s75.667 86.833 137 121.5z" />
    <glyph glyph-name="Wcircumflex" unicode="&#x174;" horiz-adv-x="1553" 
d="M1111 421h6l189 1035h213l-299 -1456h-187l-254 1033h-6l-255 -1033h-187l-299 1456h214l190 -1033h6l245 1033h177zM1065 1621v-22h-164l-126 151l-124 -151h-162v23l225 232h123z" />
    <glyph glyph-name="wcircumflex" unicode="&#x175;" horiz-adv-x="1328" 
d="M934 353h6l138 729h204l-252 -1082h-168l-200 702h-6l-194 -702h-169l-253 1082h203l142 -721h6l197 721h146zM951 1278v-22h-164l-126 151l-124 -151h-162v23l225 232h123z" />
    <glyph glyph-name="Ycircumflex" unicode="&#x176;" horiz-adv-x="1127" 
d="M559 746h6l304 710h228l-437 -932v-524h-203v539l-429 917h226zM854 1617v-22h-164l-126 151l-124 -151h-162v23l225 232h123z" />
    <glyph glyph-name="ycircumflex" unicode="&#x177;" horiz-adv-x="903" 
d="M425 373l16.001 -73.002h6l212 782h223l-387 -1250c-24.667 -74 -59 -137.333 -103 -190s-107.333 -79 -190 -79c-16.667 0 -34.667 1.83301 -54 5.5s-38.333 7.83398 -57 12.501l23 150c6.66699 -1.33301 16.5 -2.66602 29.5 -3.99902s23.167 -2 30.5 -2
c40 0 71.667 16.833 95 50.5s41.666 73.5 54.999 119.5l37 112l-341 1075h222zM741.001 1278v-22h-164l-126 151l-124 -151h-162v23l225 232h123z" />
    <glyph glyph-name="Ydieresis" unicode="&#x178;" horiz-adv-x="1127" 
d="M559 746h6l304 710h228l-437 -932v-524h-203v539l-429 917h226zM888 1613h-209v185h209v-185zM452 1613h-209v185h209v-185z" />
    <glyph glyph-name="Zacute" unicode="&#x179;" horiz-adv-x="1005" 
d="M295 154h635v-154h-852v125l613 1176h-607v155h825v-121zM585 1864h233l3 -5l-242 -261h-170z" />
    <glyph glyph-name="zacute" unicode="&#x17a;" horiz-adv-x="903" 
d="M307 154h527v-154h-755v128l499 797h-488v157h721v-126zM533 1521h233l3 -5l-242 -261h-170z" />
    <glyph glyph-name="Zdotaccent" unicode="&#x17b;" horiz-adv-x="1005" 
d="M295 154h635v-154h-852v125l613 1176h-607v155h825v-121zM623 1616h-229v200h229v-200z" />
    <glyph glyph-name="zdotaccent" unicode="&#x17c;" horiz-adv-x="903" 
d="M307 154h527v-154h-755v128l499 797h-488v157h721v-126zM571 1273h-229v200h229v-200z" />
    <glyph glyph-name="Zcaron" unicode="&#x17d;" horiz-adv-x="1005" 
d="M295 154h635v-154h-852v125l613 1176h-607v155h825v-121zM509 1709l115 150h182v-17l-229 -240h-135l-228 239v18h180z" />
    <glyph glyph-name="zcaron" unicode="&#x17e;" horiz-adv-x="903" 
d="M307 154h527v-154h-755v128l499 797h-488v157h721v-126zM457 1366l115 150h182v-17l-229 -240h-135l-228 239v18h180z" />
    <glyph glyph-name="longs" unicode="&#x17f;" horiz-adv-x="458" 
d="M125 0l-0.000976562 1221c0 114.667 27.833 203.334 83.5 266.001s133.5 94 233.5 94c20 0 40.333 -1.83301 61 -5.5s43.667 -8.83398 69 -15.501l-20 -146c-14 3.33301 -27.167 6 -39.5 8s-26.166 3 -41.499 3c-46.667 0 -82.167 -17.833 -106.5 -53.5
s-36.5 -85.834 -36.5 -150.501v-1221h-203z" />
    <glyph glyph-name="florin" unicode="&#x192;" horiz-adv-x="630" 
d="M561 937l-176.999 0.00195312l-1 -1011c0 -116 -26.667 -205.5 -80 -268.5s-127.333 -94.5 -222 -94.5c-20.667 0 -39.5 1.5 -56.5 4.5s-34.167 7.5 -51.5 13.5l11 151c10 -3.33301 23.167 -6.33301 39.5 -9s31.166 -4 44.499 -4c35.333 0 62.833 18.167 82.5 54.5
s29.5 87.166 29.5 152.499v1011h-143v145h143v139c0 114.667 27.667 203.334 83 266.001s133.333 94 234 94c20 0 40.667 -1.83301 62 -5.5s44 -8.83398 68 -15.501l-20 -149c-12 3.33301 -25 6 -39 8s-29.333 3 -46 3c-46 0 -80.5 -17.333 -103.5 -52
s-34.5 -84.334 -34.5 -149.001v-139h177v-145z" />
    <glyph glyph-name="Ohorn" unicode="&#x1a0;" horiz-adv-x="1237" 
d="M1114 527c0 -172.667 -46.668 -307.164 -140.001 -403.497s-218.333 -144.5 -375 -144.5c-154.667 0 -277.667 48.167 -369 144.5s-137 230.833 -137 403.5v400c0 172 45.667 306.667 137 404s214 146 368 146c84 0 159.833 -14.667 227.5 -44
s124.167 -71.333 169.5 -126c56.667 18 99.834 54.667 129.501 110s44.5 126.666 44.5 213.999h169c0 -120 -22.833 -219.333 -68.5 -298s-111.167 -132.667 -196.5 -162c12.667 -36.667 22.667 -75.334 30 -116.001s11 -83.334 11 -128.001v-400zM911.999 930.003
c0 126.667 -27.168 222.833 -81.501 288.5s-131.833 98.5 -232.5 98.5c-97.333 0 -172.166 -32.833 -224.499 -98.5s-78.5 -161.834 -78.5 -288.501v-403c0 -128 26.333 -225 79 -291s127.667 -99 225 -99c100.667 0 178 32.833 232 98.5s81 162.834 81 291.501v403z" />
    <glyph glyph-name="ohorn" unicode="&#x1a1;" horiz-adv-x="1028" 
d="M76 553c0 160.667 38.002 292.333 114.002 395s180.333 154 313 154c61.333 0 117.166 -11.833 167.499 -35.5s94.166 -57.167 131.499 -100.5c42 17.333 73.5 48.833 94.5 94.5s31.5 103.167 31.5 172.5h160c0 -95.333 -18.833 -174.5 -56.5 -237.5
s-92.167 -107.167 -163.5 -132.5c20 -44 35.5 -92.167 46.5 -144.5s16.5 -107.5 16.5 -165.5v-27c0 -161.333 -38 -292.833 -114 -394.5s-180 -152.5 -312 -152.5c-134 0 -239 50.833 -315 152.5s-114 233.167 -114 394.5v27zM280.002 525.999
c0 -115.333 18.5 -209.668 55.5 -283.001s93.5 -110 169.5 -110c74 0 129.5 36.833 166.5 110.5s55.5 167.834 55.5 282.501v27c0 113.333 -18.667 207.166 -56 281.499s-93.333 111.5 -168 111.5s-130.5 -37.167 -167.5 -111.5s-55.5 -168.166 -55.5 -281.499v-27z" />
    <glyph glyph-name="Uhorn" unicode="&#x1af;" horiz-adv-x="1254" 
d="M1092 1456l0.00195312 -178.998l6 -1c51.333 14 89.5 48.833 114.5 104.5s37.5 129.5 37.5 221.5h170c0 -137.333 -27.5 -246.5 -82.5 -327.5s-136.833 -130.833 -245.5 -149.5v-632c0 -161.333 -45.333 -287.333 -136 -378s-208.334 -136 -353.001 -136
c-142 0 -257.5 45.5 -346.5 136.5s-133.5 216.833 -133.5 377.5v963h203v-963c0 -112.667 25.5 -200.834 76.5 -264.501s117.833 -95.5 200.5 -95.5c85.333 0 154.166 31.667 206.499 95s78.5 151.666 78.5 264.999v963h204z" />
    <glyph glyph-name="uhorn" unicode="&#x1b0;" horiz-adv-x="1028" 
d="M1194 1227l2.99805 -4.99902c2 -115.333 -22 -205.333 -72 -270s-127.667 -102.667 -233 -114v-838h-173l-20 158c-29.333 -57.333 -66.666 -101.5 -111.999 -132.5s-98 -46.5 -158 -46.5c-99.333 0 -177 38.333 -233 115s-84 195.667 -84 357v631h204v-633
c0 -116 13.333 -197.167 40 -243.5s67.334 -69.5 122.001 -69.5c50 0 92.5 11.667 127.5 35s62.5 56.666 82.5 99.999v811h204v-117l6 -2c53.333 6.66699 91.5 31.667 114.5 75s34.5 106.333 34.5 189h147z" />
    <glyph glyph-name="uni01F0" unicode="&#x1f0;" horiz-adv-x="482" 
d="M348 1082v-1156c0 -116 -26.667 -205.5 -80 -268.5s-127.333 -94.5 -222 -94.5c-20 0 -38.167 1.5 -54.5 4.5s-34.5 7.5 -54.5 13.5l12 151c10.667 -3.33301 24 -6.33301 40 -9s30.333 -4 43 -4c35.333 0 63 18.167 83 54.5s30 87.166 30 152.499v1156h203zM238 1351
l115 150h182v-17l-229 -240h-135l-228 239v18h180z" />
    <glyph glyph-name="Aringacute" unicode="&#x1fa;" horiz-adv-x="1127" 
d="M783 368h-435l-105 -368h-211l437 1456h197l433 -1456h-211zM394 529h344l-168 592h-6zM653 2100h188l2 -6l-204 -194h-131zM404 1682c0 48 15.5 88 46.5 120s69.167 48 114.5 48c43.333 0 80.333 -16 111 -48s46 -72 46 -120c0 -47.333 -15.167 -86.333 -45.5 -117
s-67.5 -46 -111.5 -46c-45.333 0 -83.5 15.333 -114.5 46s-46.5 69.667 -46.5 117zM488 1682c0 -24.667 7.33301 -45.167 22 -61.5s33 -24.5 55 -24.5c20 0 37.167 8.16699 51.5 24.5s21.5 36.833 21.5 61.5c0 25.333 -7.16699 46.666 -21.5 63.999s-31.5 26 -51.5 26
c-22 0 -40.333 -8.66699 -55 -26s-22 -38.666 -22 -63.999z" />
    <glyph glyph-name="aringacute" unicode="&#x1fb;" horiz-adv-x="967" 
d="M679 0c-8.66699 32.667 -15.498 61.834 -20.498 87.501s-8.16699 51.167 -9.5 76.5c-28.667 -53.333 -66.5 -97.5 -113.5 -132.5s-100.5 -52.5 -160.5 -52.5c-96.667 0 -170.834 28.667 -222.501 86s-77.5 135.666 -77.5 234.999c0 102 35.833 182.333 107.5 241
s171.5 88 299.5 88h166v111c0 66 -14.667 117.5 -44 154.5s-71.333 55.5 -126 55.5c-49.333 0 -88.5 -16 -117.5 -48s-43.5 -73 -43.5 -123l-194 -1l-2 6c-4 84 28.667 158 98 222s160 96 272 96c107.333 0 194.333 -31.5 261 -94.5s100 -152.833 100 -269.5v-502
c0 -41.333 2.66699 -81.5 8 -120.5s13.666 -77.5 24.999 -115.5h-206zM417.002 135c55.333 0 104.333 17.167 147 51.5s70.667 75.833 84 124.5v192h-169c-62.667 0 -111.667 -19.833 -147 -59.5s-53 -87.5 -53 -143.5c0 -50 12 -90 36 -120s58 -45 102 -45zM569.002 1778
h188l2 -6l-204 -194h-131zM320.002 1360c0 48 15.5 88 46.5 120s69.167 48 114.5 48c43.333 0 80.333 -16 111 -48s46 -72 46 -120c0 -47.333 -15.167 -86.333 -45.5 -117s-67.5 -46 -111.5 -46c-45.333 0 -83.5 15.333 -114.5 46s-46.5 69.667 -46.5 117zM404.002 1360
c0 -24.667 7.33301 -45.167 22 -61.5s33 -24.5 55 -24.5c20 0 37.167 8.16699 51.5 24.5s21.5 36.833 21.5 61.5c0 25.333 -7.16699 46.666 -21.5 63.999s-31.5 26 -51.5 26c-22 0 -40.333 -8.66699 -55 -26s-22 -38.666 -22 -63.999z" />
    <glyph glyph-name="AEacute" unicode="&#x1fc;" horiz-adv-x="1699" 
d="M1631 0h-764l-13 361h-425l-167 -361h-242l714 1456h844v-157h-555l17 -467h468v-155h-462l19 -522h566v-155zM508 531h340l-25 667l-5 1zM904 1864h233l3 -5l-242 -261h-170z" />
    <glyph glyph-name="aeacute" unicode="&#x1fd;" horiz-adv-x="1545" 
d="M1112 -21c-76 0 -143.332 15.168 -201.999 45.501s-106.667 73.5 -144 129.5c-34 -50 -81.333 -91.667 -142 -125s-133.334 -50 -218.001 -50c-104 0 -184.167 29 -240.5 87s-84.5 137.333 -84.5 238c0 102 34.667 181.333 104 238s170 85 302 85h179v89
c0 72.667 -13.5 129.167 -40.5 169.5s-65.833 60.5 -116.5 60.5c-54.667 0 -97.667 -18.167 -129 -54.5s-47 -81.166 -47 -134.499l-195 16l-2 6c-3.33301 92.667 29.5 169.667 98.5 231s160.833 92 275.5 92c62 0 117.667 -11.333 167 -34s89.666 -55.334 120.999 -98.001
c35.333 42 77.333 74.5 126 97.5s102 34.5 160 34.5c121.333 0 215.833 -42.833 283.5 -128.5s101.5 -202.5 101.5 -350.5v-124h-594c0.666992 -110.667 21.334 -199.334 62.001 -266.001s103.667 -100 189 -100c56 0 103.167 8.83301 141.5 26.5s78.833 43.167 121.5 76.5
l60 -132c-32.667 -32 -78 -60.833 -136 -86.5s-125 -38.5 -201 -38.5zM445.001 127.001c40 0 81.167 13.167 123.5 39.5s74.833 56.833 97.5 91.5v232h-177c-64.667 0 -115 -18.333 -151 -55s-54 -81.667 -54 -135s13.5 -95.5 40.5 -126.5s67.167 -46.5 120.5 -46.5z
M1084 946.001c-62 0 -110.167 -28 -144.5 -84s-54.833 -130.333 -61.5 -223h390v30c0 82 -15.167 148.667 -45.5 200s-76.5 77 -138.5 77zM850.001 1543h233l3 -5l-242 -261h-170z" />
    <glyph glyph-name="Oslashacute" unicode="&#x1fe;" horiz-adv-x="1219" 
d="M1119 527c0 -172.667 -46.668 -307.166 -140.001 -403.499s-218.333 -144.5 -375 -144.5c-50 0 -97 5.16699 -141 15.5s-84.333 25.833 -121 46.5l-67 -131h-121l99 195c-50.667 46.667 -89.167 105.667 -115.5 177s-39.5 153 -39.5 245v400
c0 172 45.667 306.667 137 404s214 146 368 146c58.667 0 113.834 -7.5 165.501 -22.5s98.5 -36.5 140.5 -64.5l63 122h121l-100 -196c40 -47.333 71 -103.833 93 -169.5s33 -138.834 33 -219.501v-400zM299.999 527.001c0 -49.333 3.66406 -93.499 10.9971 -132.499
s18.333 -71.833 33 -98.5l6 -1l477 933c-27.333 29.333 -59.666 51.5 -96.999 66.5s-79.666 22.5 -126.999 22.5c-97.333 0 -172.166 -32.833 -224.499 -98.5s-78.5 -161.834 -78.5 -288.501v-403zM916.996 930.002c0 36 -2.33301 68.8311 -7 98.498s-11 55.167 -19 76.5
l-5 1l-466 -912c24 -19.333 51.333 -33.666 82 -42.999s64.667 -14 102 -14c100.667 0 178 32.833 232 98.5s81 162.834 81 291.501v403zM689.996 1926h233l3 -5l-242 -261h-170z" />
    <glyph glyph-name="oslashacute" unicode="&#x1ff;" horiz-adv-x="1009" 
d="M76 553c0 160.667 38 292.334 114 395.001s180.333 154 313 154c30.667 0 60 -3.16699 88 -9.5s55 -15.166 81 -26.499l62 147h122l-89 -211c52.667 -48.667 93.167 -111.834 121.5 -189.501s42.5 -164.167 42.5 -259.5v-27c0 -161.333 -38 -292.833 -114 -394.5
s-180 -152.5 -312 -152.5c-29.333 0 -57 2.5 -83 7.5s-50.667 12.167 -74 21.5l-62 -147h-121l87 206c-57.333 47.333 -101 110.666 -131 189.999s-45 169 -45 269v27zM280 526c0 -54 3.83008 -103.834 11.4971 -149.501s19.834 -83.167 36.501 -112.5h6l273 648
c-15.333 10.667 -31.666 19 -48.999 25s-35.666 9 -54.999 9c-74.667 0 -130.5 -37.167 -167.5 -111.5s-55.5 -168.166 -55.5 -281.499v-27zM726.997 552.999c0 48.667 -3.5 93.999 -10.5 135.999s-17.167 77.333 -30.5 106l-6 1l-269 -637
c13.333 -8.66699 27.833 -15.167 43.5 -19.5s32.5 -6.5 50.5 -6.5c74 0 129.5 36.833 166.5 110.5s55.5 167.834 55.5 282.501v27zM544.997 1540h233l3 -5l-242 -261h-170z" />
    <glyph glyph-name="Scommaaccent" unicode="&#x218;" horiz-adv-x="1094" 
d="M803 366c0 66.667 -18.9961 121.502 -56.9961 164.502s-105 82.167 -201 117.5c-136.667 42.667 -241.667 97.667 -315 165s-110 157 -110 269c0 114.667 40.5 209.167 121.5 283.5s184.833 111.5 311.5 111.5c134.667 0 242.667 -41.333 324 -124
s120.666 -186.334 117.999 -311.001l-2 -6h-195c0 85.333 -22.667 154.333 -68 207s-105 79 -179 79c-72 0 -127.833 -22.667 -167.5 -68s-59.5 -102 -59.5 -170c0 -63.333 21 -115.666 63 -156.999s112.667 -80.333 212 -117c132.667 -43.333 233.667 -100 303 -170
s104 -160.667 104 -272c0 -118.667 -40.833 -213.167 -122.5 -283.5s-188.834 -105.5 -321.501 -105.5c-128 0 -239.333 38 -334 114s-140.334 185 -137.001 327l2 6h196c0 -98.667 26.167 -172.334 78.5 -221.001s117.166 -73 194.499 -73
c75.333 0 134.333 21.167 177 63.5s64 99.166 64 170.499zM612.004 -266.998l-104 -224h-91l51 231v132h144v-139z" />
    <glyph glyph-name="scommaaccent" unicode="&#x219;" horiz-adv-x="902" 
d="M630 273c0 42 -14 77.166 -42 105.499s-81.667 60.166 -161 95.499c-111.333 42 -194.666 87.667 -249.999 137s-83 112.666 -83 189.999c0 83.333 33.5 154.333 100.5 213s154.167 88 261.5 88c111.333 0 201 -32.167 269 -96.5s100.667 -142.166 98 -233.499l-2 -6
h-196c0 51.333 -15.167 95.5 -45.5 132.5s-71.5 55.5 -123.5 55.5s-92.5 -14.5 -121.5 -43.5s-43.5 -62.833 -43.5 -101.5c0 -41.333 12.5 -73.833 37.5 -97.5s78.5 -54.167 160.5 -91.5c113.333 -40 198.5 -86.333 255.5 -139s85.5 -118.667 85.5 -198
c0 -90 -34.5 -163.167 -103.5 -219.5s-159.5 -84.5 -271.5 -84.5c-121.333 0 -216.833 33.833 -286.5 101.5s-102.834 146.834 -99.501 237.501l2 6h189c2.66699 -70 22.5 -120.5 59.5 -151.5s83.167 -46.5 138.5 -46.5c54 0 96.167 13.833 126.5 41.5
s45.5 62.834 45.5 105.501zM524 -265.001l-104 -224h-91l51 231v132h144v-139z" />
    <glyph glyph-name="uni0237" unicode="&#x237;" horiz-adv-x="482" 
d="M348 1082v-1156c0 -116 -26.667 -205.5 -80 -268.5s-127.333 -94.5 -222 -94.5c-20 0 -38.167 1.5 -54.5 4.5s-34.5 7.5 -54.5 13.5l12 151c10.667 -3.33301 24 -6.33301 40 -9s30.333 -4 43 -4c35.333 0 63 18.167 83 54.5s30 87.166 30 152.499v1156h203z" />
    <glyph glyph-name="uni02BC" unicode="&#x2bc;" horiz-adv-x="471" 
d="M330 1248l-85 -311h-101l3 309v210h183v-208z" />
    <glyph glyph-name="circumflex" unicode="&#x2c6;" horiz-adv-x="861" 
d="M714 1274v-22h-164l-126 151l-124 -151h-162v23l225 232h123z" />
    <glyph glyph-name="caron" unicode="&#x2c7;" horiz-adv-x="817" 
d="M404 1359l115 150h182v-17l-229 -240h-135l-228 239v18h180z" />
    <glyph glyph-name="breve" unicode="&#x2d8;" horiz-adv-x="814" 
d="M684 1456l2.00098 -5.99902c2.66699 -78.667 -21.833 -142.667 -73.5 -192s-121.5 -74 -209.5 -74c-88.667 0 -158.834 24.667 -210.501 74s-75.834 113.333 -72.501 192l2 6h152c0 -44.667 10.333 -80.834 31 -108.501s53.334 -41.5 98.001 -41.5
c42.667 0 74.5 14 95.5 42s31.5 64 31.5 108h154z" />
    <glyph glyph-name="dotaccent" unicode="&#x2d9;" horiz-adv-x="516" 
d="M363 1259h-229v200h229v-200z" />
    <glyph glyph-name="ring" unicode="&#x2da;" horiz-adv-x="629" 
d="M154 1313c0 46 15.5 84.833 46.5 116.5s68.833 47.5 113.5 47.5c43.333 0 80.166 -15.833 110.499 -47.5s45.5 -70.5 45.5 -116.5c0 -46.667 -15.167 -85 -45.5 -115s-67.166 -45 -110.499 -45c-44.667 0 -82.5 15.167 -113.5 45.5s-46.5 68.5 -46.5 114.5zM246 1313
c0 -22 6.5 -40 19.5 -54s29.167 -21 48.5 -21c18 0 33 7 45 21s18 32 18 54s-6 40.333 -18 55s-27 22 -45 22c-19.333 0 -35.5 -7.33301 -48.5 -22s-19.5 -33 -19.5 -55z" />
    <glyph glyph-name="ogonek" unicode="&#x2db;" horiz-adv-x="516" 
d="M343 0c-36 -37.333 -62.999 -70.666 -80.999 -99.999s-27 -61.666 -27 -96.999c0 -22 5.5 -41.167 16.5 -57.5s31.5 -24.5 61.5 -24.5c16.667 0 31.667 2.66699 45 8s26 11.666 38 18.999l29 -117c-20 -12 -42.5 -22.333 -67.5 -31s-54.5 -13 -88.5 -13
c-56.667 0 -103.334 17.167 -140.001 51.5s-55 82.166 -55 143.499c0 50.667 15 99.167 45 145.5s75.667 86.833 137 121.5z" />
    <glyph glyph-name="tilde" unicode="&#x2dc;" horiz-adv-x="849" 
d="M730 1484c0 -61.333 -16.834 -113 -50.501 -155s-76.167 -63 -127.5 -63c-41.333 0 -85.666 16.333 -132.999 49s-85.666 49 -114.999 49c-23.333 0 -42.666 -11.167 -57.999 -33.5s-23 -49.833 -23 -82.5l-111 28c0 60 16.833 111.667 50.5 155s76.167 65 127.5 65
c33.333 0 75.666 -16.5 126.999 -49.5s91.666 -49.5 120.999 -49.5c22 0 41.167 11.333 57.5 34s24.5 50.667 24.5 84z" />
    <glyph glyph-name="hungarumlaut" unicode="&#x2dd;" horiz-adv-x="720" 
d="M586 1518h210l3 -6l-252 -260h-168l-3 5zM282 1518h207l-211 -266h-165z" />
    <glyph glyph-name="uni02F3" unicode="&#x2f3;" horiz-adv-x="586" 
d="M153 -228c0 42 14 77.167 42 105.5s62.333 42.5 103 42.5c40 0 73.833 -14.167 101.5 -42.5s41.5 -63.5 41.5 -105.5c0 -41.333 -13.833 -75.666 -41.5 -102.999s-61.5 -41 -101.5 -41c-40.667 0 -75 13.667 -103 41s-42 61.666 -42 102.999zM238 -228
c0 -18 5.66699 -33.333 17 -46s25.666 -19 42.999 -19c16 0 29.5 6.16699 40.5 18.5s16.5 27.833 16.5 46.5c0 20 -5.5 36.333 -16.5 49s-24.5 19 -40.5 19c-17.333 0 -31.666 -6.33301 -42.999 -19s-17 -29 -17 -49z" />
    <glyph glyph-name="gravecomb" unicode="&#x300;" horiz-adv-x="14" 
d="M-517.127 1264.03h-123.373l-161.709 344.602l1.39453 6.60156h163.8z" />
    <glyph glyph-name="acutecomb" unicode="&#x301;" horiz-adv-x="14" 
d="M-528.658 1616.16h159.064l2.04785 -6.62109l-165.208 -345.621h-116.056z" />
    <glyph glyph-name="tildecomb" unicode="&#x303;" horiz-adv-x="14" 
d="M-289 1484c0 -61.333 -16.834 -113 -50.501 -155s-76.167 -63 -127.5 -63c-41.333 0 -85.666 16.333 -132.999 49s-85.666 49 -114.999 49c-23.333 0 -42.666 -11.167 -57.999 -33.5s-23 -49.833 -23 -82.5l-111 28c0 60 16.833 111.667 50.5 155s76.167 65 127.5 65
c33.333 0 75.666 -16.5 126.999 -49.5s91.666 -49.5 120.999 -49.5c22 0 41.167 11.333 57.5 34s24.5 50.667 24.5 84z" />
    <glyph glyph-name="hook" unicode="&#x309;" horiz-adv-x="13" 
d="M-582 1245l-7 137c44 3.33301 75.5 10.833 94.5 22.5s28.5 30.5 28.5 56.5c0 28.667 -12 49.5 -36 62.5s-56.667 19.5 -98 19.5l6 103c94.667 0 167.5 -16.5 218.5 -49.5s76.5 -77.833 76.5 -134.5c0 -46 -12.667 -81.5 -38 -106.5s-57 -40.167 -95 -45.5v-65h-150z" />
    <glyph glyph-name="uni030F" unicode="&#x30f;" horiz-adv-x="13" 
d="M-437 1257l-3 -5h-168l-251 260l3 6h210zM-173 1252h-166l-211 266h208z" />
    <glyph glyph-name="dotbelow" unicode="&#x323;" horiz-adv-x="13" 
d="M-392 -333h-229v200h229v-200z" />
    <glyph glyph-name="tonos" unicode="&#x384;" horiz-adv-x="539" 
d="M240 1540h203l-148 -256h-95z" />
    <glyph glyph-name="dieresistonos" unicode="&#x385;" horiz-adv-x="940" 
d="M786 1274h-191v182h191v-182zM333 1274h-191v182h191v-182zM442 1722h211l-129 -250h-120z" />
    <glyph glyph-name="Alphatonos" unicode="&#x386;" horiz-adv-x="1127" 
d="M783 368h-435l-105 -368h-211l437 1456h197l433 -1456h-211zM394 529h344l-168 592h-6zM174 1540h203l-148 -256h-95z" />
    <glyph glyph-name="anoteleia" unicode="&#x387;" horiz-adv-x="509" 
d="M351 606h-206v214h206v-214z" />
    <glyph glyph-name="Epsilontonos" unicode="&#x388;" horiz-adv-x="989" 
d="M836 676h-494v-522h582v-154h-785v1456h780v-156h-577v-469h494v-155zM-107 1542h203l-148 -256h-95z" />
    <glyph glyph-name="Etatonos" unicode="&#x389;" horiz-adv-x="1254" 
d="M1115 0h-203v642h-570v-642h-203v1456h203v-659h570v659h203v-1456zM-69 1540h203l-148 -256h-95z" />
    <glyph glyph-name="Iotatonos" unicode="&#x38a;" horiz-adv-x="518" 
d="M360 0h-203v1456h203v-1456zM-59 1540h203l-148 -256h-95z" />
    <glyph glyph-name="Omicrontonos" unicode="&#x38c;" horiz-adv-x="1218" 
d="M1119 527c0 -172.667 -46.668 -307.167 -140.001 -403.5s-218.333 -144.5 -375 -144.5c-154.667 0 -277.667 48.167 -369 144.5s-137 230.833 -137 403.5v400c0 172 45.667 306.667 137 404s214 146 368 146c156.667 0 281.834 -48.5 375.501 -145.5
s140.5 -231.833 140.5 -404.5v-400zM916.999 930c0 126.667 -27.168 222.833 -81.501 288.5s-131.833 98.5 -232.5 98.5c-97.333 0 -172.166 -32.833 -224.499 -98.5s-78.5 -161.834 -78.5 -288.501v-403c0 -128 26.333 -225 79 -291s127.667 -99 225 -99
c100.667 0 178 32.833 232 98.5s81 162.834 81 291.501v403zM64.998 1540h203l-148 -256h-95z" />
    <glyph glyph-name="Upsilontonos" unicode="&#x38e;" horiz-adv-x="1127" 
d="M559 746h6l304 710h228l-437 -932v-524h-203v539l-429 917h226zM-157 1540h203l-148 -256h-95z" />
    <glyph glyph-name="Omegatonos" unicode="&#x38f;" horiz-adv-x="1189" 
d="M640 164c67.333 24 120.001 83.332 158.001 177.999s57 226.334 57 395.001v111c0 148 -24.167 263.667 -72.5 347s-114.166 125 -197.499 125c-82.667 0 -147.834 -41.667 -195.501 -125s-71.5 -199 -71.5 -347v-111c0 -169.333 19.5 -301.333 58.5 -396
s92.833 -153.667 161.5 -177v-164h-426v155h239c-75.333 60 -135.833 141.5 -181.5 244.5s-68.5 215.5 -68.5 337.5v109c0 186.667 44.667 338.5 134 455.5s206 175.5 350 175.5c144.667 0 262 -58.5 352 -175.5s135 -268.833 135 -455.5v-109
c0 -122 -22.833 -234.5 -68.5 -337.5s-105.834 -184.5 -180.501 -244.5h244v-155h-427v164zM53.001 1540h203l-148 -256h-95z" />
    <glyph glyph-name="iotadieresistonos" unicode="&#x390;" horiz-adv-x="589" 
d="M352 1081v-794.999c0 -56 7.33301 -95 22 -117s35.667 -33 63 -33c15.333 0 28.5 1.5 39.5 4.5s25.5 8.16699 43.5 15.5l30 -138c-26 -14.667 -51.167 -24.834 -75.5 -30.501s-51.833 -8.5 -82.5 -8.5c-79.333 0 -139.833 25 -181.5 75s-62.5 129.667 -62.5 239v788h204z
M576 1203h-191v182h191v-182zM123 1203h-191v182h191v-182zM232 1651h211l-129 -250h-120z" />
    <glyph glyph-name="Alpha" unicode="&#x391;" horiz-adv-x="1127" 
d="M783 368h-435l-105 -368h-211l437 1456h197l433 -1456h-211zM394 529h344l-168 592h-6z" />
    <glyph glyph-name="Beta" unicode="&#x392;" horiz-adv-x="1130" 
d="M139 0v1456h403c139.333 0 248.166 -32.667 326.499 -98s117.5 -163.333 117.5 -294c0 -68 -17 -128.333 -51 -181s-81.333 -91.334 -142 -116.001c84.667 -14 149.834 -54.167 195.501 -120.5s68.5 -144.5 68.5 -234.5c0 -134 -38.5 -236.167 -115.5 -306.5
s-183.167 -105.5 -318.5 -105.5h-484zM342 679.001v-525h281c73.333 0 130 22.167 170 66.5s60 107.833 60 190.5c0 80 -19.5 144 -58.5 192s-93.833 73.333 -164.5 76h-11h-277zM342 825.001h231.001c65.333 2 116.5 23.167 153.5 63.5s55.5 97.5 55.5 171.5
c0 80 -20.333 140 -61 180s-100.334 60 -179.001 60h-200v-475z" />
    <glyph glyph-name="Gamma" unicode="&#x393;" horiz-adv-x="985" 
d="M925 1300h-587v-1300h-204v1456h791v-156z" />
    <glyph glyph-name="Delta" unicode="&#x394;" horiz-adv-x="1276" 
d="M546 1456h197l496 -1456h-1209zM293 154h684l-331 1014h-6z" />
    <glyph glyph-name="Delta" unicode="&#x2206;" horiz-adv-x="1276" 
d="M546 1456h197l496 -1456h-1209zM293 154h684l-331 1014h-6z" />
    <glyph glyph-name="Epsilon" unicode="&#x395;" horiz-adv-x="989" 
d="M836 676h-494v-522h582v-154h-785v1456h780v-156h-577v-469h494v-155z" />
    <glyph glyph-name="Zeta" unicode="&#x396;" horiz-adv-x="1005" 
d="M295 154h635v-154h-852v125l613 1176h-607v155h825v-121z" />
    <glyph glyph-name="Eta" unicode="&#x397;" horiz-adv-x="1254" 
d="M1115 0h-203v642h-570v-642h-203v1456h203v-659h570v659h203v-1456z" />
    <glyph glyph-name="Theta" unicode="&#x398;" horiz-adv-x="1219" 
d="M807 652h-386v154h386v-154zM1119 527c0 -172.667 -46.668 -307.167 -140.001 -403.5s-218.333 -144.5 -375 -144.5c-154.667 0 -277.667 48.167 -369 144.5s-137 230.833 -137 403.5v400c0 172 45.667 306.667 137 404s214 146 368 146
c156.667 0 281.834 -48.5 375.501 -145.5s140.5 -231.833 140.5 -404.5v-400zM916.999 930c0 126.667 -27.168 222.833 -81.501 288.5s-131.833 98.5 -232.5 98.5c-97.333 0 -172.166 -32.833 -224.499 -98.5s-78.5 -161.834 -78.5 -288.501v-403
c0 -128 26.333 -225 79 -291s127.667 -99 225 -99c100.667 0 178 32.833 232 98.5s81 162.834 81 291.501v403z" />
    <glyph glyph-name="Iota" unicode="&#x399;" horiz-adv-x="518" 
d="M360 0h-203v1456h203v-1456z" />
    <glyph glyph-name="Kappa" unicode="&#x39a;" horiz-adv-x="1130" 
d="M442 655h-100v-655h-203v1456h203v-638h86l406 638h246l-480 -684l517 -772h-258z" />
    <glyph glyph-name="Lambda" unicode="&#x39b;" horiz-adv-x="1161" 
d="M580 1192h-6l-325 -1192h-211l441 1456h198l441 -1456h-211z" />
    <glyph glyph-name="Mu" unicode="&#x39c;" horiz-adv-x="1494" 
d="M746 268h6l349 1188h260v-1456h-202v1049l-6 1l-334 -1050h-139l-339 1066l-6 -1v-1065h-202v1456h265z" />
    <glyph glyph-name="Nu" unicode="&#x39d;" horiz-adv-x="1255" 
d="M1116 0h-204l-564 1074l-6 -2v-1072h-203v1456h203l564 -1071l6 1v1070h204v-1456z" />
    <glyph glyph-name="Xi" unicode="&#x39e;" horiz-adv-x="1015" 
d="M101 154h823v-154h-823v154zM186 817h648v-152h-648v152zM111 1456h788v-155h-788v155z" />
    <glyph glyph-name="Omicron" unicode="&#x39f;" horiz-adv-x="1218" 
d="M1119 527c0 -172.667 -46.668 -307.167 -140.001 -403.5s-218.333 -144.5 -375 -144.5c-154.667 0 -277.667 48.167 -369 144.5s-137 230.833 -137 403.5v400c0 172 45.667 306.667 137 404s214 146 368 146c156.667 0 281.834 -48.5 375.501 -145.5
s140.5 -231.833 140.5 -404.5v-400zM916.999 930c0 126.667 -27.168 222.833 -81.501 288.5s-131.833 98.5 -232.5 98.5c-97.333 0 -172.166 -32.833 -224.499 -98.5s-78.5 -161.834 -78.5 -288.501v-403c0 -128 26.333 -225 79 -291s127.667 -99 225 -99
c100.667 0 178 32.833 232 98.5s81 162.834 81 291.501v403z" />
    <glyph glyph-name="Pi" unicode="&#x3a0;" horiz-adv-x="1253" 
d="M1115 0h-203v1300h-571v-1300h-204v1456h978v-1456z" />
    <glyph glyph-name="Rho" unicode="&#x3a1;" horiz-adv-x="1130" 
d="M342 574v-573.999h-203v1456h473c138 0 246.167 -40.5 324.5 -121.5s117.5 -187.5 117.5 -319.5c0 -132.667 -39.167 -239.334 -117.5 -320.001s-186.5 -121 -324.5 -121h-270zM342 730.001h269.998c78.667 0 138.334 26.833 179.001 80.5s61 121.167 61 202.5
c0 82 -20.167 150.333 -60.5 205s-100.166 82 -179.499 82h-270v-570z" />
    <glyph glyph-name="Sigma" unicode="&#x3a3;" horiz-adv-x="1015" 
d="M682 729l-373 -575h641v-154h-883v126l399 615l-399 588v127h850v-155h-604l369 -545v-27z" />
    <glyph glyph-name="Tau" unicode="&#x3a4;" horiz-adv-x="1045" 
d="M1010 1300h-386v-1300h-204v1300h-383v156h973v-156z" />
    <glyph glyph-name="Upsilon" unicode="&#x3a5;" horiz-adv-x="1127" 
d="M559 746h6l304 710h228l-437 -932v-524h-203v539l-429 917h226z" />
    <glyph glyph-name="Phi" unicode="&#x3a6;" horiz-adv-x="1280" 
d="M747 1236c137.333 -7.33301 250.166 -58.6689 338.499 -154.002s132.5 -215.666 132.5 -360.999s-44.167 -265.666 -132.5 -360.999s-201.166 -146.333 -338.499 -153v-207h-204v207c-139.333 6 -253 56.333 -341 151s-132 215 -132 361s44.167 267 132.5 363
s201.833 147.333 340.5 154v220h204v-220zM270 718.997c0 -104 23.833 -187.167 71.5 -249.5s112.834 -94.5 195.501 -96.5l6 2v693l-6 2c-82.667 -3.33301 -147.834 -36.833 -195.501 -100.5s-71.5 -147.167 -71.5 -250.5zM1017 720.997
c0 102.667 -23.833 185.5 -71.5 248.5s-111.834 96.5 -192.501 100.5l-6 -2v-693l6 -2c80.667 2.66699 144.834 35.5 192.501 98.5s71.5 146.167 71.5 249.5z" />
    <glyph glyph-name="Chi" unicode="&#x3a7;" horiz-adv-x="1127" 
d="M560 887h6l267 569h240l-386 -721l402 -735h-244l-276 582h-6l-275 -582h-241l396 735l-386 721h238z" />
    <glyph glyph-name="Psi" unicode="&#x3a8;" horiz-adv-x="1261" 
d="M725 507l6 -1.99902c76 11.333 135.667 51.833 179 121.5s65 162.5 65 278.5v551h204v-551c0 -164.667 -41.167 -296.334 -123.5 -395.001s-192.5 -155.667 -330.5 -171v-339h-203v338c-138 14.667 -247.667 71.5 -329 170.5s-122 231.167 -122 396.5v551h203v-551
c0 -114 21.667 -205.667 65 -275s102.333 -110.333 177 -123l6 2v947h203v-949z" />
    <glyph glyph-name="Omega" unicode="&#x3a9;" horiz-adv-x="1189" 
d="M640 164c67.333 24 120.001 83.332 158.001 177.999s57 226.334 57 395.001v111c0 148 -24.167 263.667 -72.5 347s-114.166 125 -197.499 125c-82.667 0 -147.834 -41.667 -195.501 -125s-71.5 -199 -71.5 -347v-111c0 -169.333 19.5 -301.333 58.5 -396
s92.833 -153.667 161.5 -177v-164h-426v155h239c-75.333 60 -135.833 141.5 -181.5 244.5s-68.5 215.5 -68.5 337.5v109c0 186.667 44.667 338.5 134 455.5s206 175.5 350 175.5c144.667 0 262 -58.5 352 -175.5s135 -268.833 135 -455.5v-109
c0 -122 -22.833 -234.5 -68.5 -337.5s-105.834 -184.5 -180.501 -244.5h244v-155h-427v164z" />
    <glyph glyph-name="Omega" unicode="&#x2126;" horiz-adv-x="1189" 
d="M640 164c67.333 24 120.001 83.332 158.001 177.999s57 226.334 57 395.001v111c0 148 -24.167 263.667 -72.5 347s-114.166 125 -197.499 125c-82.667 0 -147.834 -41.667 -195.501 -125s-71.5 -199 -71.5 -347v-111c0 -169.333 19.5 -301.333 58.5 -396
s92.833 -153.667 161.5 -177v-164h-426v155h239c-75.333 60 -135.833 141.5 -181.5 244.5s-68.5 215.5 -68.5 337.5v109c0 186.667 44.667 338.5 134 455.5s206 175.5 350 175.5c144.667 0 262 -58.5 352 -175.5s135 -268.833 135 -455.5v-109
c0 -122 -22.833 -234.5 -68.5 -337.5s-105.834 -184.5 -180.501 -244.5h244v-155h-427v164z" />
    <glyph glyph-name="Iotadieresis" unicode="&#x3aa;" horiz-adv-x="518" 
d="M360 0h-203v1456h203v-1456zM583 1617h-209v185h209v-185zM147 1617h-209v185h209v-185z" />
    <glyph glyph-name="Upsilondieresis" unicode="&#x3ab;" horiz-adv-x="1127" 
d="M559 746h6l304 710h228l-437 -932v-524h-203v539l-429 917h226zM888 1613h-209v185h209v-185zM452 1613h-209v185h209v-185z" />
    <glyph glyph-name="alphatonos" unicode="&#x3ac;" 
d="M877 1081l0.00195312 -799c0 -52.667 5.5 -89.167 16.5 -109.5s27.5 -30.5 49.5 -30.5c7.33301 0 14.166 0.5 20.499 1.5s12.833 2.83301 19.5 5.5l20 -143c-18 -10 -35.833 -17 -53.5 -21s-37.167 -6 -58.5 -6c-48.667 0 -89.5 11.167 -122.5 33.5
s-57.167 57.5 -72.5 105.5c-30 -45.333 -66 -79.833 -108 -103.5s-90.667 -35.5 -146 -35.5c-114 0 -202.667 48.167 -266 144.5s-95 224.166 -95 383.499v21c0 173.333 31.667 312.333 95 417s152.666 157 267.999 157c55.333 0 104 -12.667 146 -38
s78 -61.666 108 -108.999l38 126h141zM284.002 507c0 -114 16.832 -204.832 50.499 -272.499s86.5 -101.5 158.5 -101.5c42 0 78 10.667 108 32s54.333 51.666 73 90.999v26v535c-18.667 40 -43 71.5 -73 94.5s-65.667 34.5 -107 34.5
c-71.333 0 -124.166 -38.833 -158.499 -116.5s-51.5 -178.167 -51.5 -301.5v-21zM514.001 1512h203l-148 -256h-95z" />
    <glyph glyph-name="epsilontonos" unicode="&#x3ad;" horiz-adv-x="979" 
d="M490 481c-64 0 -112.671 -14.3311 -146.004 -42.998s-50 -72.334 -50 -131.001c0 -52 17.667 -94.667 53 -128s84.333 -50 147 -50c61.333 0 110.5 18 147.5 54s55.5 80.333 55.5 133h194l2 -6c2.66699 -106 -35.166 -187.333 -113.499 -244s-171.166 -85 -278.499 -85
c-121.333 0 -220.166 28.667 -296.499 86s-114.5 135.666 -114.5 234.999c0 62 15.667 114.667 47 158s76.666 75.333 135.999 96c-52.667 23.333 -93.5 55.5 -122.5 96.5s-43.5 86.5 -43.5 136.5c0 98.667 35.5 175.167 106.5 229.5s166.833 81.5 287.5 81.5
c107.333 0 197.833 -29 271.5 -87s108.834 -133.333 105.501 -226l-2 -6h-194c0 49.333 -18 89.833 -54 121.5s-80.333 47.5 -133 47.5c-61.333 0 -107.5 -16 -138.5 -48s-46.5 -71.667 -46.5 -119c0 -50 14.833 -89.333 44.5 -118s74.834 -43 135.501 -43h168v-141h-168z
M467.996 1511h203l-148 -256h-95z" />
    <glyph glyph-name="etatonos" unicode="&#x3ae;" 
d="M301 1082l12.002 -156c30 56 68.167 99.333 114.5 130s98.5 46 156.5 46c97.333 0 172.666 -34.5 225.999 -103.5s80 -179.833 80 -332.5v-1081h-204v1080c0 102 -14.333 174.333 -43 217s-71.667 64 -129 64c-44.667 0 -83.334 -11.5 -116.001 -34.5
s-59 -54.833 -79 -95.5v-816h-204v1082h186zM475.002 1512h203l-148 -256h-95z" />
    <glyph glyph-name="iotatonos" unicode="&#x3af;" horiz-adv-x="589" 
d="M352 1081v-794.999c0 -56 7.33301 -95 22 -117s35.667 -33 63 -33c15.333 0 28.5 1.5 39.5 4.5s25.5 8.16699 43.5 15.5l30 -138c-26 -14.667 -51.167 -24.834 -75.5 -30.501s-51.833 -8.5 -82.5 -8.5c-79.333 0 -139.833 25 -181.5 75s-62.5 129.667 -62.5 239v788h204z
M232 1490h203l-148 -256h-95z" />
    <glyph glyph-name="upsilondieresistonos" unicode="&#x3b0;" 
d="M320 1082l0.00195312 -609.001c0 -118 17.333 -204.167 52 -258.5s81.667 -81.5 141 -81.5c71.333 0 123.666 40.333 156.999 121s50 179.334 50 296.001c-2 89.333 -11.333 178 -28 266s-39.334 176.667 -68.001 266h201c29.333 -74 53 -154.167 71 -240.5
s27 -183.5 27 -291.5c0 -171.333 -32 -309.333 -96 -414s-166.333 -157 -307 -157c-127.333 0 -226.333 40.667 -297 122s-106 206 -106 374v607h203zM835.002 1204h-191v182h191v-182zM382.002 1204h-191v182h191v-182zM491.002 1652h211l-129 -250h-120z" />
    <glyph glyph-name="alpha" unicode="&#x3b1;" 
d="M877 1081l0.00195312 -799c0 -52.667 5.5 -89.167 16.5 -109.5s27.5 -30.5 49.5 -30.5c7.33301 0 14.166 0.5 20.499 1.5s12.833 2.83301 19.5 5.5l20 -143c-18 -10 -35.833 -17 -53.5 -21s-37.167 -6 -58.5 -6c-48.667 0 -89.5 11.167 -122.5 33.5
s-57.167 57.5 -72.5 105.5c-30 -45.333 -66 -79.833 -108 -103.5s-90.667 -35.5 -146 -35.5c-114 0 -202.667 48.167 -266 144.5s-95 224.166 -95 383.499v21c0 173.333 31.667 312.333 95 417s152.666 157 267.999 157c55.333 0 104 -12.667 146 -38
s78 -61.666 108 -108.999l38 126h141zM284.002 507c0 -114 16.832 -204.832 50.499 -272.499s86.5 -101.5 158.5 -101.5c42 0 78 10.667 108 32s54.333 51.666 73 90.999v26v535c-18.667 40 -43 71.5 -73 94.5s-65.667 34.5 -107 34.5
c-71.333 0 -124.166 -38.833 -158.499 -116.5s-51.5 -178.167 -51.5 -301.5v-21z" />
    <glyph glyph-name="beta" unicode="&#x3b2;" horiz-adv-x="1064" 
d="M536 1477c116.667 0 209.998 -35.832 279.998 -107.499s105 -166.167 105 -283.5c0 -64.667 -15.167 -123.834 -45.5 -177.501s-71.833 -95.834 -124.5 -126.501c72 -28.667 128 -75.5 168 -140.5s60 -141.167 60 -228.5c0 -136.667 -35.167 -243.167 -105.5 -319.5
s-164.166 -114.5 -281.499 -114.5c-45.333 0 -89.833 6.83301 -133.5 20.5s-83.167 34.5 -118.5 62.5v-457h-203v1452c0 118.667 38.833 218.334 116.5 299.001s171.834 121 282.501 121zM531.998 845.001c64 0 111 20.666 141 61.999s45 100 45 176
c0 64.667 -16 120.5 -48 167.5s-76.667 70.5 -134 70.5c-56 0 -102.667 -25 -140 -75s-56 -113 -56 -189v-831c24 -29.333 54.5 -52.166 91.5 -68.499s78.167 -24.5 123.5 -24.5c68.667 0 122.5 25.5 161.5 76.5s58.5 118.167 58.5 201.5c0 81.333 -18 149 -54 203
s-86 81 -150 81h-103v150h64z" />
    <glyph glyph-name="gamma" unicode="&#x3b3;" horiz-adv-x="904" 
d="M665 1082h210l-318 -1043v-456h-204v453l-321 1046h212l191 -757l17 -85h6l18 85z" />
    <glyph glyph-name="delta" unicode="&#x3b4;" 
d="M832 1456v-153h-380l-2 -6l273 -270c61.333 -50.667 111.333 -117.667 150 -201s58 -174.333 58 -273v-27c0 -161.333 -38 -292.833 -114 -394.5s-180 -152.5 -312 -152.5c-134 0 -239 50 -315 150s-114 229.667 -114 389v27c0 143.333 31.167 264 93.5 362
s144.5 155 246.5 171h7l2 6l-259 249v123h666zM503 946c-74.667 0 -130.5 -37.1689 -167.5 -111.502s-55.5 -168.166 -55.5 -281.499v-27c0 -115.333 18.5 -209.666 55.5 -282.999s93.5 -110 169.5 -110c74 0 129.5 36.833 166.5 110.5s55.5 167.834 55.5 282.501v27
c0 113.333 -18.667 207.166 -56 281.499s-93.333 111.5 -168 111.5z" />
    <glyph glyph-name="epsilon" unicode="&#x3b5;" horiz-adv-x="979" 
d="M490 481c-64 0 -112.671 -14.3311 -146.004 -42.998s-50 -72.334 -50 -131.001c0 -52 17.667 -94.667 53 -128s84.333 -50 147 -50c61.333 0 110.5 18 147.5 54s55.5 80.333 55.5 133h194l2 -6c2.66699 -106 -35.166 -187.333 -113.499 -244s-171.166 -85 -278.499 -85
c-121.333 0 -220.166 28.667 -296.499 86s-114.5 135.666 -114.5 234.999c0 62 15.667 114.667 47 158s76.666 75.333 135.999 96c-52.667 23.333 -93.5 55.5 -122.5 96.5s-43.5 86.5 -43.5 136.5c0 98.667 35.5 175.167 106.5 229.5s166.833 81.5 287.5 81.5
c107.333 0 197.833 -29 271.5 -87s108.834 -133.333 105.501 -226l-2 -6h-194c0 49.333 -18 89.833 -54 121.5s-80.333 47.5 -133 47.5c-61.333 0 -107.5 -16 -138.5 -48s-46.5 -71.667 -46.5 -119c0 -50 14.833 -89.333 44.5 -118s74.834 -43 135.501 -43h168v-141h-168z
" />
    <glyph glyph-name="zeta" unicode="&#x3b6;" horiz-adv-x="913" 
d="M835 1456l0.000976562 -110.002l-307 -464c-67.333 -100 -115.666 -186.167 -144.999 -258.5s-44 -150.833 -44 -235.5c0 -75.333 15.167 -133.5 45.5 -174.5s76.166 -61.5 137.499 -61.5h40c85.333 0 152.5 -21 201.5 -63s73.5 -102.333 73.5 -181
c-1.33301 -75.333 -26 -141.666 -74 -198.999s-108 -98.666 -180 -123.999l-73 131c35.333 17.333 66.166 41 92.499 71s39.5 66.333 39.5 109c0 34 -10.333 59.833 -31 77.5s-54 26.5 -100 26.5h-46c-107.333 0 -189 35.5 -245 106.5s-84 159.833 -84 266.5
c0 83.333 19.167 174.333 57.5 273s97.5 205 177.5 319l240 336h-528v155h752z" />
    <glyph glyph-name="eta" unicode="&#x3b7;" 
d="M301 1082l12.002 -156c30 56 68.167 99.333 114.5 130s98.5 46 156.5 46c97.333 0 172.666 -34.5 225.999 -103.5s80 -179.833 80 -332.5v-1081h-204v1080c0 102 -14.333 174.333 -43 217s-71.667 64 -129 64c-44.667 0 -83.334 -11.5 -116.001 -34.5
s-59 -54.833 -79 -95.5v-816h-204v1082h186z" />
    <glyph glyph-name="theta" unicode="&#x3b8;" horiz-adv-x="1036" 
d="M962 518c0 -166.667 -38.833 -298.166 -116.5 -394.499s-181.167 -144.5 -310.5 -144.5c-130 0 -234 48.167 -312 144.5s-117 227.833 -117 394.5v419c0 165.333 38.667 296.666 116 393.999s181 146 311 146s234 -48.5 312 -145.5s117 -228.5 117 -394.5v-419z
M311 803.001h445.001v163c0 110 -19.5 196.667 -58.5 260s-93.833 95 -164.5 95s-125.334 -31.667 -164.001 -95s-58 -150 -58 -260v-163zM756.001 651.001l-445 -0.000976562v-161c0 -110 19.667 -197 59 -261s94.333 -96 165 -96s125.167 31.833 163.5 95.5
s57.5 150.834 57.5 261.501v161z" />
    <glyph glyph-name="iota" unicode="&#x3b9;" horiz-adv-x="589" 
d="M352 1081v-794.999c0 -56 7.33301 -95 22 -117s35.667 -33 63 -33c15.333 0 28.5 1.5 39.5 4.5s25.5 8.16699 43.5 15.5l30 -138c-26 -14.667 -51.167 -24.834 -75.5 -30.501s-51.833 -8.5 -82.5 -8.5c-79.333 0 -139.833 25 -181.5 75s-62.5 129.667 -62.5 239v788h204z
" />
    <glyph glyph-name="kappa" unicode="&#x3ba;" horiz-adv-x="1023" 
d="M425 457h-93v-457h-203v1082h203v-453h79l290 453h254l-369 -507l391 -575h-259z" />
    <glyph glyph-name="lambda" unicode="&#x3bb;" horiz-adv-x="984" 
d="M257 0l-221 -0.00195312l332 1051l-49 136c-15.333 51.333 -35.166 93.333 -59.499 126s-52.833 49 -85.5 49c-6.66699 0 -15.834 -0.666992 -27.501 -2s-21.834 -2.33301 -30.501 -3l-2 144c18.667 4.66699 36.667 8.66699 54 12s34.666 5 51.999 5
c81.333 0 143.833 -26.333 187.5 -79s77.834 -116 102.501 -190l312 -939c12 -48.667 27.5 -87.667 46.5 -117s40.833 -44.666 65.5 -45.999c6.66699 -0.666992 12.5 -0.666992 17.5 0s13.167 2 24.5 4l-8 -151c-12.667 -4 -26.667 -7.16699 -42 -9.5
s-29.333 -3.16602 -42 -2.49902c-69.333 2 -124.666 28.333 -165.999 79s-75.333 118.667 -102 204l-155 497l-6 -1l-14 -65z" />
    <glyph glyph-name="uni03BC" unicode="&#x3bc;" horiz-adv-x="1055" 
d="M335 1082v-626c0 -123.333 15 -207.833 45 -253.5s73 -68.5 129 -68.5c52 0 94.333 12.5 127 37.5s57.667 61.5 75 109.5v801h202v-1082h-186l-6 90c-26 -36 -56.667 -63.5 -92 -82.5s-75.333 -28.5 -120 -28.5c-36 0 -68.5 5.16699 -97.5 15.5s-54.5 26.833 -76.5 49.5
v-460h-202v1498h202z" />
    <glyph glyph-name="nu" unicode="&#x3bd;" horiz-adv-x="903" 
d="M435 325l17 -85h6l18 85l189 757h210l-330 -1082h-181l-332 1082h212z" />
    <glyph glyph-name="xi" unicode="&#x3be;" horiz-adv-x="934" 
d="M824 1456l-0.00292969 -157.999h-255c-65.333 -5.33301 -114.333 -28.166 -147 -68.499s-49 -90.833 -49 -151.5c0 -62.667 18.333 -111.667 55 -147s94.667 -53 174 -53h125v-157h-122c-100 0 -176 -25.833 -228 -77.5s-78 -128.834 -78 -231.501
c0 -82 21.333 -147.833 64 -197.5s101.334 -74.5 176.001 -74.5h79c88 0 156.667 -21.167 206 -63.5s74 -103.833 74 -184.5c-0.666992 -77.333 -24.5 -143.833 -71.5 -199.5s-107.5 -96.5 -181.5 -122.5l-66 124c34.667 18.667 65.334 42.167 92.001 70.5
s40 63.833 40 106.5c0 36 -9.83301 64 -29.5 84s-50.167 30 -91.5 30h-57c-131.333 0 -237.166 38 -317.499 114s-120.5 181.667 -120.5 317c0 96.667 23.5 177.667 70.5 243s114.833 112.666 203.5 141.999c-63.333 24.667 -112.5 59.667 -147.5 105
s-52.5 97.333 -52.5 156c0 52.667 10.167 98.667 30.5 138s49.833 72 88.5 98h-190v158h726z" />
    <glyph glyph-name="omicron" unicode="&#x3bf;" 
d="M76 553c0 160.667 38 292.334 114 395.001s180.333 154 313 154s237.167 -51.333 313.5 -154s114.5 -234.334 114.5 -395.001v-27c0 -161.333 -38 -292.833 -114 -394.5s-180 -152.5 -312 -152.5c-134 0 -239 50.833 -315 152.5s-114 233.167 -114 394.5v27zM280 526
c0 -115.333 18.5 -209.668 55.5 -283.001s93.5 -110 169.5 -110c74 0 129.5 36.833 166.5 110.5s55.5 167.834 55.5 282.501v27c0 113.333 -18.667 207.166 -56 281.499s-93.333 111.5 -168 111.5s-130.5 -37.167 -167.5 -111.5s-55.5 -168.166 -55.5 -281.499v-27z" />
    <glyph glyph-name="pi" unicode="&#x3c0;" horiz-adv-x="1109" 
d="M1014 930l-61 0.000976562v-644c0 -56 7.33301 -95 22 -117s35.667 -33 63 -33c15.333 0 28.5 1.5 39.5 4.5s25.5 8.16699 43.5 15.5l30 -138c-26 -14.667 -51.167 -24.834 -75.5 -30.501s-51.833 -8.5 -82.5 -8.5c-79.333 0 -139.833 25 -181.5 75
s-62.5 129.667 -62.5 239v637h-335v-930h-203v930h-136v152h939v-152z" />
    <glyph glyph-name="rho" unicode="&#x3c1;" 
d="M927 507c0 -160 -31.5 -287.999 -94.5 -383.999s-151.5 -144 -265.5 -144c-52.667 0 -99.5 9.83301 -140.5 29.5s-76.167 48.5 -105.5 86.5v-511h-204v1001h2l-2 4c0 159.333 37.333 284.666 112 375.999s172.334 137 293.001 137
c129.333 0 229.166 -52.167 299.499 -156.5s105.5 -243.5 105.5 -417.5v-21zM723 528.001c0 124 -16.8311 224.667 -50.498 302s-85.834 116 -156.501 116c-64.667 0 -113.334 -37 -146.001 -111s-49 -160 -49 -258v-317c18.667 -40.667 43.667 -72 75 -94s70 -33 116 -33
c71.333 0 124.333 34 159 102s52 158.667 52 272v21z" />
    <glyph glyph-name="sigma1" unicode="&#x3c2;" horiz-adv-x="939" 
d="M494 1102c110.667 0 199.831 -35.0029 267.498 -105.003s100.5 -166 98.5 -288l-3 -6h-183c0 74 -15.5 133 -46.5 177s-75.5 66 -133.5 66c-73.333 0 -127.5 -37.167 -162.5 -111.5s-52.5 -166.166 -52.5 -275.499v-38c0 -103.333 21.833 -188.166 65.5 -254.499
s110.167 -106.5 199.5 -120.5c103.333 -15.333 179.333 -41.5 228 -78.5s73 -94.5 73 -172.5c-1.33301 -74 -26 -139.167 -74 -195.5s-108 -97.5 -180 -123.5l-73 131c35.333 17.333 66 40.5 92 69.5s39 64.5 39 106.5c0 32.667 -11.833 57.834 -35.5 75.501
s-60.5 30.834 -110.5 39.501c-141.333 19.333 -247.666 74.166 -318.999 164.499s-107 209.833 -107 358.5v38c0 156 36.833 285.5 110.5 388.5s175.834 154.5 306.501 154.5z" />
    <glyph glyph-name="sigma" unicode="&#x3c3;" horiz-adv-x="1015" 
d="M993 925h-242.998c53.333 -46 95.666 -104 126.999 -174s47 -146.333 47 -229v-26c0 -146.667 -37.833 -269.5 -113.5 -368.5s-177.834 -148.5 -306.501 -148.5c-133.333 0 -238 50.833 -314 152.5s-114 233.167 -114 394.5v27c0 155.333 38 282.333 114 381
s180 148 312 148h491v-157zM279.002 526c0 -115.333 18.501 -209.666 55.501 -282.999s93.5 -110 169.5 -110c71.333 0 125.166 36.833 161.499 110.5s54.5 167.834 54.5 282.501v27c0 107.333 -18.167 196.166 -54.5 266.499s-90.833 105.5 -163.5 105.5
c-74.667 0 -130.5 -35.333 -167.5 -106s-55.5 -159.334 -55.5 -266.001v-27z" />
    <glyph glyph-name="tau" unicode="&#x3c4;" horiz-adv-x="934" 
d="M873 927h-306v-927h-204v927h-301v155h811v-155z" />
    <glyph glyph-name="upsilon" unicode="&#x3c5;" 
d="M320 1082l0.00195312 -609.001c0 -118 17.333 -204.167 52 -258.5s81.667 -81.5 141 -81.5c71.333 0 123.666 40.333 156.999 121s50 179.334 50 296.001c-2 89.333 -11.333 178 -28 266s-39.334 176.667 -68.001 266h201c29.333 -74 53 -154.167 71 -240.5
s27 -183.5 27 -291.5c0 -171.333 -32 -309.333 -96 -414s-166.333 -157 -307 -157c-127.333 0 -226.333 40.667 -297 122s-106 206 -106 374v607h203z" />
    <glyph glyph-name="phi" unicode="&#x3c6;" horiz-adv-x="1290" 
d="M740 1082c142.667 0 257.833 -53.499 345.5 -160.499s131.5 -238.167 131.5 -393.5c0 -145.333 -38.667 -267.833 -116 -367.5s-197.666 -158.167 -360.999 -175.5v-463h-204v463c-162.667 19.333 -281.5 82 -356.5 188s-112.5 237.667 -112.5 395
c0 103.333 9.66699 196.666 29 279.999s45.666 161.333 78.999 234h198c-31.333 -88 -56 -174.5 -74 -259.5s-27.667 -169.833 -29 -254.5c0 -106 20.667 -197.167 62 -273.5s107.333 -123.5 198 -141.5l6 2v927h204zM1013 528.001
c-1.33301 110 -25.832 203.332 -73.499 279.999s-112.167 113.334 -193.5 110.001l-6 -2v-764l6 -2c91.333 15.333 158.666 58 201.999 128s65 153.333 65 250z" />
    <glyph glyph-name="chi" unicode="&#x3c7;" horiz-adv-x="984" 
d="M160 1095c81.333 0 143.667 -25.832 187 -77.499s77.666 -113.834 102.999 -186.501l71 -199h6l191 450h206l-305 -721l169 -468c16.667 -50.667 33.334 -89.834 50.001 -117.501s37 -42.5 61 -44.5h22c6 0 13.333 0.666992 22 2l-9 -152c-11.333 -4 -24.833 -7 -40.5 -9
s-30.167 -3 -43.5 -3c-64.667 2.66699 -116.334 28.167 -155.001 76.5s-72 117.833 -100 208.5l-85 235h-6l-213 -504h-206l328 775l-147 409c-16.667 51.333 -37.667 92.833 -63 124.5s-55 47.5 -89 47.5c-6.66699 0 -14.667 -0.666992 -24 -2
s-20.666 -2.66602 -33.999 -3.99902l-2 145c16.667 4 34 7.5 52 10.5s36 4.5 54 4.5z" />
    <glyph glyph-name="psi" unicode="&#x3c8;" horiz-adv-x="1285" 
d="M735 1081v-926.001l6 -2c92 17.333 159.5 65.5 202.5 144.5s64.5 172.833 64.5 281.5c-1.33301 82.667 -10.833 165.667 -28.5 249s-41.834 168 -72.501 254h198c32 -69.333 57.833 -145 77.5 -227s29.5 -174 29.5 -276c0 -163.333 -38.167 -299 -114.5 -407
s-197.166 -170.667 -362.499 -188v-446h-204v448c-144.667 18.667 -256.5 77.834 -335.5 177.501s-118.5 242.5 -118.5 428.5v490h204v-492c0 -131.333 22 -232.833 66 -304.5s103.333 -115.167 178 -130.5l6 2v924h204z" />
    <glyph glyph-name="omega" unicode="&#x3c9;" horiz-adv-x="1520" 
d="M423 1082c-40 -89.333 -71.333 -178 -94 -266s-34.667 -176.667 -36 -266c0 -122 14.167 -221.833 42.5 -299.5s73.166 -114.834 134.499 -111.501h6c52.667 -3.33301 95.5 22.5 128.5 77.5s49.5 142.5 49.5 262.5v311h211v-311c0 -119.333 16.333 -206.666 49 -261.999
s76 -81.333 130 -78h6c60.667 -3.33301 105.334 33.667 134.001 111s43 177.333 43 300c-2.66699 90 -15.334 179.167 -38.001 267.5s-53.667 176.5 -93 264.5h202c40 -74 72 -154.167 96 -240.5s36 -183.5 36 -291.5c0 -171.333 -30 -309.333 -90 -414s-155 -157 -285 -157
c-70 0 -130.167 18.833 -180.5 56.5s-88.833 93.5 -115.5 167.5c-26.667 -74 -65 -129.833 -115 -167.5s-109.667 -56.5 -179 -56.5c-131.333 0 -226.666 52.333 -285.999 157s-89 242.667 -89 414c0 108 11.833 205.167 35.5 291.5s55.5 166.5 95.5 240.5h202z" />
    <glyph glyph-name="iotadieresis" unicode="&#x3ca;" horiz-adv-x="589" 
d="M352 1081v-794.999c0 -56 7.33301 -95 22 -117s35.667 -33 63 -33c15.333 0 28.5 1.5 39.5 4.5s25.5 8.16699 43.5 15.5l30 -138c-26 -14.667 -51.167 -24.834 -75.5 -30.501s-51.833 -8.5 -82.5 -8.5c-79.333 0 -139.833 25 -181.5 75s-62.5 129.667 -62.5 239v788h204z
M583 1273h-209v185h209v-185zM147 1273h-209v185h209v-185z" />
    <glyph glyph-name="upsilondieresis" unicode="&#x3cb;" 
d="M320 1082l0.00195312 -609.001c0 -118 17.333 -204.167 52 -258.5s81.667 -81.5 141 -81.5c71.333 0 123.666 40.333 156.999 121s50 179.334 50 296.001c-2 89.333 -11.333 178 -28 266s-39.334 176.667 -68.001 266h201c29.333 -74 53 -154.167 71 -240.5
s27 -183.5 27 -291.5c0 -171.333 -32 -309.333 -96 -414s-166.333 -157 -307 -157c-127.333 0 -226.333 40.667 -297 122s-106 206 -106 374v607h203zM842.002 1274h-209v185h209v-185zM406.002 1274h-209v185h209v-185z" />
    <glyph glyph-name="omicrontonos" unicode="&#x3cc;" 
d="M76 553c0 160.667 38 292.334 114 395.001s180.333 154 313 154s237.167 -51.333 313.5 -154s114.5 -234.334 114.5 -395.001v-27c0 -161.333 -38 -292.833 -114 -394.5s-180 -152.5 -312 -152.5c-134 0 -239 50.833 -315 152.5s-114 233.167 -114 394.5v27zM280 526
c0 -115.333 18.5 -209.668 55.5 -283.001s93.5 -110 169.5 -110c74 0 129.5 36.833 166.5 110.5s55.5 167.834 55.5 282.501v27c0 113.333 -18.667 207.166 -56 281.499s-93.333 111.5 -168 111.5s-130.5 -37.167 -167.5 -111.5s-55.5 -168.166 -55.5 -281.499v-27z
M478 1512h203l-148 -256h-95z" />
    <glyph glyph-name="upsilontonos" unicode="&#x3cd;" 
d="M320 1082l0.00195312 -609.001c0 -118 17.333 -204.167 52 -258.5s81.667 -81.5 141 -81.5c71.333 0 123.666 40.333 156.999 121s50 179.334 50 296.001c-2 89.333 -11.333 178 -28 266s-39.334 176.667 -68.001 266h201c29.333 -74 53 -154.167 71 -240.5
s27 -183.5 27 -291.5c0 -171.333 -32 -309.333 -96 -414s-166.333 -157 -307 -157c-127.333 0 -226.333 40.667 -297 122s-106 206 -106 374v607h203zM491.002 1491h203l-148 -256h-95z" />
    <glyph glyph-name="omegatonos" unicode="&#x3ce;" horiz-adv-x="1520" 
d="M423 1082c-40 -89.333 -71.333 -178 -94 -266s-34.667 -176.667 -36 -266c0 -122 14.167 -221.833 42.5 -299.5s73.166 -114.834 134.499 -111.501h6c52.667 -3.33301 95.5 22.5 128.5 77.5s49.5 142.5 49.5 262.5v311h211v-311c0 -119.333 16.333 -206.666 49 -261.999
s76 -81.333 130 -78h6c60.667 -3.33301 105.334 33.667 134.001 111s43 177.333 43 300c-2.66699 90 -15.334 179.167 -38.001 267.5s-53.667 176.5 -93 264.5h202c40 -74 72 -154.167 96 -240.5s36 -183.5 36 -291.5c0 -171.333 -30 -309.333 -90 -414s-155 -157 -285 -157
c-70 0 -130.167 18.833 -180.5 56.5s-88.833 93.5 -115.5 167.5c-26.667 -74 -65 -129.833 -115 -167.5s-109.667 -56.5 -179 -56.5c-131.333 0 -226.666 52.333 -285.999 157s-89 242.667 -89 414c0 108 11.833 205.167 35.5 291.5s55.5 166.5 95.5 240.5h202zM732 1491
h203l-148 -256h-95z" />
    <glyph glyph-name="uni03D1" unicode="&#x3d1;" horiz-adv-x="1158" 
d="M467 1015l0.000976562 74c0 117.333 28.833 211.333 86.5 282s132.167 106 223.5 106c93.333 0 167 -34.5 221 -103.5s81 -163.833 81 -284.5v-526c0 -178.667 -44.333 -320.667 -133 -426s-206.334 -158 -353.001 -158c-144 0 -260.5 54.667 -349.5 164
s-133.5 249.333 -133.5 420v689l210 2v-691c0 -126.667 24.5 -229 73.5 -307s115.5 -117 199.5 -117c86.667 0 154.5 37.167 203.5 111.5s73.5 178.5 73.5 312.5v9c-118.667 8 -215.5 53.167 -290.5 135.5s-112.5 184.833 -112.5 307.5v0zM870.001 1098
c0 70.667 -8.5 123.833 -25.5 159.5s-41.5 53.5 -73.5 53.5c-33.333 0 -59.5 -18 -78.5 -54s-28.5 -89 -28.5 -159v-85c0 -78 17.833 -143.167 53.5 -195.5s84.5 -80.5 146.5 -84.5l6 2v363z" />
    <glyph glyph-name="uni03D2" unicode="&#x3d2;" horiz-adv-x="1000" 
d="M660 1227c32 89.333 67.8301 152.333 107.497 189s90.167 55 151.5 55c16.667 0 32.667 -2 48 -6s29.666 -10 42.999 -18l-21 -149c-3.33301 2 -9.16602 4.16699 -17.499 6.5s-16.166 3.5 -23.499 3.5c-22 0 -41.167 -8.33301 -57.5 -25s-29.833 -44.667 -40.5 -84
l-251 -645v-554h-202v561l-249 638c-11.333 39.333 -25.166 67.333 -41.499 84s-35.166 25 -56.499 25c-8 0 -16.333 -1.16699 -25 -3.5s-14 -4.5 -16 -6.5l-19 149c12 8 25.5 14 40.5 18s31.5 6 49.5 6c60.667 0 110.667 -18 150 -54s75 -98.667 107 -188l143 -407l16 -73
h6l17 73z" />
    <glyph glyph-name="uni03D6" unicode="&#x3d6;" horiz-adv-x="1435" 
d="M1406 940h-125.999c19.333 -57.333 34.666 -118.166 45.999 -182.499s17 -133.5 17 -207.5c0 -170.667 -27 -308.5 -81 -413.5s-139.667 -157.5 -257 -157.5c-67.333 0 -125.333 18.333 -174 55s-86 91.334 -112 164.001
c-26.667 -72.667 -64.167 -127.334 -112.5 -164.001s-105.5 -55 -171.5 -55c-118 0 -204 52.5 -258 157.5s-81 242.833 -81 413.5c0 74 5.5 143.167 16.5 207.5s26.5 125.166 46.5 182.499h-114v142h1361v-142zM1139 550c-1.33301 65.333 -7.83398 130.334 -19.501 195.001
s-27.834 129.667 -48.501 195h-703c-21.333 -65.333 -37.833 -130.333 -49.5 -195s-18.167 -129.667 -19.5 -195c0 -121.333 11.333 -220.833 34 -298.5s58.334 -114.834 107.001 -111.501h6c50 -4 90.5 21.5 121.5 76.5s46.5 142.5 46.5 262.5v244h211v-244
c0 -120 15.333 -207.5 46 -262.5s71.334 -80.5 122.001 -76.5h6c48 -3.33301 83.333 33.5 106 110.5s34 176.833 34 299.5z" />
    <glyph glyph-name="uni0400" unicode="&#x400;" horiz-adv-x="989" 
d="M836 676h-494v-522h582v-154h-785v1456h780v-156h-577v-469h494v-155zM629 1602h-177l-232 261l2 5h235z" />
    <glyph glyph-name="uni0401" unicode="&#x401;" horiz-adv-x="989" 
d="M836 676h-494v-522h582v-154h-785v1456h780v-156h-577v-469h494v-155zM855 1617h-209v185h209v-185zM419 1617h-209v185h209v-185z" />
    <glyph glyph-name="uni0402" unicode="&#x402;" horiz-adv-x="1339" 
d="M1030 1300h-386v-1300h-204v1300h-383v156h973v-156zM649 883h246.999c144.667 0 260.834 -41 348.501 -123s131.5 -199 131.5 -351c0 -88.667 -27.5 -178.5 -82.5 -269.5s-135.833 -149.833 -242.5 -176.5l-72 136c64.667 24 113.167 63.667 145.5 119
s48.5 119 48.5 191c0 101.333 -24.833 178.833 -74.5 232.5s-117.167 80.5 -202.5 80.5h-247v161z" />
    <glyph glyph-name="uni0403" unicode="&#x403;" horiz-adv-x="985" 
d="M925 1300h-587v-1300h-204v1456h791v-156zM605 1864h233l3 -5l-242 -261h-170z" />
    <glyph glyph-name="uni0404" unicode="&#x404;" horiz-adv-x="1160" 
d="M1067 439l2.00293 -6.00195c2.66699 -143.333 -37.333 -254.666 -120 -333.999s-196.334 -119 -341.001 -119c-149.333 0 -268.333 47.833 -357 143.5s-133 229.834 -133 402.501v404c0 172 43.667 306.333 131 403s204.666 145 351.999 145
c148.667 0 264.667 -38.5 348 -115.5s123.666 -189.5 120.999 -337.5l-2 -6h-195c0 104 -22.667 180.5 -68 229.5s-113.333 73.5 -204 73.5c-89.333 0 -158.333 -33.5 -207 -100.5s-73 -163.167 -73 -288.5v-120h424v-155h-424v-132c0 -126.667 25 -223.667 75 -291
s120.667 -101 212 -101c88 0 154 24.167 198 72.5s66 125.833 66 232.5h195z" />
    <glyph glyph-name="uni0405" unicode="&#x405;" horiz-adv-x="1094" 
d="M803 366c0 66.667 -18.9961 121.502 -56.9961 164.502s-105 82.167 -201 117.5c-136.667 42.667 -241.667 97.667 -315 165s-110 157 -110 269c0 114.667 40.5 209.167 121.5 283.5s184.833 111.5 311.5 111.5c134.667 0 242.667 -41.333 324 -124
s120.666 -186.334 117.999 -311.001l-2 -6h-195c0 85.333 -22.667 154.333 -68 207s-105 79 -179 79c-72 0 -127.833 -22.667 -167.5 -68s-59.5 -102 -59.5 -170c0 -63.333 21 -115.666 63 -156.999s112.667 -80.333 212 -117c132.667 -43.333 233.667 -100 303 -170
s104 -160.667 104 -272c0 -118.667 -40.833 -213.167 -122.5 -283.5s-188.834 -105.5 -321.501 -105.5c-128 0 -239.333 38 -334 114s-140.334 185 -137.001 327l2 6h196c0 -98.667 26.167 -172.334 78.5 -221.001s117.166 -73 194.499 -73
c75.333 0 134.333 21.167 177 63.5s64 99.166 64 170.499z" />
    <glyph glyph-name="uni0406" unicode="&#x406;" horiz-adv-x="518" 
d="M360 0h-203v1456h203v-1456z" />
    <glyph glyph-name="uni0407" unicode="&#x407;" horiz-adv-x="518" 
d="M360 0h-203v1456h203v-1456zM583 1617h-209v185h209v-185zM147 1617h-209v185h209v-185z" />
    <glyph glyph-name="uni0408" unicode="&#x408;" horiz-adv-x="985" 
d="M645 1456h204v-1025c0 -138 -36.667 -247.833 -110 -329.5s-167.666 -122.5 -282.999 -122.5c-124 0 -222.333 36.167 -295 108.5s-107.667 177.833 -105 316.5l3 6h195c0 -94 17.833 -163.667 53.5 -209s85.167 -68 148.5 -68c55.333 0 100.666 26.833 135.999 80.5
s53 126.167 53 217.5v1025z" />
    <glyph glyph-name="uni0409" unicode="&#x409;" horiz-adv-x="1893" 
d="M1115 1456v-566.999h262c138 0 246.667 -41.333 326 -124s119 -189.334 119 -320.001c0 -132 -39.667 -239.167 -119 -321.5s-188 -123.5 -326 -123.5h-466v1300h-388l-1 -512c-2 -276.667 -37.5 -477.167 -106.5 -601.5s-178.833 -186.5 -329.5 -186.5h-40v154h34
c88 0 149.333 46.167 184 138.5s52.667 257.5 54 495.5l3 668h794zM1115 735.001v-580.999h262c78.667 0 138.667 28.167 180 84.5s62 125.833 62 208.5c0 79.333 -20.667 147.166 -62 203.499s-101.333 84.5 -180 84.5h-262z" />
    <glyph glyph-name="uni040A" unicode="&#x40a;" horiz-adv-x="1892" 
d="M341 814h570v642h203v-595h262c138 0 246.833 -39.5 326.5 -118.5s119.5 -182.167 119.5 -309.5c0 -128 -39.833 -232.167 -119.5 -312.5s-188.5 -120.5 -326.5 -120.5h-465v659h-570v-659h-204v1456h204v-642zM1114 706v-546h262c79.333 0 139.666 26.167 180.999 78.5
s62 117.833 62 196.5c0 76.667 -20.667 141 -62 193s-101.666 78 -180.999 78h-262z" />
    <glyph glyph-name="uni040B" unicode="&#x40b;" horiz-adv-x="1430" 
d="M1046 1300h-386v-343h203c144 0 254.167 -37.833 330.5 -113.5s114.5 -195.167 114.5 -358.5v-485h-204v485c0 116 -19 197.833 -57 245.5s-99.333 71.5 -184 71.5h-203v-802h-204v1300h-383v156h973v-156z" />
    <glyph glyph-name="uni040C" unicode="&#x40c;" horiz-adv-x="1130" 
d="M442 655h-100v-655h-203v1456h203v-638h86l406 638h246l-480 -684l517 -772h-258zM600 1776h233l3 -5l-242 -261h-170z" />
    <glyph glyph-name="uni040D" unicode="&#x40d;" horiz-adv-x="1248" 
d="M909 1456h204v-1456h-204v1067l-6 1l-565 -1068h-203v1456h203v-1067l6 -1zM723 1602h-177l-232 261l2 5h235z" />
    <glyph glyph-name="uni040E" unicode="&#x40e;" horiz-adv-x="1137" 
d="M527 737l36.999 -110h6l294 829h224l-461 -1202c-36 -85.333 -78.167 -152.5 -126.5 -201.5s-116.833 -73.5 -205.5 -73.5c-36 0 -69.167 3.66699 -99.5 11s-58.166 17.333 -83.499 30l25 144c20 -8.66699 42.333 -16 67 -22s47.667 -9 69 -9
c48 0 85.667 14.833 113 44.5s49.333 70.167 66 121.5l29 80l-438 1077h223zM846.999 1872l2.00098 -5.99902c2.66699 -78.667 -21.833 -142.667 -73.5 -192s-121.5 -74 -209.5 -74c-88.667 0 -158.834 24.667 -210.501 74s-75.834 113.333 -72.501 192l2 6h152
c0 -44.667 10.333 -80.834 31 -108.501s53.334 -41.5 98.001 -41.5c42.667 0 74.5 14 95.5 42s31.5 64 31.5 108h154z" />
    <glyph glyph-name="uni040F" unicode="&#x40f;" horiz-adv-x="1247" 
d="M131 1456h204v-1302h570v1302h204v-1456h-379v-356h-204v356h-395v1456z" />
    <glyph glyph-name="uni0410" unicode="&#x410;" horiz-adv-x="1127" 
d="M783 368h-435l-105 -368h-211l437 1456h197l433 -1456h-211zM394 529h344l-168 592h-6z" />
    <glyph glyph-name="uni0411" unicode="&#x411;" horiz-adv-x="1120" 
d="M925 1300h-587v-416h262c138 0 246.833 -40.667 326.5 -122s119.5 -187 119.5 -317c0 -132 -39.833 -239.167 -119.5 -321.5s-188.5 -123.5 -326.5 -123.5h-466v1456h791v-156zM338 729v-574.999h262c79.333 0 139.666 28.167 180.999 84.5s62 125.833 62 208.5
c0 79.333 -20.667 146.166 -62 200.499s-101.666 81.5 -180.999 81.5h-262z" />
    <glyph glyph-name="uni0412" unicode="&#x412;" horiz-adv-x="1130" 
d="M139 0v1456h403c139.333 0 248.166 -32.667 326.499 -98s117.5 -163.333 117.5 -294c0 -68 -17 -128.333 -51 -181s-81.333 -91.334 -142 -116.001c84.667 -14 149.834 -54.167 195.501 -120.5s68.5 -144.5 68.5 -234.5c0 -134 -38.5 -236.167 -115.5 -306.5
s-183.167 -105.5 -318.5 -105.5h-484zM342 679.001v-525h281c73.333 0 130 22.167 170 66.5s60 107.833 60 190.5c0 80 -19.5 144 -58.5 192s-93.833 73.333 -164.5 76h-11h-277zM342 825.001h231.001c65.333 2 116.5 23.167 153.5 63.5s55.5 97.5 55.5 171.5
c0 80 -20.333 140 -61 180s-100.334 60 -179.001 60h-200v-475z" />
    <glyph glyph-name="uni0413" unicode="&#x413;" horiz-adv-x="985" 
d="M925 1300h-587v-1300h-204v1456h791v-156z" />
    <glyph glyph-name="uni0414" unicode="&#x414;" horiz-adv-x="1312" 
d="M1284 -355h-203.999v355h-842v-356h-203v510h77c71.333 0 124.166 60.5 158.499 181.5s56.5 306.167 66.5 555.5l29 565h762v-1302h156v-509zM541.001 891c-7.33301 -170 -24.333 -317 -51 -441s-64 -222.667 -112 -296h546v1146h-363z" />
    </font>
</defs>
</svg>
